<?xml version="1.0" encoding="UTF-8" standalone="no"?>
<svg
    xmlns:dc="http://purl.org/dc/elements/1.1/"
    xmlns:cc="http://creativecommons.org/ns#"
    xmlns:rdf="http://www.w3.org/1999/02/22-rdf-syntax-ns#"
    xmlns:svg="http://www.w3.org/2000/svg"
    xmlns="http://www.w3.org/2000/svg"
    xmlns:sodipodi="http://sodipodi.sourceforge.net/DTD/sodipodi-0.dtd"
    xmlns:inkscape="http://www.inkscape.org/namespaces/inkscape"
    sodipodi:docname="Provincias de Ñuble.svg"
    inkscape:version="1.0 (4035a4fb49, 2020-05-01)"
    id="svg2"
    height="430"
    width="550"
    version="1.0">
    <metadata
        id="metadata68">
        <rdf:RDF>
            <cc:Work
                rdf:about="">
                <dc:format>image/svg+xml</dc:format>
                <dc:type
                    rdf:resource="http://purl.org/dc/dcmitype/StillImage" />
                <dc:title />
            </cc:Work>
        </rdf:RDF>
    </metadata>
    <sodipodi:namedview

        inkscape:document-rotation="0"
        inkscape:current-layer="svg2"
        inkscape:window-maximized="1"
        inkscape:window-y="-8"
        inkscape:window-x="-8"
        inkscape:cy="232.25949"
        inkscape:cx="71.605117"
        inkscape:zoom="0.35181766"
        showgrid="false"
        id="namedview66"
        inkscape:window-height="715"
        inkscape:window-width="1366"
        inkscape:pageshadow="2"
        inkscape:pageopacity="0"
        guidetolerance="10"
        gridtolerance="10"
        objecttolerance="10"
        borderopacity="1"
        bordercolor="#666666"
        pagecolor="#ffffff" />

    <defs
        id="defs5" />
    <g
        transform="matrix(0.7316368,0,0,0.7316368,-275.73052,11.107154)"
        id="Provincia_Arauco" />
    <g
        transform="matrix(0.7316368,0,0,0.7316368,-275.73052,11.107154)"
        id="Provincia_Concepcion" />
    <g
        transform="matrix(0.7316368,0,0,0.7316368,-275.73052,11.107154)"
        id="Provincia_Biobio" />
    <g
        id="diguillin">
        <title
            id="diguillin">Provincia de Diguillín</title>
        <path
            d="m 88.944697,325.11652 c 0.722419,0.0376 1.221007,0.0271 2.149184,0.11432 1.708693,0.16058 3.611666,0.42278 5.030003,0.77737 1.544602,0.38615 3.151525,0.44466 4.755636,0.503 1.60412,0.0583 3.20038,0.10275 4.70991,0.48013 1.79862,0.44965 2.82935,1.05131 3.70392,1.23464 0.43728,0.0917 0.82014,0.0897 1.2575,-0.0915 0.43735,-0.18116 0.91751,-0.55169 1.509,-1.14318 0.27007,-0.27007 0.54326,-0.44698 0.82309,-0.57159 0.27983,-0.1246 0.56568,-0.19785 0.84595,-0.20577 0.56055,-0.0159 1.11679,0.17912 1.62332,0.45727 1.01306,0.55631 1.8445,1.47868 2.19491,1.82909 0.35246,0.35246 0.79285,0.46085 1.28037,0.45728 0.48752,-0.004 1.02948,-0.13053 1.57759,-0.27437 0.54811,-0.14384 1.11197,-0.29747 1.64618,-0.36582 0.53421,-0.0683 1.04031,-0.04 1.48614,0.18291 0.31266,0.15633 0.53302,0.35617 0.70877,0.57159 0.17576,0.21543 0.30834,0.45191 0.38869,0.68591 0.16068,0.46801 0.15495,0.91259 0.1829,1.21178 0.014,0.14959 0.0484,0.27348 0.0915,0.32009 0.043,0.0466 0.0922,0.0283 0.20577,-0.0686 0.22714,-0.19379 0.63647,-0.72669 1.39468,-1.73763 0.57084,-0.76111 0.94807,-1.56549 1.23464,-2.46928 0.28658,-0.90379 0.50069,-1.88845 0.77737,-2.99514 0.15845,-0.6338 0.10804,-1.13601 -0.0228,-1.55472 -0.13091,-0.41872 -0.35776,-0.76473 -0.52587,-1.12032 -0.1681,-0.3556 -0.27549,-0.72159 -0.22863,-1.16605 0.0468,-0.44445 0.2634,-0.9609 0.77736,-1.64618 0.9156,-1.22082 1.17034,-1.67334 1.98914,-2.49214 h 4.98428 l 2.99513,5.96741 2.97228,-3.47527 3.49814,2.99514 -4.48128,3.47527 0.98314,2.49214 2.012,-2.49214 7.97941,1.509 0.48014,2.49214 2.49214,-1.006 0.503,-3.97828 c 0.66461,-0.3323 1.32453,-0.6737 1.98914,-1.006 1.37718,-0.6886 2.02774,-0.92834 2.44641,-1.44041 0.41866,-0.51206 0.61442,-1.29165 1.05172,-3.04086 0.1357,-0.5428 0.35823,-0.93475 0.61732,-1.2575 0.2591,-0.32276 0.54549,-0.57851 0.82309,-0.86882 0.27761,-0.29031 0.5404,-0.60626 0.73164,-1.05173 0.19124,-0.44546 0.32009,-1.01801 0.32009,-1.80623 10e-6,-0.46244 -0.38065,-1.52567 -0.7545,-2.81223 -0.37384,-1.28655 -0.73164,-2.7915 -0.73164,-4.16118 0,-0.74447 -0.10043,-1.39525 -0.2515,-1.96627 -0.15106,-0.57103 -0.36979,-1.07376 -0.64018,-1.53187 -0.54077,-0.91621 -1.2758,-1.66449 -2.10345,-2.49214 -0.45862,-0.45862 -1.14374,-2.01442 -1.73764,-3.61245 -0.5939,-1.59804 -1.101,-3.23796 -1.2575,-3.86396 -0.15239,-0.60955 -0.40751,-1.15836 -0.73164,-1.64618 -0.32413,-0.48783 -0.72053,-0.90756 -1.14318,-1.30323 -0.8453,-0.79135 -1.80638,-1.43481 -2.60646,-2.03487 -0.56691,-0.42519 -1.05373,-0.83382 -1.44041,-1.2575 -0.38667,-0.42367 -0.68243,-0.85815 -0.91454,-1.32609 -0.23211,-0.46794 -0.39978,-0.97389 -0.503,-1.53186 -0.10322,-0.55797 -0.13719,-1.18106 -0.13719,-1.87482 1e-5,-1.49289 0.32101,-2.35132 0.48014,-3.15519 0.0796,-0.40193 0.10541,-0.78779 0.0457,-1.23463 -0.0597,-0.44685 -0.2076,-0.94106 -0.52587,-1.57759 -0.29965,-0.59933 -0.37012,-1.23667 -0.29722,-1.85196 0.0729,-0.61529 0.29372,-1.20893 0.57159,-1.7605 0.55573,-1.10315 1.34458,-2.00763 1.71477,-2.37782 0.41852,-0.41852 0.62328,-0.81422 0.66305,-1.21177 0.0398,-0.39756 -0.0869,-0.79111 -0.29723,-1.16605 -0.42072,-0.74988 -1.20244,-1.45394 -1.85195,-2.10346 -1.07049,-1.07049 -1.62729,-1.80581 -2.01201,-2.65218 -0.38471,-0.84637 -0.60177,-1.81266 -0.98313,-3.33809 -0.15093,-0.60371 -0.37973,-1.13779 -0.66305,-1.64619 -0.28332,-0.5084 -0.61747,-0.97815 -0.98314,-1.41754 -0.73133,-0.87878 -1.5945,-1.6631 -2.35495,-2.42355 -0.60108,-0.60108 -0.9112,-1.12284 -1.05173,-1.60045 -0.14053,-0.47762 -0.1072,-0.91029 0.0457,-1.3261 0.30586,-0.83161 1.03182,-1.58351 1.509,-2.53786 0.32561,-0.65122 0.51656,-1.21281 0.57159,-1.71478 0.055,-0.50196 -0.022,-0.95659 -0.18291,-1.37181 -0.16098,-0.41523 -0.40919,-0.79789 -0.73164,-1.18891 -0.32244,-0.39103 -0.71382,-0.78242 -1.14318,-1.21178 -0.30436,-0.30437 -0.57201,-0.67809 -0.86882,-1.006 -0.5747,0.52631 -3.10053,2.47929 -3.17804,2.78937 -0.13866,0.55464 -0.25817,0.98862 -0.41155,1.32609 -0.15338,0.33747 -0.34043,0.58186 -0.59446,0.7545 -0.25402,0.17264 -0.58828,0.28281 -1.02886,0.34295 -0.44058,0.0601 -0.97886,0.0686 -1.69191,0.0686 -0.75055,0 -1.99557,-0.14688 -3.20091,-0.22864 -0.60267,-0.0409 -1.18704,-0.0764 -1.71477,-0.0457 -0.52774,0.0307 -0.99905,0.11085 -1.3261,0.27437 -0.60186,0.30093 -0.98051,0.65266 -1.23463,1.006 -0.25412,0.35334 -0.3681,0.7255 -0.43441,1.07459 -0.0663,0.34909 -0.0987,0.67213 -0.13718,0.96027 -0.0385,0.28815 -0.10383,0.53824 -0.27437,0.70878 -0.36547,0.36546 -0.88147,1.07977 -1.46327,1.71477 -0.29091,0.3175 -0.57863,0.60781 -0.89168,0.82309 -0.31306,0.21529 -0.64636,0.36582 -0.96028,0.36582 -1.00151,0 -2.3791,0.0659 -3.70391,0 -0.6624,-0.0329 -1.32184,-0.0977 -1.89768,-0.22864 -0.57584,-0.13094 -1.06273,-0.33405 -1.44041,-0.61731 -1.05736,-0.79303 -1.88168,-1.30275 -2.65219,-1.62332 -0.7705,-0.32058 -1.49068,-0.43441 -2.33209,-0.43441 -0.93373,0 -1.51407,0.0901 -1.85195,0.27436 -0.33789,0.18429 -0.43383,0.4639 -0.43441,0.77737 -5.9e-4,0.31346 0.10473,0.66422 0.18291,1.05172 0.0782,0.38751 0.12446,0.80535 0.0228,1.21178 -0.11721,0.46887 -0.56049,1.59626 -0.80022,2.7665 -0.11987,0.58512 -0.17857,1.18128 -0.13719,1.71477 0.0414,0.53349 0.19532,0.99555 0.52587,1.32609 0.59427,0.59428 0.82986,0.89848 0.82309,1.05173 -0.007,0.15326 -0.27043,0.14852 -0.61732,0.13718 -0.34689,-0.0113 -0.78568,-0.0319 -1.21177,0.0686 -0.42609,0.10049 -0.83023,0.33435 -1.07459,0.82309 -0.25685,0.51368 -0.61841,0.84945 -1.02887,1.07459 -0.41045,0.22514 -0.87428,0.33525 -1.34895,0.43441 -0.0773,0.0162 -0.151,0.0304 -0.22864,0.0457 0.0512,0.15838 0.10301,0.36996 0.16005,0.45727 0.11066,0.1694 0.23986,0.18331 0.36581,-0.0686 0.10872,-0.21743 0.91651,-0.57667 1.64619,-0.73164 0.36483,-0.0775 0.71596,-0.11468 0.93741,-0.0457 0.22144,0.0689 0.30394,0.24613 0.18291,0.54873 -0.10794,0.26983 -0.72649,0.76814 -1.30323,1.30323 -0.28838,0.26754 -0.56256,0.54608 -0.7545,0.80023 -0.19195,0.25414 -0.29839,0.49832 -0.2515,0.6859 0.0629,0.25177 0.29573,0.41298 0.61732,0.52587 0.32158,0.11289 0.72609,0.16939 1.09745,0.22864 0.37136,0.0593 0.72515,0.11495 0.93741,0.20577 0.21226,0.0908 0.29289,0.20393 0.13718,0.41154 -0.22425,0.29901 -0.51353,0.65929 -0.77736,1.05173 -0.26383,0.39244 -0.50422,0.82801 -0.61732,1.28037 -0.25274,1.01097 -0.89255,2.01374 -1.39468,3.018 -0.22557,0.45115 -0.81854,0.9126 -1.2575,1.34895 -0.21949,0.21818 -0.3965,0.43787 -0.48014,0.64019 -0.0836,0.20231 -0.064,0.39326 0.11432,0.57159 0.16541,0.24811 0.15165,0.38029 0.45727,0.68591 0.40011,0.40011 0.81415,0.83284 1.12032,1.32609 0.30617,0.49325 0.503,1.04754 0.503,1.69191 0,0.44369 0.0623,1.27081 0.18291,2.03486 0.12062,0.76406 0.31201,1.45519 0.52586,1.66905 0.43607,0.43606 0.82382,0.76588 1.05173,1.16605 0.22791,0.40016 0.27861,0.87468 0.0915,1.62331 -0.29612,1.18446 -0.36179,1.72151 -0.68591,3.01801 -0.16557,0.66228 -0.43265,1.1486 -0.43441,1.509 -7.4e-4,0.1802 0.0789,0.32278 0.2515,0.45727 0.17261,0.13449 0.43433,0.25719 0.86882,0.36582 0.4511,0.11277 0.78509,0.23507 1.02886,0.38868 0.24377,0.15361 0.40649,0.34329 0.54873,0.54873 0.28446,0.41087 0.46999,0.91627 0.98313,1.60045 0.26317,0.35089 0.54172,0.58724 0.8231,0.7545 0.28138,0.16727 0.56363,0.27952 0.84595,0.36582 0.56463,0.17261 1.11289,0.2898 1.57759,0.7545 0.82401,0.82402 1.83915,1.37685 2.78937,1.85196 0.44076,0.22038 0.88759,0.74461 1.34895,1.21177 0.23068,0.23358 0.46972,0.45591 0.70878,0.61732 0.23905,0.16141 0.48206,0.2515 0.73163,0.2515 0.48737,0 1.4161,0.18928 1.98914,0.48014 0.28652,0.14543 0.4687,0.30742 0.48014,0.503 0.0114,0.19557 -0.156,0.40952 -0.61732,0.64018 -0.39754,0.19877 -0.85653,0.32232 -1.39468,0.38868 -0.53816,0.0664 -1.15254,0.0915 -1.85196,0.0915 -1.00022,0 -1.535,0.0162 -1.87482,0.22863 -0.33981,0.21244 -0.49215,0.61966 -0.68591,1.39469 -0.0667,0.2667 -0.25095,0.47988 -0.48014,0.68591 -0.22918,0.20602 -0.49337,0.40864 -0.7545,0.59445 -0.26112,0.18581 -0.50054,0.36556 -0.66304,0.57159 -0.16251,0.20603 -0.24959,0.41921 -0.18291,0.68591 0.13474,0.53896 0.31537,1.13056 0.57159,1.69191 0.25622,0.56136 0.58656,1.11242 1.05173,1.57759 0.55969,0.55969 0.91207,0.98125 1.12032,1.44041 0.20824,0.45916 0.27437,0.93361 0.27436,1.55473 0,0.77071 -0.22347,1.15154 -0.48014,1.46327 -0.25666,0.31174 -0.552,0.56188 -0.6859,1.09746 -0.0887,0.35471 -0.18696,0.62602 -0.3201,0.82309 -0.13313,0.19708 -0.3043,0.32614 -0.503,0.41155 -0.39739,0.1708 -0.95136,0.16004 -1.73763,0.16004 -1.23793,0 -2.46599,0 -3.70392,0 -0.52474,0 -1.14779,0.0598 -1.7605,0.0915 -0.61271,0.0316 -1.20868,0.035 -1.71477,-0.0915 -0.65532,-0.16383 -1.2192,-0.57217 -1.82909,-0.93741 -0.30495,-0.18261 -0.61296,-0.35341 -0.960275,-0.48013 -0.347315,-0.12673 -0.740534,-0.20578 -1.166046,-0.20578 -0.524745,0 -1.147785,0.0598 -1.760501,0.0915 -0.612717,0.0316 -1.208694,0.035 -1.714774,-0.0915 -0.513243,-0.1283 -1.62888,-1.73485 -1.851956,-1.62332 -0.328651,0.16433 -0.908407,0.43767 -1.463273,0.80023 -0.554866,0.36256 -1.088881,0.80592 -1.326092,1.28037 -0.124759,0.24951 -0.380246,0.43529 -0.68591,0.57159 -0.305663,0.13629 -0.67211,0.24087 -1.006,0.34295 -0.33389,0.10208 -0.636502,0.1961 -0.845955,0.34296 -0.209453,0.14685 -0.319155,0.34668 -0.2515,0.61732 0.0953,0.38121 0.569206,0.99729 0.983137,1.64618 0.206965,0.32444 0.400264,0.64609 0.525864,0.96027 0.1256,0.31418 0.177429,0.61636 0.114318,0.86882 -0.0597,0.23884 -0.264421,0.4311 -0.525864,0.61732 -0.261443,0.18622 -0.579098,0.36797 -0.868819,0.52586 -0.289721,0.1579 -0.541367,0.30343 -0.685909,0.45728 -0.144542,0.15384 -0.174086,0.30605 0,0.48013 0.30886,0.30886 0.698749,0.67249 1.051728,1.09746 0.26415,0.31802 0.432982,0.70992 0.594454,1.09745 z"
            style="fill:#f0e0af;fill-opacity:1;fill-rule:evenodd;stroke:#d39062;stroke-width:0.365818;stroke-linecap:butt;stroke-linejoin:miter;stroke-miterlimit:4;stroke-dasharray:none;stroke-opacity:1"
            id="Quillon"
            inkscape:connector-curvature="0" />
        <path
            d="m 213.87168,357.85727 c -0.0483,0.33873 -0.11432,0.63693 -0.11432,1.05173 0,0.38368 0.1769,0.827 0.45728,1.32609 0.28037,0.49909 0.65502,1.05558 1.02886,1.60045 0.37384,0.54488 0.74849,1.07944 1.02886,1.60046 0.28038,0.52102 0.45727,1.01287 0.45728,1.44041 0,0.8983 -0.10872,1.51687 -0.32009,1.94341 -0.21138,0.42654 -0.5232,0.66261 -0.89169,0.86882 -0.36848,0.20621 -0.78618,0.37999 -1.2575,0.61732 -0.47131,0.23733 -0.98912,0.55472 -1.509,1.07459 -0.90776,0.90776 -1.75454,1.35022 -2.515,1.85196 -0.38023,0.25087 -0.74557,0.51336 -1.07459,0.84595 -0.32903,0.33259 -0.62346,0.74391 -0.89168,1.28036 -0.50543,1.01086 -0.82363,1.68027 -1.07459,2.10346 -0.25097,0.42319 -0.43809,0.60423 -0.68591,0.66305 -0.49566,0.11764 -1.23272,-0.27437 -3.22378,-0.27437 -0.53374,0 -0.94691,0.0777 -1.30323,0.20578 -0.35631,0.12811 -0.66236,0.29875 -0.98313,0.52586 -0.64156,0.45421 -1.34712,1.0851 -2.69791,1.7605 -0.66461,0.3323 -1.32455,0.6737 -1.98914,1.006 l 1.48614,4.48128 -4.48128,5.96741 2.49214,1.006 0.98313,7.97941 h -2.49213 l 1.006,2.49214 -3.49814,0.98314 2.65218,13.6496 c 0.87307,-0.67649 1.71901,-1.42382 2.33209,-1.66905 1.17323,-0.46929 2.40333,-0.62623 3.40669,-0.96027 0.50167,-0.16702 0.94473,-0.39061 1.30323,-0.70878 0.35849,-0.31816 0.6292,-0.73346 0.77736,-1.32609 0.0546,-0.21822 0.17854,-0.40213 0.34296,-0.54872 0.16441,-0.1466 0.36889,-0.25531 0.61731,-0.34296 0.49685,-0.17529 1.15127,-0.25887 1.8291,-0.27436 1.35565,-0.031 2.86488,0.16004 3.70391,0.16004 0.47473,0 0.97553,0.13266 1.48613,0.32009 0.51061,0.18743 1.01626,0.43421 1.50901,0.70878 0.98548,0.54912 1.87771,1.16749 2.46927,1.46327 0.73966,0.36983 1.41962,0.76625 2.03486,1.09746 0.61525,0.3312 1.17159,0.59174 1.69191,0.70877 0.52033,0.11703 1.00838,0.0898 1.46328,-0.18291 0.4549,-0.27269 0.88425,-0.78536 1.30323,-1.62332 0.12391,-0.24783 0.29785,-0.43497 0.503,-0.57159 0.20515,-0.13663 0.44302,-0.21903 0.70877,-0.27437 0.5315,-0.11066 1.15617,-0.0807 1.80623,-0.0457 0.65006,0.035 1.31703,0.0816 1.92054,0.0228 0.60352,-0.0588 1.14,-0.22545 1.53187,-0.61731 0.93103,-0.93104 1.32341,-1.68 1.96627,-2.19491 0.32144,-0.25746 0.70328,-0.45955 1.2575,-0.59446 0.55423,-0.13491 1.27327,-0.20577 2.26351,-0.20577 0.5163,0 1.0597,-0.12199 1.60045,-0.29723 0.54075,-0.17524 1.07942,-0.4003 1.55473,-0.64018 0.95061,-0.47977 1.67962,-0.97699 1.82909,-1.05173 0.41507,-0.20754 0.63133,-0.24554 0.73164,-0.13718 0.1003,0.10835 0.0807,0.3657 0.0685,0.68591 -0.0121,0.32021 -0.032,0.71516 0.0457,1.14318 0.0777,0.42802 0.24745,0.87143 0.61732,1.30323 0.22695,0.26495 0.6496,0.5426 1.16604,0.77736 0.51645,0.23477 1.13792,0.43677 1.7605,0.61732 1.24517,0.36111 2.51708,0.59446 3.0866,0.59446 1.23376,0 2.79522,0.15129 4.32123,0.41154 0.30911,0.0527 0.54183,0.14492 0.84595,0.20577 0.095,-0.61756 0.17259,-1.21002 0.38868,-1.94341 0.31291,-1.06192 0.69367,-2.18022 0.93741,-3.15518 0.11541,-0.46163 -0.0342,-0.91243 -0.2515,-1.32609 -0.21734,-0.41366 -0.5157,-0.79958 -0.68591,-1.12032 -0.0851,-0.16037 -0.1351,-0.3057 -0.13718,-0.43441 -0.002,-0.12871 0.0545,-0.22866 0.18291,-0.32009 0.25687,-0.18285 0.81098,-0.29723 1.87482,-0.29723 1.19053,0 2.5289,0.0177 3.7725,0.0915 1.24361,0.0738 2.38754,0.2082 3.20091,0.41154 0.56856,0.14214 1.79676,1.11628 3.01801,2.19491 1.22124,1.07863 2.4444,2.2615 2.97227,2.78937 1.24937,1.24937 2.07113,1.96749 2.78937,2.33209 0.35911,0.1823 0.67595,0.279 1.02886,0.29723 0.35291,0.0182 0.73495,-0.0294 1.16605,-0.13718 0.55137,-0.13784 0.94291,-0.33596 1.28036,-0.54873 0.33745,-0.21277 0.61385,-0.44828 0.93741,-0.66305 0.32356,-0.21476 0.70207,-0.40489 1.21177,-0.54872 0.50971,-0.14384 1.16187,-0.22864 2.05773,-0.22864 1.46254,1e-5 2.41642,0.35526 3.3381,0.48014 0.46083,0.0624 0.91382,0.0717 1.41754,-0.0686 0.50372,-0.14029 1.04945,-0.41556 1.71478,-0.91455 0.98008,-0.73505 1.70097,-1.07614 2.37782,-1.44041 0.67684,-0.36426 1.30485,-0.75613 2.10345,-1.55472 0.13794,-0.13795 0.54892,-0.18752 1.07459,-0.18291 0.52568,0.004 1.16466,0.0555 1.82909,0.11432 1.32888,0.11772 2.69653,0.26362 3.0866,0.0685 0.70052,-0.35026 1.33984,-0.56759 1.94341,-0.73164 0.60356,-0.16404 1.16528,-0.27293 1.69191,-0.38868 0.52663,-0.11574 1.01639,-0.25192 1.48613,-0.45727 0.46974,-0.20536 0.91608,-0.48167 1.34896,-0.91455 0.54925,-0.54925 1.34057,-1.12361 2.14918,-1.64618 0.80862,-0.52257 1.65261,-0.99778 2.35496,-1.34896 1.39804,-0.69901 2.08766,-1.08123 2.58359,-1.60045 0.49593,-0.51922 0.78883,-1.16611 1.39468,-2.37782 0.23833,-0.47666 0.37131,-1.03081 0.45728,-1.62332 0.086,-0.59251 0.13675,-1.22175 0.16004,-1.82909 0.0233,-0.60734 0.0183,-1.19363 0.0686,-1.71478 0.0503,-0.52114 0.15312,-0.99215 0.32009,-1.32609 0.64955,-1.29911 0.76637,-2.09763 1.09745,-2.67504 0.16554,-0.28872 0.36396,-0.52528 0.73164,-0.73164 0.36768,-0.20637 0.88853,-0.38218 1.64618,-0.57159 0.42467,-0.10617 0.84426,-0.32522 1.23464,-0.61732 0.39038,-0.29211 0.75358,-0.66319 1.12032,-1.02887 0.73348,-0.73135 1.42351,-1.50055 2.12632,-1.85195 0.62092,-0.31046 1.34844,-0.48952 2.12632,-0.59446 0.77787,-0.10493 1.62181,-0.12962 2.46927,-0.11431 1.69493,0.0306 3.44377,0.22863 4.89282,0.22863 0.78948,0 1.59784,0.18083 2.40069,0.48014 0.80284,0.29931 1.60272,0.70435 2.37782,1.14318 1.5502,0.87767 2.99164,1.878 4.18404,2.35496 0.43119,0.17247 0.88389,0.24771 1.34896,0.2515 0.46507,0.004 0.94382,-0.0671 1.41755,-0.18291 0.94745,-0.23162 1.89002,-0.65922 2.72077,-1.07459 0.24478,-0.12239 0.50888,-0.12048 0.80023,-0.0228 0.29134,0.0976 0.61808,0.30784 0.93741,0.57159 0.63866,0.5275 1.30431,1.32609 1.94341,2.19491 1.2782,1.73765 2.40141,3.73536 2.78936,4.25264 0.47691,0.63587 1.0278,0.96439 1.57759,1.09746 0.5498,0.13307 1.1001,0.0606 1.62332,-0.13719 0.52323,-0.19773 1.02036,-0.51226 1.41755,-0.86882 0.39719,-0.35655 0.69713,-0.75406 0.86882,-1.09745 0.3047,-0.60942 0.59126,-1.02009 0.89168,-1.32609 0.30042,-0.306 0.61752,-0.51248 0.96027,-0.66305 0.68551,-0.30114 1.4947,-0.43868 2.62932,-1.006 0.42129,-0.21064 1.00658,-0.29796 1.66905,-0.32009 0.66247,-0.0222 1.41389,0.0228 2.14918,0.11432 1.4706,0.18294 2.90636,0.52081 3.65819,0.70877 0.77693,0.19423 1.47807,0.24821 2.10345,0.20577 0.62539,-0.0424 1.18045,-0.17734 1.66905,-0.38868 0.4886,-0.21133 0.91377,-0.48777 1.28036,-0.80023 0.3666,-0.31245 0.67806,-0.66019 0.93741,-1.006 0.25757,-0.34341 0.6517,-0.57378 1.12032,-0.73163 0.46863,-0.15785 1.00458,-0.25848 1.60046,-0.29723 1.19174,-0.0775 2.55186,0.0228 3.74964,0.0228 0.85683,0 1.47358,0.24695 1.96627,0.57159 0.49269,0.32464 0.85923,0.73804 1.23464,1.09745 0.37541,0.35941 0.77536,0.65022 1.28036,0.7545 0.25251,0.0522 0.51477,0.066 0.84596,0 0.33118,-0.066 0.72532,-0.21404 1.16604,-0.43441 0.23061,-0.11529 0.257,-0.54479 0.16005,-1.14318 -0.0969,-0.59838 -0.32702,-1.36768 -0.57159,-2.14918 -0.48915,-1.56301 -1.09746,-3.18536 -1.09746,-3.68105 1e-5,-0.79521 0.38067,-1.76017 0.7545,-2.78936 0.37384,-1.0292 0.7545,-2.10862 0.7545,-3.17805 0,-0.33376 0.66732,-1.2889 1.37182,-2.24064 0.70451,-0.95173 1.45064,-1.91815 1.62332,-2.2635 0.34904,-0.69808 0.52287,-1.22335 0.59446,-1.66905 0.0716,-0.4457 0.0408,-0.81456 -0.0915,-1.16604 -0.26437,-0.70296 -0.8715,-1.35433 -1.509,-2.62932 -0.14822,-0.29646 -0.0905,-0.68191 0.0686,-1.12032 0.15912,-0.43841 0.42249,-0.93412 0.70877,-1.44041 0.28628,-0.50629 0.58985,-1.03176 0.82309,-1.53187 0.23324,-0.5001 0.38868,-0.97483 0.38868,-1.39468 -1e-5,-0.38435 -3.44149,-4.41371 -3.97827,-5.48727 -0.64267,-1.28532 -1.27524,-2.03164 -1.73764,-2.8351 -0.2312,-0.40172 -0.4155,-0.82719 -0.54873,-1.32609 -0.0683,-0.25595 -0.0788,-0.62699 -0.11432,-0.93741 -0.30922,-0.0935 -0.62138,-0.15729 -0.91454,-0.27436 -0.73771,-0.29461 -1.38883,-0.6642 -1.87482,-1.09746 -0.243,-0.21663 -0.45831,-0.45856 -0.59446,-0.70877 -0.13614,-0.25021 -0.20577,-0.51716 -0.20577,-0.80023 0,-0.508 -0.68101,-2.36128 -1.46327,-3.90968 -0.39114,-0.77421 -0.80518,-1.46096 -1.16605,-1.87482 -0.18044,-0.20693 -0.35836,-0.3494 -0.503,-0.38868 -0.14464,-0.0393 -0.25293,0.003 -0.34295,0.18291 -0.20366,0.81464 -0.47979,1.36935 -0.77737,1.7605 -0.29758,0.39114 -0.62716,0.63253 -0.98313,0.86881 -0.35598,0.23629 -0.74146,0.45017 -1.12032,0.80023 -0.37887,0.35006 -0.75409,0.82227 -1.12032,1.55473 -0.26158,0.52317 -0.61351,0.85037 -1.006,1.07459 -0.3925,0.22423 -0.82384,0.36049 -1.2575,0.48014 -0.43367,0.11964 -0.87241,0.22497 -1.2575,0.43441 -0.3851,0.20944 -0.71348,0.51241 -0.96028,1.006 -0.37535,0.75071 -0.74968,1.87839 -1.28036,2.81223 -0.26534,0.46691 -0.57603,0.88564 -0.93741,1.18891 -0.36138,0.30327 -0.78482,0.503 -1.28037,0.503 -2.73004,0 -4.07284,0.48013 -6.97341,0.48013 -0.77191,0 -1.25635,0.13318 -1.62332,0.3201 -0.36697,0.18691 -0.60986,0.43668 -0.86882,0.68591 -0.25895,0.24922 -0.53525,0.49899 -0.98313,0.6859 -0.44789,0.18692 -1.07825,0.3201 -2.01201,0.3201 -1.06114,0 -2.40924,0.23091 -3.63532,0.48013 -1.22607,0.24923 -2.32067,0.503 -2.83509,0.503 -0.82156,0 -1.44132,0.13511 -1.94341,0.34296 -0.50208,0.20785 -0.8895,0.48235 -1.21177,0.82309 -0.64454,0.68147 -1.06585,1.56884 -1.82909,2.33209 -0.87727,0.87726 -1.2662,1.6086 -1.92055,2.012 -0.32717,0.20171 -0.71701,0.31685 -1.28037,0.32009 -0.56336,0.003 -1.29221,-0.0944 -2.28636,-0.34295 -0.99018,-0.24754 -2.63247,-0.72197 -4.13832,-0.89168 -0.75292,-0.0849 -1.46807,-0.0798 -2.05773,0.0457 -0.29483,0.0628 -0.55988,0.15801 -0.77736,0.29723 -0.21749,0.13922 -0.3872,0.31713 -0.503,0.54873 -0.3049,0.6098 -0.61754,1.0477 -0.98314,1.34895 -0.3656,0.30126 -0.78792,0.47482 -1.2575,0.5716 -0.93918,0.19355 -2.13473,0.0686 -3.74964,0.0686 -0.56365,0 -2.35881,-0.20098 -4.11546,-0.29723 -0.87832,-0.0481 -1.75071,-0.059 -2.44641,-0.0228 -0.6957,0.0361 -1.20218,0.12759 -1.39468,0.32009 -0.85356,0.85356 -1.04353,1.61489 -1.48614,2.14918 -0.2213,0.26714 -0.52137,0.47031 -0.98313,0.61732 -0.46177,0.14701 -1.10385,0.22863 -2.03487,0.22863 -0.89903,0 -1.64473,0.13318 -2.28636,0.3201 -0.64164,0.18691 -1.1685,0.43668 -1.64619,0.68591 -0.47768,0.24922 -0.89603,0.49899 -1.30323,0.6859 -0.4072,0.18692 -0.80447,0.29723 -1.23463,0.29723 -0.56517,0 -2.58493,-0.19128 -4.64132,-0.48013 -2.05639,-0.28886 -4.14437,-0.66607 -4.82423,-1.00601 -1.63275,-0.81636 -3.01576,-1.34926 -4.41269,-1.78336 -1.39693,-0.4341 -2.82106,-0.77385 -4.57273,-1.21177 -0.78609,-0.19653 -1.56153,-0.22964 -2.30923,-0.18291 -0.74769,0.0467 -1.4667,0.17918 -2.14918,0.32009 -0.68248,0.14091 -1.30724,0.27978 -1.89768,0.36582 -0.59045,0.086 -1.12885,0.1179 -1.60046,0 -0.60988,-0.15247 -1.27653,-0.55584 -1.94341,-1.05173 -0.66688,-0.49589 -1.34655,-1.0841 -2.03486,-1.66905 -0.68832,-0.58495 -1.38355,-1.15794 -2.05773,-1.57759 -0.67418,-0.41965 -1.31893,-0.68591 -1.94341,-0.68591 -0.7095,0 -1.33964,0.11031 -1.89768,0.29723 -0.55805,0.18692 -1.04936,0.43668 -1.48614,0.68591 -0.43678,0.24922 -0.82033,0.49899 -1.16605,0.68591 -0.34572,0.18692 -0.65254,0.32009 -0.93741,0.32009 -0.76269,0 -1.4864,0.13317 -2.14918,0.32009 -0.66278,0.18692 -1.25708,0.43668 -1.80623,0.68591 -1.09829,0.49845 -1.95366,0.98314 -2.515,0.98314 -2.94832,0 -5.42633,-0.50301 -8.48242,-0.503 -0.76374,0 -1.47448,-0.1769 -2.10345,-0.45728 -0.62897,-0.28037 -1.17435,-0.65502 -1.64618,-1.02886 -0.94367,-0.74768 -1.5568,-1.48614 -1.73764,-1.48614 -0.51403,0 -1.0705,0.17794 -1.62332,0.43441 -0.55283,0.25647 -1.11047,0.58682 -1.64618,0.89168 -0.53571,0.30487 -1.04629,0.58645 -1.509,0.73164 -0.46271,0.14519 -0.87796,0.15396 -1.21178,-0.0686 -0.9969,-0.66461 -1.97538,-1.32454 -2.97227,-1.98914 -1.08347,0.21669 -2.12162,0.3411 -3.17805,0.41154 -1.05642,0.0705 -2.14452,0.0686 -3.31523,0.0686 -1.56118,0 -3.01528,-0.043 -4.41268,-0.2515 -0.69871,-0.10424 -1.38324,-0.23221 -2.05773,-0.43441 -0.6745,-0.2022 -1.3277,-0.46951 -1.98914,-0.80023 -0.72483,-0.36242 -1.53985,-0.44306 -2.37782,-0.54873 z"
            style="fill:#f0e0af;fill-opacity:1;fill-rule:evenodd;stroke:#d39062;stroke-width:0.365818;stroke-linecap:butt;stroke-linejoin:miter;stroke-miterlimit:4;stroke-dasharray:none;stroke-opacity:1"
            id="Yungay"
            inkscape:connector-curvature="0" />
        <path
            d="m 373.98582,340.06935 c -0.5342,-0.72256 -1.30975,-2.10511 -2.40068,-3.54387 -0.60608,-0.79932 -1.26278,-1.56331 -1.98914,-2.12632 -0.36318,-0.2815 -0.75685,-0.50187 -1.14318,-0.66304 -0.38633,-0.16117 -0.78402,-0.2515 -1.18891,-0.2515 -1.57971,10e-6 -2.79717,0.11121 -3.95541,0.29723 -1.15824,0.18602 -2.25689,0.43309 -3.521,0.68591 -0.41247,0.0825 -0.81197,0.32444 -1.21178,0.64018 -0.39981,0.31574 -0.78688,0.72421 -1.16604,1.14318 -0.75834,0.83794 -1.47566,1.74693 -2.10346,2.21777 -1.06849,0.80137 -1.80785,1.15464 -2.46927,1.50901 -0.66143,0.35436 -1.24011,0.71423 -2.01201,1.48613 -0.92514,0.92515 -1.55163,1.13993 -1.94341,1.64619 -0.19588,0.25312 -0.32244,0.58399 -0.41154,1.09745 -0.0891,0.51346 -0.13718,1.22347 -0.13718,2.24064 0,0.19916 -0.32787,0.42482 -0.82309,0.66304 -0.49523,0.23823 -1.15672,0.47326 -1.85196,0.70878 -1.39049,0.47105 -2.89578,0.91059 -3.31523,1.12032 -0.32337,0.16168 -0.66263,0.23928 -1.006,0.27436 -0.34337,0.0351 -0.67609,0.0204 -1.02886,-0.0457 -0.70555,-0.13225 -1.42388,-0.43841 -2.10346,-0.82309 -1.35916,-0.76937 -2.59145,-1.84069 -3.33809,-2.40068 -1.14178,-0.85633 -1.57295,-1.33517 -2.19491,-1.48614 -0.62197,-0.15097 -1.43905,0.0168 -3.29237,0.48014 -0.67005,0.16751 -1.41487,0.26006 -2.21777,0.29723 -0.8029,0.0372 -1.64637,0.0352 -2.46928,0.0228 -1.64581,-0.0247 -3.22671,-0.0793 -4.2755,0.18291 -2.87919,0.7198 -4.19731,0.93091 -6.97341,1.48614 -1.25441,0.25088 -2.5547,0.39538 -3.88682,0.45727 -1.33212,0.0619 -2.70025,0.0457 -4.0926,0.0457 -1.82689,0 -3.24451,-0.16366 -4.61845,-0.43441 -1.37395,-0.27075 -2.69465,-0.63936 -4.3441,-1.05173 -0.82982,-0.20745 -1.45879,-0.56541 -1.96627,-0.96027 -0.50748,-0.39486 -0.90313,-0.82933 -1.32609,-1.21178 -0.42297,-0.38244 -0.86412,-0.69861 -1.44041,-0.86881 -0.5763,-0.1702 -1.29603,-0.19614 -2.2635,0.0457 -1.23559,0.30891 -2.38344,0.68653 -3.5896,0.98314 -1.20616,0.29661 -2.47028,0.503 -3.88682,0.503 -1.58856,10e-6 -2.89738,0.0519 -4.09259,-0.11432 -0.59761,-0.0831 -1.15823,-0.21636 -1.71478,-0.43441 -0.55654,-0.21805 -1.11536,-0.52214 -1.66904,-0.93741 -0.47236,-0.35426 -0.79754,-0.43702 -1.07459,-0.41154 -0.27705,0.0255 -0.49751,0.16418 -0.7545,0.2515 -0.257,0.0873 -0.54807,0.12301 -0.96028,-0.0457 -0.41221,-0.16874 -0.94922,-0.53768 -1.69191,-1.28036 -0.24293,-0.24293 -0.53645,-0.34575 -0.86882,-0.34296 -0.33236,0.003 -0.70237,0.10226 -1.12031,0.2515 -0.83591,0.2985 -1.84009,0.78583 -2.99514,1.07459 -0.39269,0.0982 -0.88113,-0.003 -1.41755,-0.22863 -0.53642,-0.2258 -1.11872,-0.56797 -1.71477,-0.93741 -1.19212,-0.73889 -2.41206,-1.59758 -3.3381,-1.82909 -0.27107,0.0677 -0.52372,0.082 -0.7545,0.0228 -0.23077,-0.0591 -0.44081,-0.18376 -0.64018,-0.34295 -0.39873,-0.3184 -0.74816,-0.81366 -1.07459,-1.37182 -0.32643,-0.55816 -0.63503,-1.17676 -0.96027,-1.7605 -0.32525,-0.58375 -0.65657,-1.13671 -1.05173,-1.53187 -0.23569,-0.23569 -0.69771,-0.42629 -1.28037,-0.61732 -0.58265,-0.19102 -1.29123,-0.36557 -2.012,-0.54872 -0.72076,-0.18316 -1.45343,-0.38237 -2.10345,-0.59446 -0.65003,-0.21209 -1.23003,-0.45382 -1.60046,-0.73164 -0.61944,-0.46458 -1.25123,-0.84935 -1.89768,-1.16604 -0.64645,-0.31669 -1.30019,-0.56443 -1.94341,-0.73164 -0.64322,-0.16721 -1.28792,-0.25822 -1.89768,-0.27436 -0.60977,-0.0162 -1.19158,0.0464 -1.73764,0.18291 -0.50697,0.12674 -1.00692,-10e-4 -1.509,-0.27437 -0.50208,-0.2732 -1.01105,-0.67454 -1.509,-1.14318 -0.49796,-0.46864 -0.99157,-1.0037 -1.48614,-1.46327 -0.49457,-0.45957 -0.97132,-0.85148 -1.46327,-1.09746 -1.20478,-0.60239 -2.18567,-1.07081 -2.99514,-1.64618 -0.40474,-0.28769 -0.76761,-0.60182 -1.09746,-0.98314 -0.32985,-0.38131 -0.62075,-0.82995 -0.89168,-1.37182 -0.0815,-0.16295 -0.59953,-0.29717 -1.34896,-0.43441 -0.74943,-0.13724 -1.72807,-0.26724 -2.74363,-0.41154 -1.01557,-0.1443 -2.06955,-0.296 -2.94941,-0.48014 -0.87987,-0.18414 -1.60107,-0.40629 -1.94341,-0.66304 -0.72253,-0.54191 -1.58143,-1.42842 -2.3321,-2.24064 -0.75066,-0.81223 -1.38376,-1.54082 -1.64618,-1.73764 -0.23536,-0.17651 -1.42091,-0.11447 -2.7665,-0.22864 -0.67279,-0.0571 -1.38332,-0.17238 -2.03487,-0.36581 -0.65154,-0.19344 -1.26083,-0.48347 -1.69191,-0.91455 -0.40194,-0.40194 -0.89411,-0.65427 -1.46327,-0.82309 -0.56915,-0.16883 -1.20643,-0.25024 -1.87482,-0.27437 -1.33677,-0.0483 -2.8125,0.11432 -4.13832,0.11432 -0.80153,0 -1.47401,-0.19976 -2.08059,-0.48013 -0.60659,-0.28038 -1.13261,-0.65503 -1.64618,-1.02887 -0.51358,-0.37384 -1.00938,-0.74848 -1.53187,-1.02886 -0.52249,-0.28038 -1.08144,-0.45728 -1.71477,-0.45728 -0.53794,0 -1.06205,0.26045 -1.62332,0.59446 -0.56127,0.33401 -1.15077,0.73674 -1.78337,1.02886 -0.3163,0.14607 -0.64,0.27784 -0.98313,0.34296 -0.34313,0.0651 -0.72149,0.0629 -1.09746,0 -0.37597,-0.0628 -0.75124,-0.19667 -1.16605,-0.43441 -0.4148,-0.23774 -0.86644,-0.56922 -1.32609,-1.02886 -0.34622,-0.34623 -0.73422,-0.61267 -1.14318,-0.8231 -0.40896,-0.21042 -0.82116,-0.35881 -1.2575,-0.48013 -0.87267,-0.24264 -1.76779,-0.35951 -2.53787,-0.52587 -0.38503,-0.0832 -0.74536,-0.18594 -1.05172,-0.32009 -0.30636,-0.13414 -0.56218,-0.29406 -0.7545,-0.52586 -0.19233,-0.23181 -0.32288,-0.53839 -0.36582,-0.91455 -0.0429,-0.37615 -0.004,-0.82749 0.13718,-1.39468 0.0596,-0.23827 0.004,-0.42679 -0.13718,-0.57159 -0.14113,-0.14481 -0.35296,-0.25071 -0.64018,-0.32009 -0.57446,-0.13876 -1.38657,-0.14615 -2.21778,-0.0915 -1.66242,0.10938 -3.40681,0.46303 -3.47527,0.48014 -0.7473,0.18682 -1.41422,0.29829 -2.012,0.34295 -0.59779,0.0446 -1.12208,0.0203 -1.60046,-0.0686 -0.47838,-0.0888 -0.91414,-0.24358 -1.30323,-0.45727 -0.38908,-0.2137 -0.7447,-0.49321 -1.07459,-0.82309 -0.1147,-0.1147 -0.22792,-0.13448 -0.34295,-0.11432 -0.11504,0.0202 -0.2266,0.0878 -0.34296,0.20577 -0.23271,0.23597 -0.46482,0.62371 -0.70877,1.02886 -0.24395,0.40516 -0.49141,0.81933 -0.7545,1.09746 -0.2631,0.27813 -0.55579,0.41945 -0.84596,0.27436 -1.47171,-0.73585 -2.22341,-1.04365 -3.06373,-1.23463 0.0267,0.25867 0.0915,0.46907 0.0915,0.7545 0,1.36968 0.35779,2.87463 0.73163,4.16118 0.37385,1.28655 0.75451,2.34979 0.75451,2.81223 0,0.78822 -0.12885,1.36076 -0.3201,1.80623 -0.19124,0.44546 -0.45403,0.76142 -0.73163,1.05173 -0.27761,0.2903 -0.564,0.54606 -0.82309,0.86881 -0.2591,0.32276 -0.48163,0.7147 -0.61732,1.25751 -0.2732,1.0928 -0.46515,1.39057 -0.66305,1.89768 0.61111,0.2385 1.27625,0.4882 2.05773,0.91454 0.99096,0.54062 2.01797,1.22593 2.78937,2.01201 0.38569,0.39303 0.71006,0.81495 0.9374,1.2575 0.22735,0.44254 0.36582,0.91053 0.36582,1.39468 10e-6,1.01849 0.11828,1.62127 0.32009,2.012 0.20182,0.39073 0.48925,0.57516 0.80023,0.7545 0.31098,0.17934 0.65562,0.34732 0.98314,0.73164 0.32752,0.38431 0.64027,0.98348 0.89168,1.98913 0.28459,1.13834 0.78658,2.17273 1.34896,3.15519 0.56237,0.98246 1.16669,1.89897 1.62332,2.81223 0.30212,0.60424 0.67141,1.01779 1.07459,1.34895 0.40317,0.33116 0.85437,0.5943 1.28036,0.89169 0.426,0.29738 0.84119,0.64028 1.21178,1.14318 0.37058,0.5029 0.70047,1.15574 0.93741,2.10345 0.20483,0.81934 0.47552,1.3295 0.84595,1.62332 0.37044,0.29382 0.83341,0.38374 1.37182,0.36582 1.07681,-0.0359 2.4897,-0.503 4.25264,-0.503 0.42556,0 0.8797,0.14591 1.37182,0.36582 0.49211,0.21991 1.02807,0.52049 1.60045,0.84595 0.57238,0.32547 1.18559,0.68935 1.85196,1.006 0.66637,0.31666 1.37511,0.58385 2.14918,0.77737 2.57201,0.64301 4.92316,0.87069 7.47641,1.509 1.09383,0.27346 2.38693,0.80353 3.63533,1.44041 1.24839,0.63688 2.44717,1.36668 3.33809,2.03486 1.03254,0.77441 1.98644,1.63276 2.94941,2.42355 0.96296,0.79079 1.94386,1.53209 3.04086,2.08059 0.56054,0.28027 1.11315,0.44526 1.64619,0.57159 0.53304,0.12634 1.05344,0.21064 1.55473,0.27437 1.00257,0.12745 1.93931,0.21516 2.78936,0.64018 0.66144,0.33072 1.31464,0.59803 1.98914,0.80023 0.67449,0.2022 1.35902,0.33017 2.05773,0.43441 1.3974,0.20848 2.8515,0.2515 4.41268,0.2515 1.17071,0 2.25881,0.002 3.31523,-0.0686 1.05643,-0.0704 2.09458,-0.19485 3.17805,-0.41154 0.99689,0.6646 1.97537,1.32453 2.97227,1.98914 0.33382,0.22254 0.74907,0.21378 1.21178,0.0686 0.4627,-0.14519 0.97328,-0.42677 1.509,-0.73164 0.53571,-0.30486 1.09335,-0.63521 1.64618,-0.89168 0.55282,-0.25647 1.10929,-0.43441 1.62332,-0.43441 0.18084,0 0.79397,0.73846 1.73764,1.48614 0.47183,0.37384 1.01721,0.74849 1.64618,1.02886 0.62897,0.28038 1.33971,0.45728 2.10345,0.45728 3.05609,-1e-5 5.5341,0.503 8.48242,0.503 0.56134,0 1.41671,-0.48469 2.515,-0.98314 0.54914,-0.24923 1.14345,-0.49899 1.80623,-0.68591 0.66278,-0.18692 1.38649,-0.32009 2.14918,-0.32009 0.28487,0 0.59169,-0.13317 0.93741,-0.32009 0.34572,-0.18692 0.72927,-0.43669 1.16605,-0.68591 0.43678,-0.24923 0.92809,-0.49899 1.48613,-0.68591 0.55805,-0.18692 1.18819,-0.29723 1.89769,-0.29723 0.62448,0 1.26923,0.26626 1.94341,0.68591 0.67418,0.41965 1.36941,0.99264 2.05773,1.57759 0.68831,0.58495 1.36798,1.17316 2.03486,1.66905 0.66688,0.49589 1.33353,0.89926 1.94341,1.05173 0.47161,0.1179 1.01001,0.086 1.60046,0 0.59044,-0.086 1.2152,-0.22491 1.89768,-0.36582 0.68248,-0.14091 1.40149,-0.27336 2.14918,-0.32009 0.7477,-0.0468 1.52314,-0.0136 2.30923,0.18291 1.75167,0.43792 3.1758,0.77767 4.57273,1.21177 1.39693,0.4341 2.77994,0.967 4.41269,1.78336 0.67986,0.33994 2.76784,0.71715 4.82423,1.00601 2.05639,0.28885 4.07615,0.48013 4.64132,0.48013 0.43016,0 0.82743,-0.11031 1.23463,-0.29723 0.4072,-0.18691 0.82555,-0.43668 1.30323,-0.6859 0.47769,-0.24923 1.00455,-0.499 1.64619,-0.68591 0.64163,-0.18692 1.38733,-0.3201 2.28636,-0.3201 0.93102,0 1.5731,-0.0816 2.03487,-0.22863 0.46176,-0.14701 0.76183,-0.35018 0.98313,-0.61732 0.44261,-0.53429 0.63258,-1.29562 1.48614,-2.14918 0.1925,-0.1925 0.69898,-0.284 1.39468,-0.32009 0.6957,-0.0361 1.56809,-0.0253 2.44641,0.0228 1.75665,0.0962 3.55181,0.29723 4.11546,0.29723 1.61491,0 2.81046,0.12496 3.74964,-0.0686 0.46958,-0.0968 0.8919,-0.27034 1.2575,-0.5716 0.3656,-0.30125 0.67824,-0.73915 0.98314,-1.34895 0.1158,-0.2316 0.28551,-0.40951 0.503,-0.54873 0.21748,-0.13922 0.48253,-0.23446 0.77736,-0.29723 0.58966,-0.12552 1.30481,-0.13058 2.05773,-0.0457 1.50585,0.16971 3.14814,0.64414 4.13832,0.89168 0.99415,0.24854 1.723,0.3462 2.28636,0.34295 0.56336,-0.003 0.9532,-0.11838 1.28037,-0.32009 0.65435,-0.4034 1.04328,-1.13474 1.92055,-2.012 0.76324,-0.76325 1.18455,-1.65062 1.82909,-2.33209 0.32227,-0.34074 0.70969,-0.61524 1.21177,-0.82309 0.50209,-0.20785 1.12185,-0.34296 1.94341,-0.34296 0.51442,0 1.60902,-0.25377 2.83509,-0.503 1.22608,-0.24922 2.57418,-0.48013 3.63532,-0.48013 0.93376,0 1.56412,-0.13318 2.01201,-0.3201 0.44788,-0.18691 0.72418,-0.43668 0.98313,-0.6859 0.25896,-0.24923 0.50185,-0.499 0.86882,-0.68591 0.36697,-0.18692 0.85141,-0.3201 1.62332,-0.3201 2.90057,0 4.24337,-0.48013 6.97341,-0.48013 0.49555,0 0.91899,-0.19973 1.28037,-0.503 0.36138,-0.30327 0.67207,-0.722 0.93741,-1.18891 0.53068,-0.93384 0.90501,-2.06152 1.28036,-2.81223 0.2468,-0.49359 0.57518,-0.79656 0.96027,-1.006 0.3851,-0.20944 0.82384,-0.31477 1.25751,-0.43441 0.43366,-0.11965 0.865,-0.25591 1.2575,-0.48014 0.39249,-0.22422 0.74441,-0.55142 1.006,-1.07459 0.36623,-0.73246 0.74145,-1.20467 1.12032,-1.55473 0.37886,-0.35006 0.76434,-0.56394 1.12031,-0.80023 0.35598,-0.23628 0.68556,-0.47767 0.98314,-0.86881 0.19312,-0.25385 0.3419,-0.72522 0.503,-1.14319 z"
            style="fill:#f0e0af;fill-opacity:1;fill-rule:evenodd;stroke:#d39062;stroke-width:0.365818;stroke-linecap:butt;stroke-linejoin:miter;stroke-miterlimit:4;stroke-dasharray:none;stroke-opacity:1"
            id="Pemuco"
            inkscape:connector-curvature="0" />
        <path
            d="m 373.80291,339.79499 c 0.28058,-1.10257 0.54964,-2.0598 0.68591,-3.0866 0.0717,-0.54038 0.10249,-1.10588 0.0686,-1.71477 -0.0339,-0.60889 -0.11246,-1.2729 -0.29723,-2.012 -0.13096,-0.52387 -0.14236,-1.06853 -0.0915,-1.62332 0.0509,-0.55479 0.15839,-1.11077 0.2515,-1.66905 0.0931,-0.55827 0.1644,-1.11184 0.16005,-1.64618 -0.004,-0.53434 -0.0786,-1.04889 -0.32009,-1.53186 -0.65055,-1.3011 -1.15032,-2.27075 -1.48614,-3.36096 -0.33581,-1.09021 -0.52585,-2.30063 -0.52586,-4.11546 0,-0.96445 0.12625,-2.70046 -0.0686,-4.25264 -0.0974,-0.77609 -0.27081,-1.50187 -0.57159,-2.08059 -0.15039,-0.28935 -0.35104,-0.53466 -0.57159,-0.73164 -0.22055,-0.19697 -0.47376,-0.33564 -0.77736,-0.41154 -1.13221,-0.28305 -2.23371,-0.76967 -3.24664,-1.37182 -1.01293,-0.60215 -1.92328,-1.32883 -2.72078,-2.12632 -0.46805,-0.46805 -1.2826,-1.49429 -2.19491,-2.515 -0.45615,-0.51035 -0.94207,-1.02846 -1.41754,-1.46327 -0.47547,-0.43482 -0.9382,-0.78919 -1.37182,-1.00601 -2.8486,-1.4243 -5.04203,-2.02942 -7.97942,-3.49813 -1.32367,-0.66184 -2.65442,-1.34421 -3.97827,-1.96628 -1.32385,-0.62206 -2.64496,-1.16995 -4.00114,-1.509 -0.81107,-0.20276 -1.29121,-0.48771 -1.60045,-0.82309 -0.30925,-0.33538 -0.4513,-0.72962 -0.54873,-1.16605 -0.0974,-0.43642 -0.16735,-0.91165 -0.34296,-1.41754 -0.1756,-0.50589 -0.46221,-1.03381 -1.006,-1.57759 -0.23299,-0.233 -1.99387,-1.46515 -3.74964,-2.5836 -0.87788,-0.55922 -1.73831,-1.0998 -2.42354,-1.46327 -0.68524,-0.36347 -1.19287,-0.54477 -1.30323,-0.43441 -0.54926,0.54925 -1.04597,0.78516 -1.53187,0.84596 -0.48589,0.0608 -0.94946,-0.0596 -1.41754,-0.20578 -0.46809,-0.14614 -0.94459,-0.33998 -1.44041,-0.41154 -0.49582,-0.0716 -1.00848,-0.0331 -1.57759,0.2515 -0.63274,0.31636 -1.68926,1.27977 -2.67505,2.17204 -0.98579,0.89228 -1.90062,1.72694 -2.30923,1.8291 -0.83686,0.20921 -1.89023,0.10976 -2.94941,0.0685 -0.52959,-0.0206 -1.06248,-0.0337 -1.57759,0.0228 -0.51511,0.0566 -1.00936,0.18459 -1.46328,0.41154 -0.39493,0.19747 -0.7377,0.53981 -1.05172,0.93741 -0.31403,0.3976 -0.59906,0.84395 -0.89169,1.2575 -0.29262,0.41355 -0.5838,0.78355 -0.91454,1.02887 -0.33075,0.24532 -0.69195,0.35859 -1.12032,0.2515 -1.06418,-0.26605 -2.84169,-0.80949 -4.64132,-1.14319 -0.89982,-0.16684 -1.79449,-0.27909 -2.62932,-0.27436 -0.83483,0.004 -1.61385,0.13245 -2.21778,0.43441 -1.05372,0.52686 -1.73809,0.83703 -2.37782,1.23464 -0.63972,0.39761 -1.23004,0.86423 -2.10345,1.73764 -0.5701,0.57009 -1.08294,0.93626 -1.57759,1.14318 -0.49466,0.20691 -0.96954,0.26622 -1.48614,0.22863 -1.0332,-0.0752 -2.20436,-0.52775 -3.90968,-0.86881 -1.10772,-0.22155 -2.87715,-0.77464 -4.66419,-1.12032 -0.89352,-0.17285 -1.77779,-0.29533 -2.60645,-0.29723 -0.82867,-0.002 -1.58755,0.13073 -2.19492,0.43441 -1.42702,0.71351 -2.52754,1.29551 -3.58959,1.78336 -1.06205,0.48786 -2.08071,0.86314 -3.38382,1.18891 -0.74247,0.18562 -2.06923,0.21159 -3.29236,0.36582 -0.61157,0.0771 -1.21469,0.18968 -1.69191,0.36582 -0.47723,0.17614 -0.8328,0.43095 -1.006,0.77736 -0.30053,0.60107 -0.65399,0.98175 -1.05173,1.23464 -0.39774,0.25289 -0.84985,0.37489 -1.37182,0.41155 -1.04394,0.0733 -2.34384,-0.16005 -4.04687,-0.16005 -0.84426,0 -1.5481,0.0451 -2.12632,0.13718 -0.57821,0.0922 -1.04139,0.23402 -1.44041,0.45728 -0.39901,0.22325 -0.7222,0.52122 -1.02886,0.91454 -0.30667,0.39332 -0.59052,0.8838 -0.89168,1.48614 -0.36314,0.72626 -1.05539,2.15457 -1.80623,3.42955 -0.37543,0.63748 -0.76785,1.23007 -1.14318,1.69191 -0.37533,0.46184 -0.74117,0.79117 -1.05173,0.86882 -0.20695,0.0517 -1.42477,-0.52885 -2.67505,-1.0746 -1.25028,-0.54575 -2.51447,-1.07485 -2.78936,-0.93741 -0.70156,0.35078 -1.39809,1.10053 -2.12632,1.76051 -0.36413,0.32999 -0.75052,0.64324 -1.14319,0.86881 -0.39266,0.22557 -0.79885,0.36582 -1.23463,0.36582 -0.62487,0 -1.24994,0.0884 -1.85196,0.22864 -0.60202,0.14019 -1.18403,0.33894 -1.71477,0.52586 -1.06148,0.37384 -1.91494,0.7545 -2.40069,0.7545 -0.94571,0 -1.94847,-0.25377 -3.08659,-0.503 -1.13812,-0.24922 -2.42955,-0.503 -3.90968,-0.503 -0.62312,0 -1.17506,0.15836 -1.71478,0.34296 -0.53972,0.1846 -1.04614,0.40311 -1.57759,0.52586 -0.53145,0.12276 -1.09362,0.1398 -1.69191,-0.0457 -0.59829,-0.18552 -1.24889,-0.58584 -1.98914,-1.32609 -0.377,-0.377 -0.81961,-0.76138 -1.32609,-1.12032 -0.50648,-0.35894 -1.06574,-0.67644 -1.66904,-0.93741 -0.60331,-0.26096 -1.25309,-0.46565 -1.92055,-0.54872 -0.66746,-0.0831 -1.35877,-0.0604 -2.05773,0.11431 -0.73183,0.18297 -1.25214,0.3961 -1.66905,0.61732 -0.4169,0.22123 -0.73472,0.45957 -1.07459,0.66305 -0.33987,0.20348 -0.6882,0.37326 -1.18891,0.503 -0.5007,0.12974 -1.15831,0.20577 -2.05773,0.20577 -0.52698,0 -1.15353,0.25198 -1.78336,0.61732 -0.38594,0.22387 -0.71523,0.54974 -1.07459,0.84596 0.48365,0.0413 0.97121,0.0802 1.39468,0.20577 0.56916,0.16882 1.06133,0.42115 1.46327,0.82309 0.43108,0.43108 1.04037,0.72111 1.69191,0.91455 0.65155,0.19343 1.36208,0.30873 2.03487,0.36581 1.34559,0.11417 2.53114,0.0521 2.7665,0.22864 0.26242,0.19682 0.89552,0.92541 1.64618,1.73764 0.75067,0.81222 1.60957,1.69873 2.3321,2.24064 0.34234,0.25675 1.06354,0.4789 1.94341,0.66304 0.87986,0.18414 1.93384,0.33584 2.94941,0.48014 1.01556,0.1443 1.9942,0.2743 2.74363,0.41154 0.74943,0.13724 1.26748,0.27146 1.34896,0.43441 0.27093,0.54187 0.56183,0.99051 0.89168,1.37182 0.32985,0.38132 0.69272,0.69545 1.09746,0.98314 0.80947,0.57537 1.79036,1.04379 2.99514,1.64618 0.49195,0.24598 0.9687,0.63789 1.46327,1.09746 0.49457,0.45957 0.98818,0.99463 1.48614,1.46327 0.49795,0.46864 1.00692,0.86998 1.509,1.14318 0.50208,0.27321 1.00203,0.40111 1.509,0.27437 0.54606,-0.13652 1.12787,-0.19905 1.73764,-0.18291 0.60976,0.0162 1.25446,0.10715 1.89768,0.27436 0.64322,0.16721 1.29696,0.41495 1.94341,0.73164 0.64645,0.31669 1.27824,0.70146 1.89768,1.16604 0.37043,0.27782 0.95043,0.51955 1.60046,0.73164 0.65002,0.21209 1.38269,0.4113 2.10345,0.59446 0.72077,0.18315 1.42935,0.3577 2.012,0.54872 0.58266,0.19103 1.04468,0.38163 1.28037,0.61732 0.39516,0.39516 0.72648,0.94812 1.05173,1.53187 0.32524,0.58374 0.63384,1.20234 0.96027,1.7605 0.32643,0.55816 0.67586,1.05342 1.07459,1.37182 0.19937,0.15919 0.40941,0.28385 0.64018,0.34295 0.23078,0.0591 0.48343,0.0449 0.7545,-0.0228 0.92604,0.23151 2.14598,1.0902 3.3381,1.82909 0.59605,0.36944 1.17835,0.71161 1.71477,0.93741 0.53642,0.22579 1.02486,0.3268 1.41755,0.22863 1.15505,-0.28876 2.15923,-0.77609 2.99514,-1.07459 0.41794,-0.14924 0.78795,-0.2487 1.12031,-0.2515 0.33237,-0.003 0.62589,0.10003 0.86882,0.34296 0.74269,0.74268 1.2797,1.11162 1.69191,1.28036 0.41221,0.16874 0.70328,0.13305 0.96028,0.0457 0.25699,-0.0873 0.47745,-0.22603 0.7545,-0.2515 0.27705,-0.0255 0.60223,0.0573 1.07459,0.41154 0.55368,0.41527 1.1125,0.71936 1.66904,0.93741 0.55655,0.21805 1.11717,0.35131 1.71478,0.43441 1.19521,0.16621 2.50403,0.11433 4.09259,0.11432 1.41654,0 2.68066,-0.20639 3.88682,-0.503 1.20616,-0.29661 2.35401,-0.67423 3.5896,-0.98314 0.96747,-0.24186 1.6872,-0.21592 2.2635,-0.0457 0.57629,0.1702 1.01744,0.48637 1.44041,0.86881 0.42296,0.38245 0.81861,0.81692 1.32609,1.21178 0.50748,0.39486 1.13645,0.75282 1.96627,0.96027 1.64945,0.41237 2.97015,0.78098 4.3441,1.05173 1.37394,0.27075 2.79156,0.43441 4.61845,0.43441 1.39235,0 2.76048,0.0162 4.0926,-0.0457 1.33212,-0.0619 2.63241,-0.20639 3.88682,-0.45727 2.7761,-0.55523 4.09422,-0.76634 6.97341,-1.48614 1.04879,-0.2622 2.62969,-0.2076 4.2755,-0.18291 0.82291,0.0124 1.66638,0.0143 2.46928,-0.0228 0.8029,-0.0372 1.54772,-0.12972 2.21777,-0.29723 1.85332,-0.46333 2.6704,-0.63111 3.29237,-0.48014 0.62196,0.15097 1.05313,0.62981 2.19491,1.48614 0.74664,0.55999 1.97893,1.63131 3.33809,2.40068 0.67958,0.38468 1.39791,0.69084 2.10346,0.82309 0.35277,0.0661 0.68549,0.0808 1.02886,0.0457 0.34337,-0.0351 0.68263,-0.11268 1.006,-0.27436 0.41945,-0.20973 1.92474,-0.64927 3.31523,-1.12032 0.69524,-0.23552 1.35673,-0.47055 1.85196,-0.70878 0.49522,-0.23822 0.82309,-0.46388 0.82309,-0.66304 0,-1.01717 0.0481,-1.72718 0.13718,-2.24064 0.0891,-0.51346 0.21566,-0.84433 0.41154,-1.09745 0.39178,-0.50626 1.01827,-0.72104 1.94341,-1.64619 0.7719,-0.7719 1.35058,-1.13177 2.01201,-1.48613 0.66142,-0.35437 1.40078,-0.70764 2.46927,-1.50901 0.6278,-0.47084 1.34512,-1.37983 2.10346,-2.21777 0.37916,-0.41897 0.76623,-0.82744 1.16604,-1.14318 0.39981,-0.31574 0.79931,-0.55769 1.21178,-0.64018 1.26411,-0.25282 2.36276,-0.49989 3.521,-0.68591 1.15824,-0.18602 2.3757,-0.29722 3.95541,-0.29723 0.40489,0 0.80258,0.0903 1.18891,0.2515 0.38633,0.16117 0.78,0.38154 1.14318,0.66304 0.72636,0.56301 1.38306,1.327 1.98914,2.12632 1.00689,1.32793 1.68999,2.51206 2.21777,3.26951 z"
            style="fill:#f0e0af;fill-opacity:1;fill-rule:evenodd;stroke:#d39062;stroke-width:0.365818;stroke-linecap:butt;stroke-linejoin:miter;stroke-miterlimit:4;stroke-dasharray:none;stroke-opacity:1"
            id="El_Carmen"
            inkscape:connector-curvature="0" />
        <path
            d="m 227.06401,259.17776 c 0.0461,0.10905 0.19131,0.2561 0.22863,0.36581 0.16931,0.49774 0.24212,1.01243 0.22864,1.60046 -0.0135,0.58803 -0.11909,1.2537 -0.32009,2.05773 -0.1532,0.61279 -0.2131,1.13055 -0.20577,1.62332 0.007,0.49276 0.0888,0.96732 0.20577,1.44041 0.23398,0.94618 0.63861,1.93712 1.006,3.40668 0.1324,0.52962 0.46915,1.06471 0.91455,1.60046 0.44539,0.53575 1.0042,1.08257 1.53186,1.62332 0.52766,0.54074 1.03835,1.07871 1.41755,1.62332 0.37919,0.5446 0.61732,1.09883 0.61732,1.64618 0,0.83075 0,1.66139 0,2.49214 l -7.97942,-2.49214 -3.47527,8.45955 -1.509,-0.98314 -3.97828,5.96741 v 4.00114 h 1.98914 l -2.99514,1.98914 -5.16719,16.4161 c 0.69826,-0.0195 1.3146,-0.0733 1.73764,-0.18291 0.50071,-0.12974 0.84904,-0.29952 1.18891,-0.503 0.33987,-0.20348 0.65769,-0.44182 1.07459,-0.66304 0.41691,-0.22123 0.93722,-0.43436 1.66905,-0.61732 0.69896,-0.17474 1.39027,-0.19739 2.05773,-0.11432 0.66746,0.0831 1.31724,0.28776 1.92055,0.54873 0.6033,0.26096 1.16256,0.57847 1.66904,0.93741 0.50648,0.35894 0.94909,0.74331 1.32609,1.12032 0.74025,0.74024 1.39085,1.14056 1.98914,1.32609 0.59829,0.18553 1.16046,0.16848 1.69191,0.0457 0.53145,-0.12275 1.03787,-0.34126 1.57759,-0.52586 0.53972,-0.1846 1.09166,-0.34295 1.71478,-0.34295 1.48013,0 2.77156,0.25377 3.90968,0.503 1.13812,0.24922 2.14088,0.503 3.08659,0.503 0.48575,0 1.33921,-0.38067 2.40069,-0.7545 0.53074,-0.18692 1.11275,-0.38568 1.71477,-0.52587 0.60202,-0.14019 1.22709,-0.22863 1.85196,-0.22863 0.43578,0 0.84197,-0.14025 1.23463,-0.36582 0.39267,-0.22557 0.77906,-0.53883 1.14319,-0.86882 0.72823,-0.65998 1.42476,-1.40973 2.12632,-1.7605 0.27489,-0.13745 1.53908,0.39166 2.78936,0.93741 1.25028,0.54575 2.4681,1.12633 2.67505,1.07459 0.31056,-0.0776 0.6764,-0.40698 1.05173,-0.86882 0.37533,-0.46184 0.76775,-1.05443 1.14318,-1.69191 0.75084,-1.27497 1.44309,-2.70329 1.80623,-3.42955 0.30116,-0.60233 0.58501,-1.09281 0.89168,-1.48613 0.30666,-0.39333 0.62985,-0.6913 1.02886,-0.91455 0.39902,-0.22325 0.8622,-0.36512 1.44041,-0.45727 0.57822,-0.0922 1.28206,-0.13719 2.12632,-0.13719 1.70303,0 3.00293,0.23336 4.04687,0.16005 0.52197,-0.0367 0.97408,-0.15866 1.37182,-0.41155 0.39774,-0.25289 0.7512,-0.63357 1.05173,-1.23463 0.1732,-0.34642 0.52877,-0.60123 1.006,-0.77737 0.47722,-0.17614 1.08034,-0.2887 1.69191,-0.36582 1.22313,-0.15422 2.54989,-0.1802 3.29236,-0.36581 1.30311,-0.32578 2.32177,-0.70106 3.38382,-1.18891 1.06205,-0.48786 2.16257,-1.06985 3.58959,-1.78337 0.60737,-0.30368 1.36625,-0.43631 2.19492,-0.43441 0.82866,0.002 1.71293,0.12439 2.60645,0.29723 1.78704,0.34568 3.55647,0.89877 4.66419,1.12032 1.70532,0.34106 2.87648,0.79364 3.90968,0.86882 0.5166,0.0376 0.99148,-0.0217 1.48614,-0.22864 0.49465,-0.20691 1.00749,-0.57308 1.57759,-1.14318 0.87341,-0.87341 1.46373,-1.34003 2.10345,-1.73764 0.63973,-0.39761 1.3241,-0.70778 2.37782,-1.23464 0.60393,-0.30196 1.38295,-0.42968 2.21778,-0.43441 0.83483,-0.004 1.7295,0.10752 2.62932,0.27437 1.79963,0.3337 3.57714,0.87714 4.64132,1.14318 0.42837,0.10709 0.78957,-0.006 1.12032,-0.2515 0.33074,-0.24532 0.62192,-0.61531 0.91454,-1.02886 0.29263,-0.41355 0.57766,-0.8599 0.89169,-1.2575 0.31402,-0.39761 0.65679,-0.73995 1.05172,-0.93741 0.45392,-0.22696 0.94817,-0.35496 1.46328,-0.41155 0.51511,-0.0566 1.048,-0.0435 1.57759,-0.0228 1.05918,0.0412 2.11255,0.14063 2.94941,-0.0685 0.40861,-0.10216 1.32344,-0.93682 2.30923,-1.82909 0.98579,-0.89228 2.04231,-1.85568 2.67505,-2.17205 0.0991,-0.0495 0.17849,-0.0104 0.27436,-0.0457 -0.24181,-1.16713 -0.45856,-2.35431 -0.27436,-2.44641 0.81601,-0.40801 2.83447,-1.27174 4.13832,-1.92054 0.65192,-0.3244 1.11131,-0.58678 1.16604,-0.70878 0.0547,-0.12199 -0.3042,-0.11829 -1.32609,0.13718 -0.41798,0.1045 -2.60861,1.11876 -4.7785,2.03487 -1.08495,0.45805 -2.16047,0.90435 -3.018,1.18891 -0.85753,0.28455 -1.48253,0.41425 -1.66905,0.27436 -0.58553,-0.43914 -1.92749,-1.01269 -3.13232,-1.44041 -1.20483,-0.42771 -2.27684,-0.70493 -2.35496,-0.54872 -0.46644,0.93288 -1.13701,1.72346 -1.92054,2.515 -0.78353,0.79153 -1.67525,1.58379 -2.56073,2.46927 -0.57665,0.57665 -1.12287,0.8925 -1.64618,1.006 -0.52332,0.1135 -1.01988,0.0109 -1.53187,-0.22864 -0.51198,-0.23955 -1.03493,-0.61495 -1.57759,-1.09745 -0.54266,-0.4825 -1.12229,-1.0537 -1.73764,-1.66905 -0.73237,-0.73237 -1.59541,-1.36451 -2.53786,-2.05773 -0.94245,-0.69321 -1.94575,-1.4656 -2.92655,-2.44641 -1.274,-1.27399 -2.20501,-2.33823 -3.15518,-3.17804 -0.47509,-0.4199 -0.94598,-0.77342 -1.48614,-1.07459 -0.54016,-0.30118 -1.14938,-0.556 -1.85196,-0.73164 -2.4071,-0.60177 -4.90964,-0.9702 -6.97341,-1.48614 -1.42512,-0.35628 -2.70962,-0.80609 -3.93255,-1.37182 -1.22293,-0.56573 -2.38393,-1.25636 -3.54386,-2.12632 -0.61437,-0.46077 -1.21959,-0.74825 -1.80623,-0.98313 -0.58664,-0.23489 -1.14641,-0.41641 -1.66905,-0.59446 -0.52264,-0.17805 -1.01806,-0.37275 -1.44041,-0.66304 -0.42235,-0.2903 -0.78879,-0.66305 -1.07459,-1.23464 -0.42702,-0.85404 -0.97695,-1.69974 -1.71477,-2.46928 -0.73782,-0.76953 -1.65875,-1.45812 -2.76651,-2.012 -0.54095,-0.27047 -1.23348,-0.38577 -1.98913,-0.43441 -0.75565,-0.0487 -1.57218,-0.0382 -2.30923,-0.0685 -0.27495,-0.0113 -0.4587,-0.0861 -0.70877,-0.11432 -0.0148,0.0504 0.009,0.15019 -0.0228,0.18291 -0.0985,0.10189 -0.27134,0.1258 -0.503,0.0915 -0.46332,-0.0687 -1.16686,-0.37601 -1.94341,-0.70877 -0.77655,-0.33276 -1.62629,-0.69225 -2.42355,-0.91454 -0.39862,-0.11115 -0.79423,-0.19248 -1.14318,-0.20578 -0.34896,-0.0133 -0.65184,0.0287 -0.91455,0.16005 -0.92911,0.46457 -2.24378,0.68921 -3.47527,0.86882 -1.23149,0.1796 -2.37034,0.32778 -2.99514,0.64018 -0.35047,0.17523 -0.90081,0.13349 -1.53186,-0.0228 -0.63106,-0.15636 -1.34415,-0.43471 -2.05773,-0.7545 -1.42716,-0.63958 -2.83793,-1.43039 -3.40669,-1.71477 -1.35154,-0.67577 -2.35822,-0.84713 -3.33809,-1.07459 -0.48993,-0.11374 -0.9765,-0.24422 -1.48614,-0.45728 -0.50963,-0.21306 -1.04175,-0.50695 -1.64618,-0.96027 -0.45004,-0.33753 -0.92199,-0.58423 -1.41755,-0.73164 -0.49556,-0.14741 -1.01636,-0.19793 -1.53186,-0.20577 -1.03101,-0.0157 -2.08354,0.19508 -3.04087,0.43441 -0.89427,0.22357 -1.73231,0.64134 -2.62932,0.96027 z"
            style="fill:#f0e0af;fill-opacity:1;fill-rule:evenodd;stroke:#d39062;stroke-width:0.365818;stroke-linecap:butt;stroke-linejoin:miter;stroke-miterlimit:4;stroke-dasharray:none;stroke-opacity:1"
            id="San_Ignacio"
            inkscape:connector-curvature="0" />
        <path
            d="m 142.69714,245.87111 c -0.0888,-7.3e-4 -0.20215,0.0546 -0.29723,0.0686 0.10013,0.34472 0.18116,0.69632 0.13718,1.09745 -0.055,0.50196 -0.24598,1.06355 -0.57159,1.71478 -0.47717,0.95434 -1.20314,1.70625 -1.509,2.53786 -0.15293,0.4158 -0.18626,0.84848 -0.0457,1.32609 0.14054,0.47761 0.45066,0.99937 1.05173,1.60046 0.76045,0.76045 1.62363,1.54477 2.35496,2.42354 0.36566,0.4394 0.69982,0.90915 0.98313,1.41755 0.28332,0.5084 0.51212,1.04248 0.66305,1.64618 0.38136,1.52544 0.59842,2.49172 0.98314,3.3381 0.38471,0.84637 0.94151,1.58169 2.012,2.65218 0.64952,0.64952 1.43123,1.35358 1.85195,2.10346 0.21036,0.37494 0.337,0.76849 0.29723,1.16604 -0.0398,0.39756 -0.24453,0.79326 -0.66304,1.21178 -0.3702,0.37019 -1.15905,1.27467 -1.71478,2.37782 -0.27787,0.55157 -0.4987,1.1452 -0.57159,1.7605 -0.0729,0.61529 -0.002,1.25263 0.29723,1.85195 0.31827,0.63654 0.46618,1.13075 0.52586,1.57759 0.0597,0.44685 0.0338,0.83271 -0.0457,1.23464 -0.15913,0.80386 -0.48012,1.6623 -0.48013,3.15518 0,0.69377 0.034,1.31686 0.13718,1.87482 0.10322,0.55797 0.27089,1.06393 0.503,1.53187 0.23211,0.46794 0.52787,0.90241 0.91455,1.32609 0.38667,0.42368 0.87349,0.83231 1.44041,1.2575 0.80007,0.60006 1.76115,1.24352 2.60645,2.03487 0.42265,0.39566 0.81906,0.8154 1.14318,1.30322 0.32413,0.48783 0.57926,1.03664 0.73164,1.64619 0.1565,0.626 0.6636,2.26592 1.2575,3.86395 0.5939,1.59804 1.27902,3.15384 1.73764,3.61246 0.82766,0.82765 1.56269,1.57593 2.10346,2.49214 0.27038,0.4581 0.48912,0.96083 0.64018,1.53186 0.0931,0.3521 0.11707,0.79577 0.16004,1.21178 0.84032,0.19098 1.59202,0.49878 3.06373,1.23463 0.29017,0.14509 0.58286,0.004 0.84596,-0.27436 0.26309,-0.27813 0.51055,-0.6923 0.7545,-1.09746 0.24395,-0.40515 0.47606,-0.79289 0.70877,-1.02886 0.11636,-0.11799 0.22792,-0.18562 0.34296,-0.20577 0.11503,-0.0202 0.22825,-3.8e-4 0.34295,0.11432 0.32989,0.32988 0.68551,0.60939 1.07459,0.82309 0.38909,0.21369 0.82485,0.36843 1.30323,0.45727 0.47838,0.0888 1.00267,0.11325 1.60046,0.0686 0.59778,-0.0446 1.2647,-0.15613 2.012,-0.34295 0.0685,-0.0171 1.81285,-0.37076 3.47527,-0.48014 0.83121,-0.0547 1.64332,-0.0473 2.21778,0.0915 0.28722,0.0694 0.49905,0.17528 0.64018,0.32009 0.14113,0.1448 0.19675,0.33332 0.13718,0.57159 -0.1418,0.56719 -0.18012,1.01853 -0.13718,1.39468 0.0429,0.37616 0.17349,0.68274 0.36582,0.91455 0.19232,0.2318 0.44814,0.39172 0.7545,0.52586 0.30636,0.13415 0.66669,0.23691 1.05172,0.32009 0.77008,0.16636 1.6652,0.28323 2.53787,0.52587 0.43634,0.12132 0.84854,0.26971 1.2575,0.48013 0.40896,0.21043 0.79696,0.47687 1.14318,0.8231 0.45965,0.45964 0.91129,0.79112 1.32609,1.02886 0.41481,0.23774 0.79008,0.37159 1.16605,0.43441 0.37597,0.0629 0.75433,0.0651 1.09746,0 0.34313,-0.0651 0.66683,-0.19689 0.98313,-0.34296 0.6326,-0.29212 1.2221,-0.69485 1.78337,-1.02886 0.56127,-0.33401 1.08538,-0.59446 1.62332,-0.59446 0.63333,0 1.19228,0.1769 1.71477,0.45728 0.52249,0.28038 1.01829,0.65502 1.53187,1.02886 0.51357,0.37384 1.03959,0.74849 1.64618,1.02887 0.60658,0.28037 1.27906,0.48013 2.08059,0.48013 1.32582,0 2.80155,-0.16257 4.13832,-0.11432 0.17109,0.006 0.31375,0.0544 0.48014,0.0686 0.35936,-0.29622 0.68865,-0.62209 1.07459,-0.84596 0.62983,-0.36534 1.25638,-0.61731 1.78336,-0.61731 0.13952,0 0.1919,-0.0193 0.32009,-0.0228 l 5.16719,-16.4161 2.99514,-1.98914 h -1.98914 v -4.00114 l 3.97828,-5.96741 1.509,0.98314 3.47527,-8.45955 7.97942,2.49213 c 0,-0.83074 0,-1.66138 0,-2.49213 0,-0.54735 -0.23813,-1.10158 -0.61732,-1.64619 -0.3792,-0.54461 -0.88989,-1.08257 -1.41755,-1.62332 -0.52766,-0.54074 -1.08647,-1.08757 -1.53186,-1.62332 -0.4454,-0.53574 -0.78215,-1.07083 -0.91455,-1.60045 -0.36739,-1.46957 -0.77202,-2.4605 -1.006,-3.40669 -0.11699,-0.47309 -0.19844,-0.94764 -0.20577,-1.44041 -0.007,-0.49276 0.0526,-1.01052 0.20577,-1.62331 0.201,-0.80403 0.30661,-1.4697 0.32009,-2.05773 0.0135,-0.58803 -0.0593,-1.10273 -0.22864,-1.60046 -0.0373,-0.10971 -0.18257,-0.25676 -0.22863,-0.36582 -0.97339,0.34609 -2.00164,0.60071 -2.85796,1.02887 -0.39274,0.19637 -0.94384,0.30614 -1.57759,0.34295 -0.63375,0.0368 -1.33399,0.004 -2.05773,-0.0457 -1.44749,-0.0982 -2.93975,-0.29723 -3.84109,-0.29723 -0.70748,0 -1.20253,0.11469 -1.62332,0.27436 -0.4208,0.15967 -0.74681,0.3732 -1.07459,0.52587 -0.32779,0.15266 -0.66898,0.24967 -1.09746,0.22863 -0.42847,-0.0211 -0.9462,-0.16444 -1.66905,-0.52586 -0.71558,-0.35779 -1.35458,-0.49749 -1.94341,-0.503 -0.58882,-0.006 -1.13323,0.11279 -1.69191,0.2515 -0.55867,0.1387 -1.13539,0.31381 -1.7605,0.38868 -0.6251,0.0749 -1.29247,0.0599 -2.08059,-0.13718 -1.11689,-0.27922 -2.27109,-0.55615 -3.31523,-0.93741 -0.52206,-0.19064 -1.01253,-0.40853 -1.46327,-0.66305 -0.45074,-0.25452 -0.86779,-0.54769 -1.21177,-0.89168 -0.11211,-0.1121 -0.26658,-0.0397 -0.48014,0.13718 -0.21356,0.17694 -0.4755,0.44952 -0.80023,0.70878 -0.32473,0.25925 -0.72043,0.50534 -1.16605,0.64018 -0.44561,0.13483 -0.95565,0.17345 -1.53186,-0.0228 -0.5773,-0.19668 -1.21963,-0.62674 -1.87482,-1.14318 -0.65519,-0.51644 -1.32553,-1.13092 -1.94341,-1.73764 -1.23577,-1.21344 -2.27968,-2.38592 -2.67505,-2.58359 -1.39921,-0.69962 -2.09221,-1.37989 -2.65218,-1.73764 -0.27998,-0.17888 -0.51888,-0.28018 -0.80023,-0.2515 -0.28135,0.0287 -0.60536,0.18538 -1.02886,0.503 -0.32575,0.24431 -0.64584,0.36482 -0.96028,0.38868 -0.31443,0.0238 -0.61982,-0.0359 -0.91454,-0.18291 -0.58945,-0.294 -1.14026,-0.89771 -1.60046,-1.57759 -0.46019,-0.67987 -0.83375,-1.45732 -1.09745,-2.12632 -0.26371,-0.669 -0.41155,-1.22477 -0.41155,-1.48614 0,-0.16936 -0.056,-0.24989 -0.16004,-0.27436 -0.10409,-0.0245 -0.2527,0.007 -0.43441,0.0915 -0.36341,0.17013 -0.85679,0.51832 -1.37182,0.91454 -1.03007,0.79243 -2.1492,1.7605 -2.515,1.7605 -2.29498,1e-5 -4.64722,-0.503 -7.47642,-0.503 -0.53998,0 -1.05643,0.12737 -1.55472,0.32009 -0.4983,0.19272 -0.98156,0.45285 -1.46328,0.73164 -0.96343,0.55758 -1.92454,1.17848 -2.97227,1.44041 -0.70037,0.1751 -1.37225,0.2598 -2.012,0.2515 -0.63975,-0.008 -1.25058,-0.10005 -1.80623,-0.2515 -0.55565,-0.15145 -1.06095,-0.36298 -1.509,-0.61732 -0.44806,-0.25434 -0.8262,-0.55184 -1.14319,-0.86882 -0.55006,-0.55006 -1.02555,-0.90085 -1.48613,-1.09745 -0.46059,-0.1966 -0.92225,-0.24154 -1.39469,-0.22864 -0.94487,0.0258 -2.01221,0.32009 -3.61245,0.32009 -0.32623,0 -0.59235,-0.0582 -0.84596,-0.20577 -0.2536,-0.14754 -0.48479,-0.37055 -0.73163,-0.66305 -0.49371,-0.58498 -1.03578,-1.45725 -1.89769,-2.60645 -0.20093,-0.26791 -0.4705,-0.38518 -0.77736,-0.38868 z"
            style="fill:#f0e0af;fill-opacity:1;fill-rule:evenodd;stroke:#d39062;stroke-width:0.365818;stroke-linecap:butt;stroke-linejoin:miter;stroke-miterlimit:4;stroke-dasharray:none;stroke-opacity:1"
            id="Bulnes"
            inkscape:connector-curvature="0" />
        <path
            d="m 278.1414,234.57647 -3.58959,7.17919 -6.97342,-4.48128 -5.96741,10.97455 5.96741,3.97828 c 0.16615,0.66461 0.33686,1.32454 0.50301,1.98913 0.20923,0.83695 0.17037,1.49371 -0.0228,1.98914 -0.19324,0.49543 -0.54547,0.83651 -0.98314,1.09746 -0.43766,0.26094 -0.96209,0.43809 -1.48614,0.57159 -0.52404,0.1335 -1.03376,0.22986 -1.48613,0.34295 -0.66033,0.16508 -1.12754,0.40603 -1.44041,0.70878 -0.31288,0.30274 -0.48779,0.67206 -0.54873,1.09745 -0.0609,0.42539 -0.004,0.9074 0.0915,1.44041 0.0955,0.53301 0.23228,1.11202 0.38869,1.73764 0.0484,0.19344 0.008,0.28217 -0.0228,0.38868 0.25007,0.0282 0.43382,0.10298 0.70877,0.11432 0.73705,0.0304 1.55358,0.02 2.30923,0.0685 0.75565,0.0487 1.44819,0.16394 1.98914,0.43441 1.10775,0.55388 2.02868,1.24247 2.7665,2.012 0.73782,0.76954 1.28775,1.61524 1.71477,2.46928 0.2858,0.57159 0.65224,0.94434 1.0746,1.23464 0.42235,0.29029 0.91777,0.48499 1.44041,0.66304 0.52263,0.17805 1.0824,0.35957 1.66904,0.59446 0.58664,0.23488 1.19186,0.52236 1.80623,0.98313 1.15994,0.86996 2.32093,1.56059 3.54387,2.12632 1.22293,0.56573 2.50742,1.01554 3.93254,1.37182 2.06378,0.51594 4.56632,0.88437 6.97342,1.48614 0.70257,0.17564 1.31179,0.43046 1.85195,0.73164 0.54016,0.30117 1.01105,0.65469 1.48614,1.07459 0.95018,0.83981 1.88118,1.90405 3.15518,3.17804 0.98081,0.98081 1.9841,1.7532 2.92655,2.44642 0.94245,0.69321 1.80549,1.32535 2.53787,2.05772 0.61534,0.61535 1.19497,1.18655 1.73763,1.66905 0.54267,0.4825 1.06561,0.8579 1.57759,1.09746 0.51199,0.23955 1.00855,0.34213 1.53187,0.22863 0.52332,-0.1135 1.06954,-0.42935 1.64618,-1.006 0.88549,-0.88548 1.7772,-1.67774 2.56073,-2.46927 0.78353,-0.79154 1.45411,-1.58212 1.92055,-2.515 0.0781,-0.15621 1.15012,0.12101 2.35495,0.54872 1.20483,0.42772 2.54679,1.00127 3.13232,1.44041 0.18652,0.13989 0.81152,0.0102 1.66905,-0.27436 0.85753,-0.28456 1.93306,-0.73085 3.018,-1.18891 2.1699,-0.91611 4.36053,-1.93037 4.7785,-2.03487 1.0219,-0.25547 1.38083,-0.25917 1.3261,-0.13718 -0.0547,0.122 -0.51412,0.38438 -1.16605,0.70878 -1.30385,0.6488 -3.3223,1.51253 -4.13832,1.92054 -0.1842,0.0921 0.0326,1.27928 0.27436,2.44641 0.45478,-0.16765 0.89373,-0.26487 1.30323,-0.20577 0.49582,0.0716 0.97232,0.2654 1.44041,0.41155 0.46809,0.14614 0.93165,0.26656 1.41755,0.20577 0.48589,-0.0608 0.98261,-0.2967 1.53186,-0.84596 0.11036,-0.11036 0.61799,0.071 1.30323,0.43441 0.68524,0.36347 1.54566,0.90405 2.42355,1.46328 1.75576,1.11844 3.51664,2.35059 3.74964,2.58359 0.54378,0.54378 0.83039,1.0717 1.006,1.57759 0.1756,0.50589 0.24552,0.98112 0.34295,1.41755 0.0974,0.43643 0.23948,0.83066 0.54873,1.16604 0.30925,0.33539 0.78938,0.62033 1.60045,0.82309 1.35618,0.33905 2.6773,0.88694 4.00114,1.50901 1.32385,0.62206 2.6546,1.30443 3.97828,1.96627 2.93739,1.46871 5.13081,2.07383 7.97941,3.49814 0.43362,0.21681 0.89635,0.57118 1.37182,1.006 0.47547,0.43482 0.96139,0.95292 1.41755,1.46327 0.9123,1.02072 1.72686,2.04695 2.19491,2.515 0.7975,0.7975 1.70784,1.52417 2.72077,2.12632 1.01293,0.60215 2.11443,1.08877 3.24664,1.37182 0.30361,0.0759 0.55681,0.21457 0.77736,0.41155 0.22056,0.19698 0.42121,0.44228 0.5716,0.73163 0.30077,0.57872 0.47417,1.30451 0.57159,2.0806 0.19484,1.55217 0.0686,3.28818 0.0686,4.25264 10e-6,1.81482 0.19005,3.02524 0.52587,4.11545 0.33581,1.09021 0.83558,2.05986 1.48613,3.36096 0.24149,0.48297 0.31574,0.99753 0.32009,1.53186 0.004,0.53434 -0.0669,1.08791 -0.16004,1.64619 -0.0931,0.55827 -0.20059,1.11426 -0.2515,1.66904 -0.0509,0.55479 -0.0395,1.09946 0.0915,1.62332 0.18478,0.7391 0.26333,1.40311 0.29723,2.012 0.0339,0.60889 0.003,1.17439 -0.0686,1.71478 -0.13628,1.0268 -0.40534,1.98402 -0.68591,3.08659 0.044,0.0632 0.14175,0.2187 0.18291,0.27436 0.0871,-0.22606 0.20287,-0.33135 0.27436,-0.61731 0.09,-0.18005 0.19832,-0.2222 0.34295,-0.18291 0.14464,0.0393 0.32257,0.18175 0.503,0.38868 0.36087,0.41386 0.77492,1.10061 1.16605,1.87482 0.78227,1.5484 1.46327,3.40168 1.46327,3.90968 0,0.28307 0.0697,0.55002 0.20578,0.80023 0.13614,0.25021 0.35145,0.49214 0.59445,0.70877 0.48599,0.43326 1.13711,0.80285 1.87482,1.09746 0.73771,0.29461 1.55408,0.51285 2.30923,0.66304 0.75515,0.15019 1.45081,0.22864 1.98914,0.22864 0.33931,0 0.73763,-0.11483 1.16604,-0.29723 0.42841,-0.18239 0.89272,-0.43824 1.34896,-0.70877 0.91246,-0.54106 1.81322,-1.15812 2.46927,-1.48614 0.39275,-0.19637 0.94384,-0.30614 1.57759,-0.34295 0.63376,-0.0368 1.35685,-0.004 2.0806,0.0457 1.44748,0.0982 2.91689,0.29723 3.81823,0.29723 0.0361,-0.25447 0.5841,-0.33606 1.34895,-0.2515 0.76485,0.0846 1.7536,0.33584 2.67505,0.7545 0.46073,0.20934 0.91064,0.46257 1.30323,0.7545 0.39259,0.29193 0.73021,0.60922 0.98313,0.98314 0.25293,0.37392 0.41554,0.80222 0.45728,1.2575 0.0418,0.45528 -0.0334,0.9501 -0.27437,1.48614 -0.19608,0.049 -0.28468,0.14847 -0.29722,0.29723 -0.0125,0.14875 0.0572,0.33035 0.1829,0.54872 0.25137,0.43674 0.72509,0.99738 1.25751,1.53187 1.06483,1.06896 2.31794,2.0893 2.33209,2.10345 0.36321,0.36321 0.68312,0.77277 0.93741,1.21178 0.25429,0.43901 0.45742,0.91255 0.64018,1.41754 0.36552,1.01 0.61079,2.14594 0.91455,3.36096 0.1603,0.64123 0.47662,1.18082 0.86881,1.66905 0.3922,0.48822 0.86884,0.91991 1.41755,1.30322 1.0974,0.76662 2.43274,1.37642 3.70391,2.01201 1.4155,0.70775 2.5954,1.1084 3.63532,1.57759 0.51996,0.23459 0.99215,0.49889 1.46328,0.80022 0.47113,0.30134 0.91948,0.64513 1.37181,1.09746 0.27113,0.27112 0.54717,0.42396 0.80023,0.48014 0.25307,0.0562 0.5004,0.0186 0.73164,-0.0915 0.46247,-0.22004 0.88217,-0.73379 1.23464,-1.32609 0.70493,-1.18461 1.15122,-2.70721 1.23463,-3.04087 0.0762,-0.3049 0.22252,-0.54332 0.41155,-0.70877 0.18902,-0.16545 0.40899,-0.26011 0.68591,-0.32009 0.55384,-0.11995 1.27894,-0.0753 2.03486,0.0228 0.75593,0.0981 1.55051,0.25283 2.30923,0.29723 0.75872,0.0444 1.47265,-0.0161 2.03487,-0.29723 0.44755,-0.22378 0.94381,-0.16883 1.48613,0.0228 0.54233,0.19169 1.13389,0.52421 1.73764,0.89169 0.60376,0.36748 1.22012,0.77101 1.85196,1.07459 0.63184,0.30358 1.27109,0.503 1.89768,0.503 0.88366,0 1.61354,0.0545 2.24064,0.18291 0.6271,0.12842 1.15317,0.34012 1.60045,0.61732 0.44729,0.27719 0.82183,0.62827 1.16605,1.07459 0.34422,0.44632 0.66524,0.98752 0.98314,1.62332 0.316,0.63199 0.69043,1.03149 1.09745,1.32609 0.40702,0.2946 0.83398,0.47666 1.2575,0.70877 0.42353,0.23211 0.84628,0.49289 1.21178,0.93741 0.36549,0.44452 0.68159,1.08018 0.91454,2.012 0.0707,0.2828 0.18931,0.47552 0.36582,0.61732 0.17652,0.14181 0.40416,0.21585 0.66305,0.2515 0.51777,0.0713 1.1911,-0.0157 1.89768,-0.16004 0.70658,-0.14428 1.44138,-0.33042 2.14918,-0.41155 0.70779,-0.0811 1.37621,-0.0549 1.89772,0.20577 0.97593,0.48818 1.64809,0.8566 2.14918,1.09746 0.50066,0.24085 0.83583,0.34761 1.12029,0.32009 0.28446,-0.0275 0.51939,-0.20895 0.84599,-0.52586 0.32616,-0.31692 0.74444,-0.76734 1.37182,-1.39469 0.18532,-0.18576 0.40284,-0.23844 0.64018,-0.20577 0.2369,0.0326 0.48939,0.14694 0.75446,0.29723 0.53022,0.30057 1.102,0.72553 1.60046,0.89168 0.63433,0.21144 1.30714,0.30546 1.98917,0.29723 0.6816,-0.008 1.37116,-0.1105 2.012,-0.2515 1.28117,-0.28201 2.3888,-0.73711 2.97228,-1.02887 0.74817,-0.37429 1.85975,-0.66044 2.97227,-0.89168 1.11209,-0.23124 2.23347,-0.42122 3.01801,-0.61732 0.7936,-0.1984 1.26522,-0.46091 1.60045,-0.70877 0.33494,-0.24786 0.52978,-0.47347 0.75446,-0.61732 0.22469,-0.14385 0.47433,-0.20508 0.93745,-0.0915 0.46269,0.11363 1.12292,0.41284 2.17201,0.93741 0.40804,0.20402 0.80034,0.53043 1.16608,0.93741 0.3656,0.40697 0.72096,0.87862 1.07456,1.37181 0.7072,0.98639 1.42201,2.04414 2.26354,2.67505 0.40606,0.30456 0.94183,0.46776 1.55473,0.57159 0.61245,0.10384 1.28768,0.12816 1.9891,0.11432 1.40276,-0.0277 2.87913,-0.20577 3.93254,-0.20577 2.49225,-10e-6 4.98406,0 7.47645,0 1.14582,-10e-6 2.2833,0 3.42955,0 -0.91491,-1.56262 -2.21869,-3.06373 -2.78936,-3.06373 -0.90548,10e-6 -3.77862,-5.42643 -4.64136,-8.55101 -0.39962,-1.44735 1.62709,-3.00593 0.59445,-3.81823 -1.42464,-1.12058 -4.68035,-0.46625 -4.34409,-1.80622 0.24378,-0.97132 -0.0541,-5.05676 -0.68591,-6.97342 -0.63133,-1.91667 0.12233,-3.15518 -0.0915,-4.16118 -0.65248,-3.07051 -6.6418,-10.67734 -9.83137,-12.32351 -1.45516,-0.75102 -7.82332,-3.35264 -9.09974,-4.16118 -0.53497,0 -0.96612,0 -1.46327,0 -0.86618,0 -1.54309,-0.0589 -2.08056,-0.16005 -0.53768,-0.10113 -0.92493,-0.23439 -1.21181,-0.41154 -0.28687,-0.17716 -0.48002,-0.38926 -0.59445,-0.61732 -0.11443,-0.22807 -0.16279,-0.47776 -0.18291,-0.73164 -0.0402,-0.50775 0.0402,-1.04868 -0.0915,-1.509 -0.0659,-0.23017 -0.18277,-0.43667 -0.38865,-0.61732 -0.2061,-0.18065 -0.51339,-0.32839 -0.93745,-0.43441 -0.65525,-0.16381 -1.31841,-0.48804 -1.96627,-0.91454 -0.64786,-0.42651 -1.2718,-0.95712 -1.85192,-1.53187 -1.16052,-1.14949 -2.12431,-2.48803 -2.65218,-3.54387 -0.3209,-0.64138 -0.48866,-1.16022 -0.54873,-1.62331 -0.06,-0.4631 -0.0117,-0.85069 0.0688,-1.18891 0.16038,-0.67645 0.4801,-1.17154 0.48018,-1.66905 -1.5e-4,-1.32159 -0.0936,-2.65306 -0.38872,-3.86396 -0.14757,-0.60544 -0.35419,-1.19082 -0.61728,-1.71477 -0.26332,-0.52396 -0.57661,-0.98811 -0.98318,-1.39468 -0.58143,-0.58148 -1.08231,-1.0031 -1.55472,-1.30323 -0.47242,-0.30013 -0.92538,-0.46851 -1.39465,-0.52587 -0.46949,-0.0574 -0.95962,-0.01 -1.5319,0.13719 -0.57229,0.14684 -1.23081,0.37343 -2.012,0.68591 -0.99158,0.39662 -1.70142,1.03081 -2.56073,1.55472 -0.42966,0.26196 -0.88903,0.49137 -1.44041,0.66305 -0.55139,0.17168 -1.18997,0.27436 -1.96628,0.27436 -1.66031,0 -3.78208,0.15346 -5.67018,-0.0914 -0.94405,-0.12246 -1.83751,-0.35618 -2.58359,-0.73164 -0.37304,-0.18773 -0.71432,-0.41096 -1.006,-0.68591 -0.29169,-0.27495 -0.5197,-0.60498 -0.70878,-0.98313 -0.19215,-0.3843 -0.31039,-0.71405 -0.34295,-1.02887 -0.0326,-0.31482 0.0111,-0.60939 0.0915,-0.86882 0.16068,-0.51886 0.51385,-0.94429 0.84596,-1.32609 0.33211,-0.3818 0.64737,-0.71718 0.77736,-1.07459 0.065,-0.1787 0.0784,-0.355 0.0228,-0.54873 -0.0556,-0.19373 -0.18871,-0.39447 -0.41155,-0.61732 -0.0478,-0.0478 -0.45714,-0.68021 -1.02886,-1.41754 -0.57172,-0.73734 -1.2874,-1.58858 -1.94341,-2.0806 -0.99921,-0.7494 -1.90493,-1.40578 -2.78937,-2.10345 -0.88444,-0.69767 -1.75192,-1.43184 -2.69791,-2.37782 -0.94961,-0.94961 -1.927,-1.91558 -2.85795,-2.90368 -0.93096,-0.98811 -1.81977,-2.00719 -2.62932,-3.0866 -0.28416,-0.37888 -0.41905,-0.85294 -0.48014,-1.37182 -0.0611,-0.51887 -0.0586,-1.08561 -0.0685,-1.62332 -0.01,-0.5377 -0.0292,-1.05079 -0.16005,-1.48613 -0.13082,-0.43534 -0.37662,-0.7942 -0.80023,-1.006 -0.22315,-0.11158 -1.94652,-1.02132 -3.63532,-2.012 -0.84439,-0.49534 -1.68987,-0.99867 -2.30923,-1.44041 -0.61935,-0.44174 -1.02886,-0.82298 -1.02886,-1.02887 0,-0.33229 0.14862,-0.68591 0,-0.98314 -0.48965,-0.97929 -0.82434,-1.50728 -1.07459,-1.73763 -0.25026,-0.23035 -0.41772,-0.18252 -0.57159,0 -0.15388,0.18252 -0.27961,0.4952 -0.48014,0.7545 -0.20053,0.2593 -0.47864,0.48013 -0.86882,0.48013 -0.94846,0 -1.66888,0.22162 -2.2635,0.54873 -0.59462,0.32711 -1.04709,0.75277 -1.41755,1.18891 -0.37045,0.43615 -0.66142,0.88467 -0.93741,1.21178 -0.27598,0.3271 -0.53474,0.52586 -0.84595,0.52586 -0.3323,0 -0.70881,-0.14861 -1.006,0 -0.50936,0.25467 -1.29032,0.26166 -2.19491,0.13718 -0.9046,-0.12448 -1.93103,-0.36807 -2.94941,-0.59445 -1.01839,-0.22639 -2.0301,-0.42912 -2.88082,-0.48014 -0.42537,-0.0255 -0.81251,-0.0246 -1.14319,0.0457 -0.33067,0.0703 -0.59941,0.21073 -0.80022,0.41154 -0.33691,0.3369 -1.25377,1.02982 -2.12632,1.73764 -0.87256,0.70782 -1.69147,1.41666 -1.85196,1.73764 -0.13461,0.26921 -0.59122,0.62841 -1.21177,1.006 -0.62055,0.37758 -1.4034,0.77434 -2.19491,1.14318 -1.58303,0.73769 -3.21261,1.34895 -3.5896,1.34896 -1.07018,0 -2.61361,0.10385 -4.11545,0.0914 -0.75092,-0.006 -1.48457,-0.0484 -2.14919,-0.13718 -0.66461,-0.0888 -1.24305,-0.23285 -1.69191,-0.45727 -1.00333,-0.50167 -2.38744,-0.92852 -3.81823,-1.39469 -1.43078,-0.46617 -2.91246,-0.97609 -4.16118,-1.60045 -0.42334,-0.21167 -2.18228,-0.98549 -3.88682,-1.94341 -0.85227,-0.47897 -1.6981,-1.00941 -2.35496,-1.53187 -0.65685,-0.52245 -1.11699,-1.03842 -1.23463,-1.509 -0.2099,-0.83959 -0.428,-1.52546 -0.70878,-2.10345 -0.28077,-0.578 -0.63486,-1.04383 -1.07459,-1.39469 -0.43973,-0.35085 -0.98227,-0.5963 -1.66904,-0.7545 -0.68678,-0.15819 -1.51597,-0.22863 -2.53787,-0.22863 -0.85934,0 -1.65479,-0.0884 -2.42355,-0.22864 -0.76875,-0.14019 -1.5187,-0.33895 -2.2635,-0.52586 -0.7448,-0.18692 -1.47603,-0.36282 -2.2635,-0.503 -0.78747,-0.14019 -1.61823,-0.22864 -2.515,-0.22864 -3.14676,0 -6.51582,-0.50299 -8.96255,-0.503 -1.08518,0 -2.00502,-0.15504 -2.81223,-0.38868 -0.80721,-0.23365 -1.50763,-0.55729 -2.21777,-0.86882 -0.71015,-0.31153 -1.42378,-0.61231 -2.21778,-0.84596 -0.79399,-0.23365 -1.68487,-0.38868 -2.74364,-0.38868 -0.75332,0 -1.36312,-0.17865 -1.92054,-0.45727 -0.55743,-0.27862 -1.06121,-0.65231 -1.55473,-1.07459 -0.49353,-0.42228 -0.97023,-0.89512 -1.53187,-1.3261 -0.56163,-0.43097 -1.20453,-0.83848 -1.96627,-1.14318 -0.73377,-0.29351 -2.10357,-0.84927 -3.36096,-1.55473 -0.62869,-0.35272 -1.22536,-0.73342 -1.69191,-1.14318 -0.46655,-0.40976 -0.80551,-0.84421 -0.91454,-1.28036 -0.1564,-0.6256 -0.47419,-2.00903 -0.96028,-3.29237 -0.24304,-0.64167 -0.52944,-1.25377 -0.86881,-1.73764 -0.33938,-0.48386 -0.72107,-0.84902 -1.16605,-0.96027 -1.31634,-0.32908 -2.36764,-0.66818 -3.24664,-1.2575 -0.4395,-0.29466 -0.84243,-0.65304 -1.21177,-1.09746 -0.36935,-0.44441 -0.70354,-0.97268 -1.02887,-1.62331 -0.39755,-0.79511 -0.80615,-1.80984 -1.34895,-2.67505 -0.2714,-0.43261 -0.58613,-0.82528 -0.93741,-1.14318 -0.35128,-0.31791 -0.75157,-0.548 -1.21177,-0.66305 -0.86807,-0.21702 -1.54799,-0.48216 -2.12632,-0.77736 -0.57834,-0.29521 -1.04464,-0.6344 -1.50901,-0.98314 -0.92872,-0.69748 -1.81079,-1.477 -3.33809,-2.24064 -0.83694,-0.41847 -2.37597,-0.8083 -3.93255,-1.28036 -0.77828,-0.23604 -1.5611,-0.49825 -2.2635,-0.77737 -0.7024,-0.27912 -1.32737,-0.59541 -1.78336,-0.93741 -0.56788,-0.4259 -1.38213,-1.848 -2.21778,-3.20091 -0.41782,-0.67645 -0.84883,-1.32139 -1.23463,-1.82909 -0.3858,-0.5077 -0.74106,-0.86546 -1.02887,-0.93741 -1.46416,-0.36604 -2.30211,-0.70934 -3.04086,-1.16605 -0.73875,-0.4567 -1.38258,-1.03122 -2.44641,-1.82909 -0.34179,-0.25633 -0.91358,-0.47726 -1.39469,-0.70877 z"
            style="fill:#f0e0af;fill-opacity:1;fill-rule:evenodd;stroke:#d39062;stroke-width:0.365818;stroke-linecap:butt;stroke-linejoin:miter;stroke-miterlimit:4;stroke-dasharray:none;stroke-opacity:1"
            id="Pinto"
            inkscape:connector-curvature="0" />
        <path
            d="m 245.58356,262.9274 c 0.0225,-0.24757 0.0686,-0.41504 0.0686,-0.73164 0,-1.45499 0.041,-2.63952 0.18291,-3.68105 0.14188,-1.04153 0.39371,-1.93059 0.82309,-2.78936 0.38725,-0.77451 0.80725,-1.79639 0.98314,-2.92655 0.0879,-0.56509 0.11503,-1.16297 0.0457,-1.7605 -0.0693,-0.59754 -0.25255,-1.21388 -0.54872,-1.80623 -0.43637,-0.87273 -1.04624,-1.87251 -1.62332,-2.90368 -0.57709,-1.03118 -1.10295,-2.07976 -1.34896,-3.06373 -0.2408,-0.96323 -0.46568,-2.16438 -0.82309,-3.3381 -0.17871,-0.58685 -0.38998,-1.18074 -0.66305,-1.71477 -0.27307,-0.53403 -0.61796,-1.02951 -1.02886,-1.44041 -0.8457,-0.8457 -1.35315,-1.82941 -1.89768,-2.74364 -0.27227,-0.45711 -0.53677,-0.90003 -0.86882,-1.28036 -0.33206,-0.38034 -0.72988,-0.71933 -1.21178,-0.96028 -0.70184,-0.35092 -1.79618,-1.21154 -2.78936,-2.30922 -0.49659,-0.54885 -0.96226,-1.16121 -1.34896,-1.78337 -0.38669,-0.62215 -0.69098,-1.25495 -0.84595,-1.87482 -0.0534,-0.21368 -0.72304,-1.71325 -1.41755,-3.15518 -0.6945,-1.44193 -1.41831,-2.83509 -1.57759,-2.8351 -1.22373,0 -2.81976,-0.51659 -4.25264,-0.77736 -0.71643,-0.13038 -1.38477,-0.18924 -1.94341,-0.0915 -0.27932,0.0489 -0.54089,0.13175 -0.7545,0.27436 -0.21361,0.14261 -0.39548,0.33368 -0.52586,0.59445 -0.49239,0.98477 -0.83758,1.54874 -1.12032,1.85196 -0.28274,0.30322 -0.50096,0.34681 -0.7545,0.32009 -0.25354,-0.0267 -0.53263,-0.13213 -0.93741,-0.13718 -0.40479,-0.005 -0.93257,0.089 -1.66905,0.45727 -0.27824,0.13912 -0.76618,0.19062 -1.34895,0.20578 -0.58277,0.0151 -1.2645,-0.004 -1.94341,-0.0228 -0.67892,-0.0186 -1.35388,-0.0378 -1.92055,0 -0.56667,0.0378 -1.01146,0.13556 -1.2575,0.32009 -1.66106,1.24579 -2.33532,1.94857 -2.99514,2.24064 -0.32991,0.14603 -0.63863,0.18432 -1.09745,0.13718 -0.45883,-0.0471 -1.05714,-0.17855 -1.89769,-0.38868 -0.51232,-0.12808 -0.84999,-0.1599 -1.12032,-0.13718 -0.27032,0.0227 -0.46902,0.11144 -0.7545,0.20577 -0.28547,0.0943 -0.65399,0.1876 -1.21177,0.27436 -0.55779,0.0868 -1.31344,0.16005 -2.40068,0.16005 -2.20655,0 -5.95098,0.503 -6.47042,0.503 -0.93316,0 -2.15937,0.003 -3.40668,-0.11432 -0.62366,-0.0586 -1.24455,-0.13141 -1.85196,-0.27436 -0.6074,-0.14296 -1.18681,-0.35334 -1.71477,-0.61732 -0.84503,-0.42252 -1.35978,-0.49638 -1.71477,-0.38868 -0.35499,0.10769 -0.55724,0.39964 -0.77737,0.7545 -0.22013,0.35485 -0.4741,0.75563 -0.91454,1.07459 -0.22023,0.15947 -0.48119,0.31411 -0.8231,0.41154 -0.3419,0.0974 -0.74953,0.13718 -1.2575,0.13718 -0.73126,0 -1.41429,0.13318 -2.05772,0.3201 -0.64344,0.18691 -1.25587,0.43668 -1.85196,0.68591 -0.59609,0.24922 -1.1713,0.49899 -1.7605,0.6859 -0.5892,0.18692 -1.18344,0.3201 -1.80623,0.3201 -0.99793,0 -1.64985,0.19701 -2.12632,0.503 -0.47647,0.30598 -0.79352,0.72187 -1.07459,1.16604 -0.28107,0.44417 -0.52567,0.91154 -0.93741,1.32609 -0.41174,0.41456 -0.98347,0.76602 -1.85196,0.98314 -0.45979,0.11495 -0.83045,0.4653 -1.12031,0.93741 -0.28987,0.47211 -0.49663,1.06113 -0.59446,1.69191 -0.0978,0.63078 -0.0935,1.30673 0.0228,1.89768 0.11634,0.59096 0.35614,1.11064 0.70877,1.46328 0.30007,0.30006 0.50184,0.59382 0.64018,0.89168 0.13835,0.29786 0.19152,0.60327 0.20578,0.89168 0.0285,0.57682 -0.14651,1.12777 -0.38869,1.62332 -0.24218,0.49555 -0.5426,0.92404 -0.7545,1.28037 -0.21189,0.35632 -0.32512,0.61821 -0.20577,0.77736 0.10508,0.1401 0.45114,1.10833 0.66305,2.24064 0.10595,0.56615 0.17232,1.19208 0.16004,1.7605 -0.0123,0.56841 -0.093,1.07932 -0.32009,1.48614 -0.002,0.008 0.002,0.0152 0,0.0228 2.58112,0.0588 4.83262,0.48015 6.97341,0.48014 0.36581,0 1.48494,-0.96807 2.51501,-1.7605 0.51503,-0.39622 1.0084,-0.74441 1.37181,-0.91455 0.18171,-0.0851 0.33032,-0.11593 0.43441,-0.0914 0.10409,0.0245 0.16005,0.10499 0.16005,0.27436 0,0.26137 0.14784,0.81714 0.41154,1.48614 0.26371,0.669 0.63727,1.44644 1.09746,2.12632 0.46019,0.67987 1.01101,1.28359 1.60046,1.57759 0.29472,0.147 0.60011,0.20677 0.91454,0.18291 0.31444,-0.0238 0.63453,-0.14437 0.96027,-0.38868 0.42351,-0.31763 0.74752,-0.47432 1.02887,-0.503 0.28135,-0.0287 0.52024,0.0726 0.80023,0.2515 0.55996,0.35775 1.25297,1.03802 2.65218,1.73763 0.39536,0.19768 1.43928,1.37016 2.67505,2.5836 0.61788,0.60672 1.28822,1.22119 1.94341,1.73763 0.65519,0.51644 1.29752,0.94651 1.87482,1.14319 0.5762,0.19631 1.08625,0.15769 1.53186,0.0228 0.44561,-0.13483 0.84132,-0.38092 1.16605,-0.64018 0.32473,-0.25925 0.58667,-0.53183 0.80023,-0.70877 0.21355,-0.17694 0.36803,-0.24928 0.48013,-0.13718 0.34399,0.34398 0.76104,0.63716 1.21178,0.89168 0.45073,0.25452 0.9412,0.47241 1.46327,0.66304 1.04414,0.38127 2.19834,0.6582 3.31523,0.93741 0.78812,0.19703 1.45549,0.21205 2.08059,0.13719 0.6251,-0.0749 1.20183,-0.24998 1.7605,-0.38869 0.55867,-0.1387 1.10308,-0.25701 1.69191,-0.2515 0.58883,0.006 1.22783,0.14521 1.94341,0.503 0.72284,0.36143 1.24057,0.50483 1.66905,0.52587 0.42847,0.0211 0.76967,-0.076 1.09745,-0.22864 0.32779,-0.15266 0.6538,-0.36619 1.0746,-0.52586 0.42079,-0.15967 0.91584,-0.27437 1.62331,-0.27437 0.90134,0 2.39361,0.19905 3.8411,0.29723 0.72374,0.0491 1.42397,0.0825 2.05773,0.0457 0.63375,-0.0368 1.18485,-0.14658 1.57759,-0.34296 1.64546,-0.82272 3.62259,-1.52296 5.48727,-1.98913 0.95733,-0.23934 2.00986,-0.45009 3.04087,-0.43441 0.5155,0.008 1.0363,0.0584 1.53186,0.20577 0.49556,0.14741 0.96751,0.39411 1.41755,0.73164 0.60443,0.45332 1.13655,0.74721 1.64618,0.96027 0.50964,0.21306 0.99621,0.34354 1.48614,0.45727 0.97987,0.22747 1.98655,0.39883 3.33809,1.07459 0.56876,0.28438 1.97953,1.0752 3.40669,1.71478 0.007,0.003 0.0159,-0.003 0.0228,0 z"
            style="fill:#f0e0af;fill-opacity:1;fill-rule:evenodd;stroke:#d39062;stroke-width:0.365818;stroke-linecap:butt;stroke-linejoin:miter;stroke-miterlimit:4;stroke-dasharray:none;stroke-opacity:1"
            id="Chillan_Viejo"
            inkscape:connector-curvature="0" />
        <path
            d="m 261.54239,181.85289 c -0.5729,0.0332 -1.07069,0.179 -1.41754,0.52587 -1.13968,1.13967 -1.55783,2.40377 -2.90369,3.74963 -0.67013,0.67014 -1.10136,1.07856 -1.71477,1.3261 -0.61341,0.24753 -1.41602,0.32009 -2.85796,0.32009 -1.34004,0 -2.45193,-0.068 -3.29236,0 -0.42023,0.034 -0.76801,0.0985 -1.05173,0.22863 -0.28372,0.13014 -0.50069,0.31547 -0.64018,0.59446 -0.42223,0.84445 -0.74912,1.99623 -1.28037,2.92655 -0.26563,0.46516 -0.58749,0.86995 -0.98314,1.16604 -0.39564,0.2961 -0.86908,0.48014 -1.46327,0.48014 -0.73897,0 -1.33738,0.0786 -1.82909,0.20577 -0.49171,0.1272 -0.88781,0.29536 -1.23464,0.48014 -0.69364,0.36955 -1.19226,0.80106 -1.92054,0.98314 -1.82413,0.45602 -3.99018,1.08392 -5.39583,1.64618 -0.80818,0.32327 -1.80165,0.53633 -2.92654,0.66304 -1.1249,0.12672 -2.39346,0.18291 -3.72678,0.18291 -0.98431,0 -2.07762,-0.0849 -3.10945,-0.0686 -1.03184,0.0164 -1.99864,0.1305 -2.69792,0.48014 -0.43422,0.21711 -0.86947,0.25728 -1.30322,0.22863 -0.43375,-0.0287 -0.8538,-0.13752 -1.23464,-0.20577 -0.38084,-0.0683 -0.7305,-0.0983 -1.006,0 -0.27551,0.0983 -0.47671,0.32924 -0.59446,0.80023 -0.11254,0.4502 -0.41503,0.7888 -0.82309,1.02886 -0.40805,0.24007 -0.93703,0.38516 -1.509,0.48014 -1.14394,0.18997 -2.4652,0.16005 -3.47527,0.16004 -1.13684,0 -1.89834,0.1437 -2.515,0.48014 -0.61666,0.33644 -1.099,0.87087 -1.64619,1.60046 -0.46739,0.62318 -0.78962,1.35091 -1.14318,2.08059 -0.35356,0.72967 -0.74017,1.44894 -1.34896,2.05773 -0.62742,0.62741 -1.00134,1.24902 -1.55472,1.71477 -0.27669,0.23287 -0.59213,0.43615 -1.006,0.57159 -0.41388,0.13544 -0.92274,0.20577 -1.5776,0.20577 -2.26315,0 -4.50999,-0.41153 -6.24177,-0.41154 -0.53975,0 -1.23919,0.10756 -1.92055,0.36582 -0.68136,0.25826 -1.33581,0.65315 -1.80623,1.28036 -0.1948,0.25974 -0.83415,1.17804 -1.46327,2.03487 -0.62912,0.85682 -1.24622,1.66623 -1.44041,1.71477 -0.82965,0.20741 -1.83099,0.34857 -2.90368,0.36582 -1.0727,0.0173 -2.20968,-0.0894 -3.31523,-0.36582 -1.41156,-0.35288 -1.98657,-0.53064 -2.49214,-0.48014 -0.50558,0.0505 -0.94871,0.32574 -2.08059,0.89169 -0.74376,0.37188 -1.50322,0.62586 -2.21778,0.91454 -0.71455,0.28868 -1.3947,0.61733 -1.94341,1.16605 -0.67757,0.67757 -1.02705,1.21807 -1.55473,1.53186 -0.26384,0.1569 -0.57216,0.25013 -0.98313,0.27437 -0.41098,0.0242 -0.91928,-0.0238 -1.60046,-0.16005 -0.90765,-0.18153 -1.56425,-0.19499 -2.08059,-0.11432 -0.51634,0.0807 -0.89619,0.2642 -1.2575,0.52587 -0.36131,0.26167 -0.70062,0.5988 -1.14318,0.96027 -0.44257,0.36146 -1.00039,0.74026 -1.76051,1.12032 -0.72187,0.36094 -1.32694,0.67919 -1.92054,1.05173 -0.5936,0.37253 -1.16691,0.80108 -1.80623,1.44041 -0.28627,0.28627 -0.67232,0.45256 -1.09746,0.54872 -0.42513,0.0962 -0.89507,0.13748 -1.34895,0.18291 -0.45389,0.0454 -0.88497,0.0945 -1.2575,0.22864 -0.37253,0.13409 -0.68777,0.34666 -0.86882,0.70877 -0.47551,0.95101 -2.72019,3.72677 -2.90368,3.72678 -0.62087,0 -1.12964,0.18488 -1.55473,0.45727 -0.42509,0.27239 -0.75248,0.64282 -1.05173,1.006 -0.29925,0.36319 -0.55686,0.71075 -0.80023,0.98314 -0.24337,0.27239 -0.47419,0.45727 -0.73163,0.45727 -2.07534,0 -4.16643,-1e-5 -6.24178,0 -0.34165,0 -0.79784,0.16526 -1.2575,0.43441 -0.45967,0.26915 -0.90191,0.64963 -1.2575,1.05173 -0.35559,0.4021 -0.61075,0.83578 -0.64018,1.23464 -0.0147,0.19942 0.0288,0.39851 0.13718,0.57159 0.10846,0.17307 0.28932,0.32757 0.54872,0.45727 0.28217,0.14108 5.06761,3.51445 4.96142,3.72677 -0.45042,0.90085 -0.95256,1.40813 -1.509,1.85196 -0.55644,0.44383 -1.16187,0.81889 -1.80623,1.46327 -0.0167,0.0167 -0.11292,0.0921 -0.13718,0.11432 0.2968,0.32791 0.56445,0.70163 0.86881,1.006 0.42937,0.42936 0.82074,0.82075 1.14319,1.21178 0.32244,0.39102 0.57065,0.77368 0.73163,1.18891 0.0323,0.0834 0.0206,0.1877 0.0457,0.27436 0.0951,-0.014 0.20842,-0.0696 0.29723,-0.0685 0.30686,0.004 0.57643,0.12077 0.77736,0.38868 0.86191,1.1492 1.40398,2.02147 1.89769,2.60645 0.24684,0.2925 0.47803,0.51551 0.73163,0.66305 0.25361,0.14754 0.51973,0.20577 0.84596,0.20577 1.60024,0 2.66758,-0.29428 3.61245,-0.32009 0.47244,-0.0129 0.9341,0.032 1.39469,0.22864 0.46058,0.1966 0.93607,0.54739 1.48613,1.09745 0.31699,0.31698 0.69513,0.61448 1.14319,0.86882 0.44805,0.25434 0.95335,0.46587 1.509,0.61732 0.55565,0.15145 1.16648,0.2432 1.80623,0.2515 0.63975,0.008 1.31163,-0.0764 2.012,-0.2515 1.04773,-0.26193 2.00884,-0.88283 2.97227,-1.44041 0.48172,-0.27879 0.96498,-0.53892 1.46328,-0.73164 0.49829,-0.19272 1.01474,-0.32009 1.55472,-0.32009 0.19007,0 0.31712,0.0187 0.503,0.0228 0.002,-0.008 -0.002,-0.0152 0,-0.0228 0.22714,-0.40682 0.30782,-0.91772 0.32009,-1.48614 0.0123,-0.56841 -0.0541,-1.19434 -0.16004,-1.7605 -0.2119,-1.1323 -0.55797,-2.10053 -0.66305,-2.24063 -0.11935,-0.15915 -0.006,-0.42104 0.20578,-0.77737 0.21189,-0.35633 0.51232,-0.78481 0.7545,-1.28036 0.24218,-0.49555 0.41718,-1.0465 0.38868,-1.62332 -0.0143,-0.28841 -0.0675,-0.59382 -0.20577,-0.89168 -0.13835,-0.29787 -0.34012,-0.59162 -0.64019,-0.89169 -0.35263,-0.35264 -0.59242,-0.87231 -0.70877,-1.46327 -0.11634,-0.59096 -0.12069,-1.2669 -0.0228,-1.89768 0.0978,-0.63078 0.30459,-1.2198 0.59446,-1.69191 0.28987,-0.47211 0.66053,-0.82246 1.12032,-0.93741 0.86848,-0.21712 1.44021,-0.56859 1.85195,-0.98314 0.41175,-0.41455 0.65634,-0.88192 0.93741,-1.32609 0.28108,-0.44417 0.59812,-0.86006 1.07459,-1.16605 0.47648,-0.30598 1.12839,-0.503 2.12632,-0.503 0.62279,0 1.21703,-0.13317 1.80623,-0.32009 0.5892,-0.18692 1.16442,-0.43668 1.7605,-0.68591 0.59609,-0.24922 1.20852,-0.49899 1.85196,-0.68591 0.64344,-0.18692 1.32646,-0.32009 2.05773,-0.32009 0.50797,0 0.9156,-0.0397 1.2575,-0.13718 0.3419,-0.0974 0.60287,-0.25207 0.82309,-0.41155 0.44044,-0.31895 0.69442,-0.71974 0.91455,-1.07459 0.22012,-0.35485 0.42237,-0.6468 0.77736,-0.7545 0.35499,-0.1077 0.86974,-0.0338 1.71477,0.38868 0.52797,0.26399 1.10737,0.47437 1.71478,0.61732 0.6074,0.14296 1.2283,0.21575 1.85195,0.27437 1.24731,0.11723 2.47352,0.11431 3.40669,0.11431 0.51944,0 4.26387,-0.503 6.47041,-0.503 1.08724,0 1.8429,-0.0733 2.40068,-0.16004 0.55779,-0.0868 0.9263,-0.18004 1.21178,-0.27437 0.28547,-0.0943 0.48417,-0.18305 0.7545,-0.20577 0.27032,-0.0227 0.60799,0.009 1.12032,0.13718 0.84054,0.21014 1.43885,0.34155 1.89768,0.38869 0.45882,0.0471 0.76754,0.009 1.09745,-0.13719 0.65982,-0.29207 1.33408,-0.99485 2.99514,-2.24063 0.24604,-0.18453 0.69083,-0.28224 1.2575,-0.32009 0.56667,-0.0378 1.24163,-0.0186 1.92055,0 0.67891,0.0186 1.36064,0.038 1.94341,0.0228 0.58277,-0.0151 1.07071,-0.0666 1.34895,-0.20577 0.73648,-0.36824 1.26427,-0.46232 1.66905,-0.45727 0.40479,0.005 0.68387,0.11046 0.93741,0.13718 0.25354,0.0267 0.47176,-0.0169 0.7545,-0.32009 0.28274,-0.30322 0.62794,-0.86719 1.12032,-1.85196 0.13038,-0.26077 0.31226,-0.45184 0.52586,-0.59445 0.21361,-0.14261 0.47519,-0.22547 0.7545,-0.27437 0.55864,-0.0978 1.22698,-0.0389 1.94341,0.0915 1.43288,0.26077 3.02892,0.77736 4.25264,0.77736 0.15928,1e-5 0.88309,1.39316 1.5776,2.83509 0.6945,1.44194 1.36412,2.94151 1.41754,3.15519 0.15497,0.61987 0.45926,1.25266 0.84596,1.87482 0.38669,0.62215 0.85236,1.23452 1.34895,1.78336 0.99318,1.09769 2.08752,1.95831 2.78937,2.30923 0.48189,0.24095 0.87972,0.57994 1.21177,0.96027 0.33205,0.38034 0.59656,0.82326 0.86882,1.28037 0.54453,0.91423 1.05198,1.89794 1.89768,2.74364 0.4109,0.4109 0.7558,0.90638 1.02887,1.44041 0.27307,0.53403 0.48433,1.12792 0.66304,1.71477 0.35741,1.17371 0.58229,2.37487 0.82309,3.33809 0.24601,0.98397 0.77187,2.03256 1.34896,3.06373 0.57709,1.03118 1.18696,2.03095 1.62332,2.90369 0.29617,0.59234 0.47942,1.20869 0.54873,1.80622 0.0693,0.59754 0.0422,1.19542 -0.0457,1.7605 -0.17589,1.13017 -0.59588,2.15205 -0.98314,2.92655 -0.42938,0.85878 -0.68121,1.74784 -0.82309,2.78937 -0.14188,1.04153 -0.18291,2.22605 -0.18291,3.68104 0,0.31661 -0.0462,0.48408 -0.0685,0.73164 0.70657,0.31585 1.40999,0.59967 2.03486,0.7545 0.63106,0.15636 1.1814,0.1981 1.53187,0.0228 0.62479,-0.3124 1.76364,-0.46058 2.99513,-0.64018 1.2315,-0.17961 2.54617,-0.40425 3.47528,-0.86882 0.26271,-0.13135 0.56559,-0.17335 0.91455,-0.16005 0.34895,0.0133 0.74455,0.0946 1.14318,0.20578 0.79725,0.22229 1.64699,0.58178 2.42354,0.91454 0.77656,0.33276 1.4801,0.64007 1.94341,0.70877 0.23166,0.0343 0.40451,0.0105 0.50301,-0.0915 0.0985,-0.10189 0.11695,-0.28665 0.0457,-0.57159 -0.15641,-0.62562 -0.29319,-1.20463 -0.38868,-1.73764 -0.0955,-0.53301 -0.15239,-1.01502 -0.0915,-1.44041 0.0609,-0.42539 0.23585,-0.79471 0.54872,-1.09745 0.31288,-0.30275 0.78009,-0.5437 1.44041,-0.70878 0.45237,-0.11309 0.9621,-0.20945 1.48614,-0.34295 0.52404,-0.1335 1.04847,-0.31065 1.48614,-0.57159 0.43766,-0.26095 0.78989,-0.60203 0.98313,-1.09746 0.19324,-0.49543 0.2321,-1.15219 0.0228,-1.98914 -0.16615,-0.66459 -0.33685,-1.32452 -0.503,-1.98913 l -5.96741,-3.97828 5.96741,-10.97455 6.97341,4.48128 3.5896,-7.17919 c -0.71693,-0.34499 -1.39103,-0.69301 -2.08059,-1.05173 -0.57615,-0.29971 -1.08212,-0.61983 -1.37182,-0.98314 -0.14486,-0.18165 -0.22347,-0.36487 -0.2515,-0.57159 -0.028,-0.20671 -0.004,-0.42515 0.11431,-0.66304 0.54908,-1.09815 1.01173,-1.90359 1.16605,-2.5836 0.0772,-0.33999 0.0788,-0.64867 -0.0228,-0.96027 -0.10168,-0.3116 -0.30622,-0.62632 -0.64018,-0.96027 -0.86773,-0.86773 -1.42894,-1.44882 -2.05773,-1.96628 -0.62878,-0.51745 -1.32033,-0.95739 -2.42354,-1.509 -0.36893,-0.18446 -1.90146,-0.761 -3.38382,-1.37182 -1.48237,-0.61081 -2.9051,-1.26034 -3.0866,-1.62331 -0.29185,-0.58371 -0.59867,-1.02236 -0.91454,-1.34896 -0.31588,-0.3266 -0.64163,-0.53144 -1.05173,-0.70877 -0.82022,-0.35468 -1.9026,-0.53282 -3.521,-0.93741 -0.85771,-0.21442 -1.72959,-0.47388 -2.515,-0.77737 -0.78542,-0.30348 -1.50039,-0.64755 -2.03487,-1.02886 -0.53447,-0.38132 -0.87825,-0.7867 -0.98314,-1.23464 -0.0524,-0.22397 -0.0427,-0.47025 0.0457,-0.70877 0.0885,-0.23852 0.25133,-0.47997 0.503,-0.73164 0.42911,-0.42911 0.67997,-0.79122 0.84596,-1.12032 0.16598,-0.32909 0.23845,-0.61942 0.27436,-0.96027 0.0719,-0.68171 0.016,-1.50425 0.36582,-2.90368 0.0787,-0.31474 -0.0537,-0.58206 -0.29723,-0.8231 -0.24349,-0.24103 -0.58654,-0.44657 -0.93741,-0.66304 -0.35087,-0.21647 -0.71679,-0.44487 -0.96027,-0.68591 -0.24348,-0.24104 -0.37592,-0.50836 -0.29723,-0.82309 0.14473,-0.57891 0.33442,-1.09043 0.57159,-1.53187 0.23718,-0.44143 0.51472,-0.79935 0.84596,-1.12032 0.33123,-0.32096 0.71629,-0.60559 1.14318,-0.82309 0.42689,-0.2175 0.91626,-0.37196 1.44041,-0.503 0.27032,-0.0676 0.41946,-0.30314 0.52586,-0.61732 0.10641,-0.31417 0.15402,-0.70075 0.20578,-1.07459 0.0517,-0.37383 0.0994,-0.73654 0.20577,-0.98313 0.1064,-0.2466 0.27841,-0.38768 0.54873,-0.3201 0.0523,0.0131 0.71854,0.51143 1.60045,1.0746 0.88192,0.56316 1.97473,1.19103 2.88082,1.41754 1.11949,0.27988 2.35557,0.54579 3.49814,0.54873 0.57129,10e-4 1.11668,-0.0641 1.62332,-0.22864 0.50664,-0.16453 0.97678,-0.42804 1.37182,-0.82309 0.38121,-0.38121 0.68625,-0.61713 0.93741,-0.7545 0.25116,-0.13737 0.42855,-0.18229 0.59445,-0.13718 0.33182,0.0902 0.54068,0.48551 0.80023,0.93741 0.25956,0.4519 0.57468,0.98057 1.12032,1.30323 0.27282,0.16133 0.61734,0.26026 1.02886,0.29722 0.41153,0.0369 0.89112,0.0116 1.48614,-0.13718 1.35215,-0.33804 2.41937,-0.68132 3.54387,-0.82309 0.56225,-0.0709 1.14119,-0.0899 1.78336,-0.0457 0.64217,0.0442 1.33587,0.16249 2.14919,0.36582 0.75938,0.18985 1.26743,0.16183 1.64618,0.0228 0.37874,-0.13896 0.6391,-0.40323 0.93741,-0.64018 0.29831,-0.23696 0.62509,-0.4446 1.14318,-0.54873 0.51809,-0.10413 1.22543,-0.0995 2.2635,0.16005 0.9705,0.24262 2.45118,0.87486 3.70391,1.18891 0.62637,0.15702 1.19134,0.22214 1.60046,0.13718 0.20456,-0.0425 0.38872,-0.11604 0.503,-0.2515 0.11427,-0.13547 0.16004,-0.32151 0.16004,-0.57159 0,-0.7111 -0.11402,-1.83562 -0.0457,-2.97228 0.0342,-0.56833 0.11306,-1.15155 0.27436,-1.66905 0.1613,-0.51749 0.41552,-0.9871 0.77736,-1.34895 0.82366,-0.82366 1.39478,-1.37868 1.85196,-2.08059 0.45719,-0.70191 0.80487,-1.55047 1.14318,-2.90369 0.306,-1.22397 1.09881,-2.26287 1.48614,-3.54386 0.19366,-0.6405 0.28833,-1.34673 0.16005,-2.14919 -0.0444,-0.2777 -0.28734,-0.65523 -0.38869,-0.96027 -0.79721,0.2928 -1.47434,0.49122 -1.85195,0.86882 -0.30537,0.15269 -0.42974,0.15432 -0.45727,0.11432 -0.0275,-0.04 0.0328,-0.13345 0.0915,-0.20577 0.11723,-0.14466 0.23104,-0.18531 -0.45727,0.503 -0.75368,0.75366 -0.97947,1.37204 -1.41755,1.80622 -0.21904,0.2171 -0.489,0.38729 -0.91455,0.503 -0.42554,0.11572 -1.00675,0.18291 -1.82909,0.18291 -2.28301,0 -3.92129,-0.41154 -5.80736,-0.41154 -0.69955,0 -2.13725,-0.1831 -3.45242,-0.32009 -1.31516,-0.13699 -2.5007,-0.24722 -2.7665,-0.11432 -0.48911,0.24456 -0.94779,0.39537 -1.39468,0.48014 -0.44689,0.0848 -0.89866,0.10071 -1.37182,0.0914 -0.94633,-0.0185 -2.01283,-0.13718 -3.47527,-0.13718 -1.03166,0 -1.82832,-0.10956 -2.49214,-0.27437 -0.66382,-0.1648 -1.1792,-0.38592 -1.69191,-0.66304 -1.02542,-0.55424 -1.98261,-1.30062 -3.70391,-1.98914 -0.73429,-0.29371 -2.03483,-0.83565 -3.3381,-1.14318 -0.65163,-0.15377 -1.30191,-0.23888 -1.87482,-0.20577 z"
            style="opacity:0.99;fill:#f0e0af;fill-opacity:1;fill-rule:evenodd;stroke:#d39062;stroke-width:0.365818;stroke-linecap:butt;stroke-linejoin:miter;stroke-miterlimit:4;stroke-dasharray:none;stroke-opacity:1"
            id="Chillan"
            inkscape:connector-curvature="0" />
    </g>
</svg>
