<?xml version="1.0" encoding="UTF-8" standalone="no"?>
<svg
    xmlns:dc="http://purl.org/dc/elements/1.1/"
    xmlns:cc="http://creativecommons.org/ns#"
    xmlns:rdf="http://www.w3.org/1999/02/22-rdf-syntax-ns#"
    xmlns:svg="http://www.w3.org/2000/svg"
    xmlns="http://www.w3.org/2000/svg"
    xmlns:sodipodi="http://sodipodi.sourceforge.net/DTD/sodipodi-0.dtd"
    xmlns:inkscape="http://www.inkscape.org/namespaces/inkscape"
    sodipodi:docname="Provincias de Ñuble.svg"
    inkscape:version="1.0 (4035a4fb49, 2020-05-01)"
    id="svg2"
    height="430"
    width="550"
    version="1.0">
    <metadata
        id="metadata68">
        <rdf:RDF>
            <cc:Work
                rdf:about="">
                <dc:format>image/svg+xml</dc:format>
                <dc:type
                    rdf:resource="http://purl.org/dc/dcmitype/StillImage" />
                <dc:title />
            </cc:Work>
        </rdf:RDF>
    </metadata>
    <sodipodi:namedview
        inkscape:document-rotation="0"
        inkscape:current-layer="svg2"
        inkscape:window-maximized="1"
        inkscape:window-y="-8"
        inkscape:window-x="-8"
        inkscape:cy="232.25949"
        inkscape:cx="71.605117"
        inkscape:zoom="0.35181766"
        showgrid="false"
        id="namedview66"
        inkscape:window-height="715"
        inkscape:window-width="1366"
        inkscape:pageshadow="2"
        inkscape:pageopacity="0"
        guidetolerance="10"
        gridtolerance="10"
        objecttolerance="10"
        borderopacity="1"
        bordercolor="#666666"
        pagecolor="#ffffff" />
    <defs
        id="defs5" />
    <g
        transform="matrix(0.7316368,0,0,0.7316368,-275.73052,11.107154)"
        id="Provincia_Arauco" />
    <g
        transform="matrix(0.7316368,0,0,0.7316368,-275.73052,11.107154)"
        id="Provincia_Concepcion" />
    <g
        transform="matrix(0.7316368,0,0,0.7316368,-275.73052,11.107154)"
        id="Provincia_Biobio" />
    <g
        id="itata">
        <title
            id="itata">Provincia de Itata</title>
        <path
            d="m 138.4445,232.49588 c -0.37107,-0.36064 -0.68,-0.74671 -0.96027,-1.12032 -0.56055,-0.74722 -0.98668,-1.43075 -1.46328,-1.66905 -0.90081,-0.45041 -1.9123,-0.58409 -2.7665,-0.84595 -0.4271,-0.13094 -0.83263,-0.29258 -1.14318,-0.54873 -0.31055,-0.25615 -0.53898,-0.60119 -0.66305,-1.09746 -0.10993,-0.43972 -0.63358,-1.47294 -1.23463,-2.40068 -0.30053,-0.46386 -0.62266,-0.91422 -0.91455,-1.23464 -0.29189,-0.32042 -0.55885,-0.52586 -0.7545,-0.52586 -1.30504,0 -2.33201,-0.0657 -3.29237,-0.20577 -0.96036,-0.14007 -1.84703,-0.34744 -2.92654,-0.61732 -1.18638,-0.2966 -2.24764,-0.5077 -3.20091,-0.80023 -0.95328,-0.29253 -1.79499,-0.67176 -2.60646,-1.28036 -0.78652,-0.58989 -1.23448,-1.13907 -1.62332,-1.73764 -0.38884,-0.59858 -0.73966,-1.23773 -1.30323,-1.98914 -0.94038,-1.25385 -2.60705,-3.45299 -4.13832,-4.98427 -0.74328,-0.74329 -1.28147,-1.26745 -1.98914,-1.60046 -0.70766,-0.33301 -1.58825,-0.48014 -2.99513,-0.48014 -0.62057,0 -1.21611,-0.0847 -1.76051,-0.2515 -0.54439,-0.16674 -1.02483,-0.41145 -1.44041,-0.73163 -0.41557,-0.32018 -0.77189,-0.70576 -1.006,-1.16605 -0.2341,-0.46029 -0.365814,-0.99051 -0.365814,-1.57759 0,-0.97374 -0.06226,-2.018 -0.411546,-2.81223 -0.174634,-0.39712 -0.418525,-0.7233 -0.7545,-0.96027 -0.335975,-0.23698 -0.779442,-0.38869 -1.326092,-0.38869 -0.04609,0 -0.09107,0 -0.137182,0 -0.257924,0.58712 -0.562299,1.17963 -0.891682,1.509 -0.317831,0.31784 -0.959849,0.61846 -1.554728,1.00601 -0.29744,0.19377 -0.572857,0.41681 -0.800228,0.66304 -0.227371,0.24623 -0.392867,0.52391 -0.457273,0.84596 -0.112848,0.56423 -0.248464,0.93494 -0.388682,1.18891 -0.140218,0.25396 -0.287497,0.37705 -0.480137,0.48013 -0.38528,0.20618 -0.900864,0.28698 -1.646183,0.84596 -0.515072,0.3863 -0.900162,0.72866 -1.234637,1.16604 -0.334475,0.43739 -0.615116,0.95587 -0.960273,1.64619 -0.532639,1.06527 -0.667407,2.5923 -1.257501,3.7725 -0.189735,0.37946 -0.246166,1.35064 -0.342955,2.28636 -0.04836,0.46786 -0.112862,0.9247 -0.205772,1.30323 -0.09291,0.37854 -0.228959,0.66329 -0.411546,0.80023 -0.571555,0.42866 -1.220736,0.76739 -1.874819,1.14318 -0.654084,0.37579 -1.294515,0.79151 -1.87482,1.37182 -0.475278,0.47527 -0.774225,0.86948 -1.18891,1.14318 -0.414684,0.27371 -0.960105,0.43442 -1.966273,0.43441 -1.390198,0 -2.181807,0.15807 -2.857957,0.43441 -0.676149,0.27634 -1.219711,0.65559 -2.149183,1.12032 -0.568657,0.28433 -1.152979,0.40348 -1.806228,0.38868 -0.653249,-0.0148 -1.385808,-0.16354 -2.286365,-0.38868 -1.275463,-0.31887 -1.672485,-0.37421 -1.989138,-0.2515 -0.316652,0.12271 -0.551171,0.43563 -1.463273,0.89168 -0.696058,0.34804 -1.275624,0.8129 -1.783365,1.34896 -0.155744,0.16443 -0.267757,0.37128 -0.411546,0.54873 0.166974,-0.0598 0.333853,-0.11797 0.480137,0 0.188075,0.15167 0.363631,0.46921 0.480137,1.05172 0.104931,0.52467 0.218408,1.21158 0.2515,1.85196 0.03307,0.64038 -0.01419,1.22783 -0.2515,1.62332 -0.293475,0.48913 -0.698165,1.15089 -0.93741,1.7605 -0.119623,0.3048 -0.194776,0.58755 -0.205773,0.84596 -0.01097,0.2584 0.04478,0.50204 0.205773,0.66304 0.702598,0.7026 1.129442,1.58672 1.851956,2.30923 0.410243,0.41024 0.726471,0.88981 1.097455,1.23464 0.185492,0.17241 0.380268,0.3159 0.617318,0.38868 0.237051,0.0728 0.516419,0.0824 0.845955,0 0.851304,-0.21283 1.670078,-0.4947 2.446411,-0.73164 0.776332,-0.23693 1.509323,-0.43441 2.19491,-0.43441 0.580108,0 1.309089,-0.0813 1.989138,-0.0686 0.340028,0.007 0.663982,0.032 0.960273,0.11432 0.296291,0.0823 0.570618,0.22766 0.777364,0.43441 0.344155,0.34414 0.87307,0.76654 1.371819,1.21177 0.49875,0.44523 0.95197,0.89793 1.166046,1.32609 0.223552,0.4471 0.448933,0.79381 0.68591,1.05173 0.236977,0.25792 0.491514,0.42839 0.777364,0.54873 0.571701,0.24067 1.283598,0.27435 2.263501,0.27436 0.205451,0 0.9665,-0.16011 1.646183,-0.18291 0.339845,-0.0114 0.65281,-0.004 0.868819,0.0915 0.216008,0.0956 0.320925,0.27102 0.2515,0.54872 -0.0695,0.27801 -0.04609,0.53555 0.02283,0.80023 0.06892,0.26468 0.201617,0.52595 0.365819,0.77737 0.328409,0.50282 0.807346,0.99025 1.2575,1.44041 0.173435,0.17343 0.629157,0.74344 1.143183,1.28036 0.514026,0.53692 1.070977,1.02886 1.394682,1.02886 0.770363,0 1.331206,0.0188 1.851956,0.11432 0.52075,0.0956 0.995011,0.28031 1.623319,0.59446 0.559527,0.27976 1.080906,0.37797 1.463274,0.61732 0.191184,0.11967 0.348852,0.271 0.457273,0.503 0.108421,0.23199 0.182909,0.53435 0.182909,0.96027 0,0.89776 0.07592,1.45946 0.320091,1.94341 0.244169,0.48395 0.655115,0.88374 1.303228,1.53186 0.329749,0.32975 0.480305,1.03265 0.594455,1.66905 0.11415,0.6364 0.177985,1.20686 0.320091,1.34896 0.232112,0.23211 0.446182,0.51181 0.708773,0.70877 0.530299,0.39772 0.938149,0.69466 1.211769,1.09745 0.27362,0.4028 0.41155,0.91549 0.41155,1.69191 0,0.56327 0.10523,1.62602 0.27436,2.42355 0.041,0.19325 0.089,0.28549 0.13718,0.43441 0.0776,-0.0153 0.15133,-0.0296 0.22864,-0.0457 0.47467,-0.0992 0.9385,-0.20927 1.34896,-0.43441 0.41045,-0.22514 0.77202,-0.56091 1.02886,-1.07459 0.24437,-0.48874 0.6485,-0.7226 1.07459,-0.82309 0.42609,-0.10049 0.86488,-0.0799 1.21177,-0.0686 0.3469,0.0113 0.61055,0.0161 0.61732,-0.13719 0.007,-0.15325 -0.22882,-0.45745 -0.82309,-1.05172 -0.33054,-0.33055 -0.48448,-0.79261 -0.52586,-1.32609 -0.0414,-0.53349 0.0173,-1.12966 0.13718,-1.71478 0.23973,-1.17024 0.68301,-2.29762 0.80023,-2.7665 0.1016,-0.40642 0.0553,-0.82427 -0.0228,-1.21177 -0.0782,-0.38751 -0.18349,-0.73827 -0.18291,-1.05173 5.9e-4,-0.31346 0.0965,-0.59307 0.43441,-0.77737 0.33788,-0.18429 0.91823,-0.27436 1.85196,-0.27436 0.8414,0 1.56158,0.11384 2.33209,0.43441 0.77051,0.32057 1.59482,0.8303 2.65218,1.62332 0.37769,0.28327 0.86457,0.48638 1.44041,0.61732 0.57584,0.13094 1.23528,0.19568 1.89768,0.22863 1.32482,0.0659 2.7024,0 3.70392,0 0.31391,0 0.64722,-0.15053 0.96027,-0.36581 0.31305,-0.21529 0.60078,-0.50559 0.89168,-0.8231 0.58181,-0.635 1.09781,-1.3493 1.46327,-1.71477 0.17054,-0.17054 0.23591,-0.42062 0.27437,-0.70877 0.0385,-0.28815 0.0709,-0.61119 0.13718,-0.96028 0.0663,-0.34908 0.18029,-0.72124 0.43441,-1.07459 0.25412,-0.35334 0.63277,-0.70507 1.23464,-1.006 0.32704,-0.16352 0.79835,-0.2437 1.32609,-0.27436 0.52774,-0.0307 1.1121,0.005 1.71477,0.0457 1.20534,0.0818 2.45036,0.22863 3.20091,0.22863 0.71306,0 1.25134,-0.008 1.69191,-0.0686 0.44058,-0.0601 0.77484,-0.17032 1.02887,-0.34296 0.25402,-0.17263 0.44107,-0.41703 0.59445,-0.7545 0.15338,-0.33747 0.27289,-0.77144 0.41155,-1.32609 0.0808,-0.32317 2.90307,-2.49152 3.31523,-2.90368 0.64436,-0.64438 1.24979,-1.01945 1.80623,-1.46328 0.55644,-0.44382 1.05858,-0.95111 1.509,-1.85195 0.10619,-0.21232 -4.67925,-3.5857 -4.96142,-3.72678 -0.2594,-0.1297 -0.44026,-0.28419 -0.54872,-0.45727 -0.10847,-0.17308 -0.1519,-0.37217 -0.13718,-0.57159 0.0294,-0.39885 0.28459,-0.83254 0.64018,-1.23464 0.11239,-0.1271 0.26116,-0.22301 0.38868,-0.34295 z"
            style="fill:#fbeebe;fill-opacity:1;fill-rule:evenodd;stroke:#d39062;stroke-width:0.365818;stroke-linecap:butt;stroke-linejoin:miter;stroke-miterlimit:4;stroke-dasharray:none;stroke-opacity:1"
            id="Ranquil"
            inkscape:connector-curvature="0" />
        <path
            d="m 155.56937,223.85342 c 0.0242,-0.19363 -0.0478,-0.46382 0.0228,-0.61732 0.17023,-0.36971 0.44702,-0.65219 0.73164,-0.91455 0.28462,-0.26235 0.57489,-0.51377 0.7545,-0.84595 0.17961,-0.33219 0.25911,-0.74691 0.11432,-1.32609 -0.13836,-0.55343 -0.29608,-1.09276 -0.43441,-1.64619 v -7.88796 l 1.66904,0.41155 5.39582,-5.80737 c 0.46476,-0.61967 0.73439,-1.02601 0.86882,-1.30323 0.13444,-0.27721 0.14695,-0.43377 0.0686,-0.59445 -0.0784,-0.16068 -0.23793,-0.32439 -0.41155,-0.59446 -0.17362,-0.27006 -0.37452,-0.65212 -0.52586,-1.2575 -0.0496,-0.19853 -0.32101,-1.73977 -0.38868,-3.24663 -0.0338,-0.75344 -0.001,-1.50507 0.11431,-2.05773 0.0578,-0.27633 0.13709,-0.50289 0.2515,-0.66305 0.11442,-0.16016 0.25056,-0.2515 0.43441,-0.2515 0.15895,-0.95369 0.14907,-2.07867 0.0457,-3.13232 -0.10334,-1.05365 -0.29662,-2.03242 -0.45727,-2.67505 -0.10331,-0.41323 -0.10418,-0.84953 -0.0457,-1.30322 0.0585,-0.4537 0.16763,-0.92934 0.29723,-1.41755 0.25918,-0.97642 0.57158,-2.00782 0.57159,-3.08659 0,-0.63867 -0.0721,-1.16249 -0.18291,-1.62332 -0.11078,-0.46084 -0.25855,-0.87451 -0.38868,-1.2575 -0.13013,-0.383 -0.23917,-0.73804 -0.29723,-1.14319 -0.058,-0.40514 -0.0597,-0.84452 0.0457,-1.37181 0.0882,-0.44093 -0.0746,-0.76285 -0.38868,-1.00601 -0.3141,-0.24315 -0.76764,-0.4268 -1.30323,-0.54872 -1.07118,-0.24384 -2.41991,-0.30775 -3.29237,-0.52587 -0.75645,-0.18911 -1.3136,-0.16666 -1.78336,-0.0228 -0.46976,0.1438 -0.848,0.39356 -1.21178,0.70877 -0.36377,0.31521 -0.72755,0.6809 -1.16604,1.006 -0.43849,0.3251 -0.95226,0.62675 -1.64618,0.80023 -0.48046,0.12011 -0.92602,0.0591 -1.37182,-0.11432 -0.44581,-0.17342 -0.89184,-0.46606 -1.3261,-0.77736 -0.43425,-0.31131 -0.85742,-0.64388 -1.30322,-0.93741 -0.44581,-0.29354 -0.91423,-0.54294 -1.39469,-0.66305 -0.13835,-0.69178 -0.27319,-1.38881 -0.41154,-2.08059 -0.0475,-0.23743 -0.15636,-0.39516 -0.29723,-0.503 -0.14087,-0.10785 -0.31225,-0.17223 -0.52586,-0.18291 -0.42724,-0.0214 -0.98325,0.12438 -1.5776,0.29723 -0.59434,0.17284 -1.23278,0.37235 -1.82909,0.48013 -0.5963,0.10779 -1.14447,0.1251 -1.57759,-0.0915 -0.59786,-0.29893 -1.02514,-0.37418 -1.37182,-0.34296 -0.34668,0.0312 -0.6252,0.17765 -0.89168,0.34296 -0.26648,0.1653 -0.5344,0.3311 -0.89168,0.43441 -0.35728,0.1033 -0.79848,0.1319 -1.41755,-0.0228 -1.07597,-0.26899 -1.76918,-0.24312 -2.42355,-0.27436 -0.65436,-0.0312 -1.27686,-0.11257 -2.14918,-0.54873 -0.90933,-0.45466 -1.76376,-1.16046 -2.49214,-1.92055 -0.72838,-0.76009 -1.31836,-1.58499 -1.64618,-2.24064 -0.13961,-0.27922 -0.16321,-0.60714 -0.13718,-0.98313 0.026,-0.37599 0.10625,-0.79438 0.18291,-1.21178 0.0767,-0.41739 0.14774,-0.83121 0.16004,-1.23463 0.0123,-0.40343 -0.0387,-0.78623 -0.20577,-1.12032 -0.24271,-0.48541 -0.68122,-0.82111 -1.21177,-1.02887 -0.53056,-0.20775 -1.14681,-0.28579 -1.80623,-0.32009 -1.20278,-0.0625 -2.43063,0.0664 -3.31523,0.0915 0.18164,0.0634 0.50274,0.11647 0.61732,0.18291 0.28959,0.16791 0.39011,0.35 0.43441,0.59445 0.0443,0.24445 0.0448,0.55133 0.0914,0.93741 0.0466,0.38608 0.138,0.84759 0.43441,1.44041 0.26766,0.53533 0.51997,1.22823 0.61732,1.94341 0.0486,0.3576 0.0674,0.7112 0.0228,1.07459 -0.0446,0.36339 -0.14856,0.73152 -0.32009,1.07459 -0.85201,1.70402 -1.00893,2.0252 -1.18891,2.14919 -0.17999,0.12399 -0.38591,0.0429 -1.3261,0.98313 -0.26464,0.26466 -0.72192,0.74135 -1.16604,1.30323 -0.44412,0.56188 -0.87186,1.22397 -1.02887,1.85196 -0.39347,1.57389 -0.27936,2.71796 -0.61731,4.06973 -0.11026,0.44099 -0.30663,0.75197 -0.54873,0.98313 -0.24211,0.23117 -0.53936,0.38318 -0.84596,0.54873 -0.30659,0.16555 -0.6337,0.32747 -0.93741,0.57159 -0.30371,0.24413 -0.58963,0.56197 -0.82309,1.02887 -0.22974,0.45948 -0.29238,0.79778 -0.27436,1.05173 0.018,0.25394 0.12949,0.44095 0.2515,0.61731 0.12201,0.17637 0.26071,0.34483 0.34295,0.5716 0.0823,0.22676 0.10129,0.50941 0,0.91454 -0.11862,0.47448 -0.29192,0.81908 -0.503,1.07459 -0.21107,0.25552 -0.45459,0.4085 -0.68591,0.54873 -0.23132,0.14023 -0.46083,0.26007 -0.64018,0.38868 -0.17935,0.12862 -0.31066,0.28234 -0.36582,0.503 -0.18208,0.72833 -0.25581,1.34342 -0.36582,1.94341 -0.11001,0.6 -0.25165,1.16633 -0.57159,1.80623 -0.54636,1.09273 -0.78496,1.36633 -1.07459,1.46328 -0.28963,0.0969 -0.63318,0.0308 -1.44041,0.4344 -0.88068,0.44035 -1.26929,0.67481 -1.71477,0.80023 -0.44549,0.12543 -0.95216,0.13718 -2.05773,0.13718 -1.70756,0 -3.08419,-0.32009 -4.70991,-0.32009 -1.0489,0 -2.06616,0.0922 -3.018005,-0.0228 -0.475922,-0.0575 -0.931176,-0.17344 -1.371819,-0.36582 -0.440643,-0.19239 -0.85949,-0.47081 -1.257501,-0.86882 -0.21674,-0.21674 -0.977766,-0.69228 -1.737637,-0.91455 -0.379939,-0.11113 -0.766068,-0.14725 -1.074591,-0.0685 -0.308524,0.0787 -0.541207,0.29 -0.640183,0.68591 -0.102539,0.41018 -0.06621,0.70644 0.06856,0.93741 0.134833,0.23097 0.349985,0.38671 0.640182,0.54873 0.580385,0.32402 1.393768,0.6164 2.103456,1.32609 0.0812,0.0812 2.856544,2.15202 2.835092,2.19491 -0.1536,0.3072 -0.3732,0.93362 -0.640182,1.55473 -0.01471,0.0342 -0.03073,0.0573 -0.04573,0.0914 0.04609,0 0.09107,0 0.137182,0 0.546649,0 0.990116,0.15171 1.326091,0.38868 0.335975,0.23698 0.579866,0.56316 0.754501,0.96028 0.349276,0.79423 0.411546,1.83848 0.411546,2.81222 0,0.58708 0.131708,1.11731 0.365818,1.5776 0.23411,0.46028 0.59042,0.84586 1.006,1.16604 0.41558,0.32018 0.89601,0.56489 1.44041,0.73164 0.54439,0.16675 1.13993,0.2515 1.7605,0.2515 1.40689,-1e-5 2.28748,0.14712 2.99514,0.48014 0.70766,0.33301 1.24585,0.85717 1.98914,1.60045 1.53127,1.53129 3.19794,3.73043 4.13832,4.98428 0.56356,0.75141 0.91438,1.39056 1.30322,1.98913 0.38885,0.59858 0.8368,1.14775 1.62332,1.73764 0.81148,0.60861 1.65319,0.98784 2.60646,1.28037 0.95327,0.29253 2.01453,0.50363 3.20091,0.80022 1.07952,0.26988 1.96619,0.47726 2.92655,0.61732 0.96036,0.14007 1.98733,0.20578 3.29236,0.20578 0.19566,0 0.46261,0.20544 0.7545,0.52586 0.2919,0.32042 0.61402,0.77077 0.91455,1.23464 0.60105,0.92773 1.12471,1.96095 1.23464,2.40068 0.12406,0.49626 0.35249,0.84131 0.66304,1.09746 0.31055,0.25614 0.71608,0.41779 1.14318,0.54872 0.85421,0.26187 1.86569,0.39555 2.76651,0.84596 0.47659,0.23829 0.90273,0.92182 1.46327,1.66904 0.28028,0.37361 0.5892,0.75968 0.96027,1.12032 0.004,-0.004 0.0185,0.004 0.0228,0 0.27254,-0.25474 0.5365,-0.52757 0.84596,-0.70877 0.45966,-0.26915 0.91584,-0.43441 1.2575,-0.43441 2.07534,-1e-5 4.16643,0 6.24177,0 0.25745,0 0.48827,-0.18488 0.73164,-0.45727 0.24337,-0.27239 0.50097,-0.61995 0.80023,-0.98314 0.29925,-0.36318 0.62664,-0.73361 1.05173,-1.006 0.42508,-0.27239 0.93386,-0.45727 1.55472,-0.45727 0.1835,-1e-5 2.42818,-2.77577 2.90369,-3.72678 0.18105,-0.36211 0.49629,-0.57468 0.86882,-0.70877 0.25093,-0.0903 0.55281,-0.12199 0.84595,-0.16005 z"
            style="fill:#fbeebe;fill-opacity:1;fill-rule:evenodd;stroke:#d39062;stroke-width:0.365818;stroke-linecap:butt;stroke-linejoin:miter;stroke-miterlimit:4;stroke-dasharray:none;stroke-opacity:1"
            id="Portezuelo"
            inkscape:connector-curvature="0" />
        <path
            d="m 160.55365,176.43421 c -0.21057,-1.20629 -0.50419,-2.977 -0.86882,-4.43555 -0.0658,-0.26315 0.38731,-1.15141 0.89168,-2.10346 0.50438,-0.95205 1.04245,-1.95203 1.16605,-2.44641 0.16472,-0.65889 0.37794,-1.12283 0.64018,-1.44041 0.26224,-0.31757 0.58598,-0.5023 0.93741,-0.61732 0.70287,-0.23004 1.57385,-0.18197 2.58359,-0.43441 0.48859,-0.12214 0.79692,-0.43096 1.006,-0.84595 0.20909,-0.41499 0.31097,-0.93532 0.36582,-1.509 0.1097,-1.14737 0.0301,-2.47525 0.27437,-3.45241 0.25983,-1.0393 0.47474,-2.05995 0.61731,-3.13232 0.14258,-1.07237 0.22864,-2.2087 0.22864,-3.521 2e-5,-0.22255 4.6049,-2.52432 4.98428,-2.90369 0.65728,-0.65728 1.71124,-1.22506 2.69791,-1.80623 0.49333,-0.29058 0.97224,-0.57351 1.37182,-0.89168 0.39957,-0.31817 0.70327,-0.65204 0.89168,-1.02886 0.30299,-0.606 0.47567,-1.08727 0.54873,-1.48614 0.073,-0.39887 0.0607,-0.7281 -0.0228,-1.07459 -0.16702,-0.69298 -0.58442,-1.42312 -0.93741,-2.83509 -0.0806,-0.32245 -0.39575,-0.75514 -0.84596,-1.21178 -0.4502,-0.45663 -1.0256,-0.95504 -1.62331,-1.44041 -1.19543,-0.97074 -2.47361,-1.87915 -2.92655,-2.33209 -0.54125,-0.54124 -0.81229,-1.14117 -1.07459,-1.71477 -0.2623,-0.57361 -0.49827,-1.13845 -0.98314,-1.62332 -0.5534,-0.55343 -1.11562,-1.09276 -1.66905,-1.64619 -0.13171,-0.1317 -0.16869,-0.29206 -0.13718,-0.45727 0.0315,-0.16521 0.1321,-0.34261 0.2515,-0.52586 0.2388,-0.36651 0.57042,-0.75157 0.70877,-1.09746 l 3.31523,-10.79164 -0.41154,-7.47641 5.39582,3.33809 0.41155,-2.08059 2.92654,-2.90369 0.13718,-3.95541 c -0.80343,-0.18975 -1.8383,-0.7637 -2.2635,-1.18891 -0.62575,-0.62574 -0.30945,-2.01546 -0.91454,-2.46927 -0.73051,-0.5479 -2.38788,0.25424 -2.92655,-0.82309 -0.34331,-0.686616 -1.21242,-2.938308 -1.92055,-3.292369 -1.07628,-0.538156 -0.70324,-1.850581 -1.80622,-2.12632 -0.4547,-0.113674 -2.77131,0 -3.52101,0 -0.74814,0 -1.2181,0.617319 -1.96627,0.617319 -1.07595,0.20229 -1.90626,0.705334 -2.62932,1.509001 -0.90941,0.909373 -2.01456,0.03314 -2.40068,1.577591 -0.28467,1.138654 -1.41863,0.82416 -2.03487,1.44041 -0.65685,0.656828 -1.30195,0.813768 -1.66905,1.303228 -0.78853,1.05137 -0.55596,1.14931 -0.82309,2.21777 -0.0857,0.34309 -1.46813,-1.08844 -2.44641,-1.57759 -1.3898,-0.69489 -1.57168,-1.38878 -2.35495,-2.172044 -0.85627,-0.856249 -0.84673,-1.197894 -0.61732,-2.240638 0.18202,-0.827423 -1.21147,-2.751803 -1.32609,-2.972274 -0.27977,-0.538083 -0.85377,-0.619902 -1.41755,-0.663046 -0.55344,0.107602 -1.27415,0.07382 -2.03486,0.04573 -0.81197,-0.03 -1.63024,-0.01939 -2.21778,0.274364 -0.52267,0.261333 -1.34582,0.247293 -2.21777,0.2515 -0.87196,0.0044 -1.7924,0.01595 -2.49214,0.365818 -0.64129,0.320648 -0.95097,0.573823 -1.05173,0.800228 -0.10075,0.226405 -10e-4,0.437475 0.20577,0.663046 0.20732,0.225571 0.51732,0.482068 0.80023,0.800228 0.28292,0.318159 0.537,0.684753 0.66305,1.18891 0.14735,0.589392 0.21292,1.037709 0.18291,1.326091 -0.03,0.288382 -0.14294,0.43092 -0.32009,0.457273 -0.35431,0.05268 -0.97607,-0.381614 -1.73764,-1.143182 -0.0212,-0.02122 -3.09619,-2.659537 -3.13232,-2.515002 -0.12766,0.510617 -0.11237,0.967539 0,1.371819 0.11236,0.404281 0.29925,0.751303 0.503,1.074592 0.20375,0.323288 0.42507,0.624042 0.57159,0.891682 0.14653,0.26764 0.21937,0.517165 0.16005,0.754495 -0.34277,1.37106 -0.29723,1.1014 -0.29723,3.13232 0,0.99395 0.0256,1.77384 -0.16005,2.46928 -0.0928,0.34771 -0.25537,0.69098 -0.48013,1.006 -0.22477,0.31502 -0.52372,0.60427 -0.93741,0.91454 -0.18957,0.14218 -0.2355,0.3894 -0.22864,0.66305 0.007,0.27365 0.0716,0.58832 0.13718,0.89168 0.0656,0.30336 0.12762,0.59179 0.11432,0.82309 -0.0133,0.2313 -0.11307,0.39981 -0.34295,0.45728 -0.61015,0.15254 -1.04401,0.50419 -1.46328,0.91454 -0.41927,0.41036 -0.81004,0.87618 -1.34895,1.28037 -0.41869,0.31401 -0.8388,0.62339 -1.2575,0.93741 l -1.5776,3.45241 3.45242,3.7725 v 5.64732 l 1.89768,2.19491 h 1.55473 l -0.29723,6.28751 c -0.35393,-0.0885 -1.25905,-0.47556 -2.17205,-0.84596 -0.913,-0.3704 -1.85033,-0.73164 -2.24064,-0.73164 -0.6451,0 -1.35996,-0.20665 -1.98913,-0.27436 -0.31459,-0.0339 -0.59551,-0.0386 -0.84596,0.0457 -0.25044,0.0843 -0.47111,0.2563 -0.61732,0.54872 -0.13181,0.26364 -0.37225,0.4685 -0.66304,0.64019 -0.2908,0.17168 -0.62336,0.32263 -0.96028,0.48013 -0.33691,0.15751 -0.66722,0.32765 -0.93741,0.54873 -0.27018,0.22108 -0.48098,0.48353 -0.57159,0.84596 -0.41051,1.64205 -0.47271,2.19307 -0.70877,2.33209 -0.23606,0.13902 -0.64883,-0.13718 -1.80623,-0.13718 -0.72113,0 -1.3377,0.0836 -1.89768,0.27436 -0.55998,0.19074 -1.06161,0.49001 -1.55473,0.98314 -0.33197,0.33197 -1.03004,0.86632 -1.69191,1.48613 -0.33093,0.30991 -0.65696,0.65091 -0.91455,0.98314 -0.25758,0.33224 -0.4455,0.66166 -0.52586,0.98314 -0.16782,0.67129 -0.54339,1.39397 -0.91455,2.17205 -0.37115,0.77807 -0.75147,1.61118 -0.98313,2.53786 -0.18265,0.73057 -0.42112,1.36719 -0.45728,1.96627 -0.0181,0.29955 0.0191,0.59245 0.13719,0.89169 0.1181,0.29924 0.31953,0.5939 0.64018,0.91454 0.36796,0.36796 0.54832,0.65589 0.61732,0.89168 0.069,0.2358 0.0234,0.41887 -0.0686,0.61732 -0.092,0.19846 -0.22796,0.40709 -0.34295,0.66305 -0.11499,0.25596 -0.20578,0.55198 -0.20577,0.96027 0,0.59923 -0.11566,1.00892 -0.2515,1.30323 -0.13585,0.29432 -0.28717,0.47171 -0.41155,0.64018 -0.12438,0.16848 -0.21731,0.32704 -0.18291,0.54873 0.0344,0.22169 0.18537,0.50629 0.52586,0.96027 0.58919,0.78559 0.90987,1.67986 1.28037,2.46928 0.18525,0.39471 0.39652,0.76559 0.64018,1.09745 0.24367,0.33187 0.53707,0.61947 0.91455,0.84596 0.53951,0.3237 0.97176,0.48644 1.37182,0.57159 0.40005,0.0851 0.76486,0.0985 1.12031,0.0685 0.71091,-0.0599 1.41337,-0.24319 2.51501,-0.0228 0.47287,0.0946 0.65996,0.20035 0.93741,0.29722 0.8846,-0.025 2.11244,-0.15401 3.31522,-0.0915 0.65942,0.0343 1.27568,0.11234 1.80623,0.32009 0.53056,0.20776 0.96907,0.54345 1.21178,1.02886 0.16704,0.33409 0.21808,0.7169 0.20577,1.12032 -0.0123,0.40343 -0.0834,0.81725 -0.16005,1.23464 -0.0767,0.41739 -0.15688,0.83579 -0.18291,1.21177 -0.026,0.37599 -0.002,0.70392 0.13719,0.98314 0.32782,0.65565 0.9178,1.48055 1.64618,2.24064 0.72838,0.76009 1.58281,1.46588 2.49214,1.92055 0.87232,0.43615 1.49482,0.51747 2.14918,0.54872 0.65436,0.0312 1.34757,0.005 2.42355,0.27437 0.61906,0.15477 1.06026,0.12617 1.41754,0.0228 0.35728,-0.1033 0.6252,-0.2691 0.89169,-0.43441 0.26648,-0.1653 0.545,-0.31172 0.89168,-0.34295 0.34668,-0.0312 0.77395,0.044 1.37182,0.34295 0.43312,0.21656 0.98128,0.19924 1.57759,0.0915 0.59631,-0.10779 1.23475,-0.30729 1.82909,-0.48014 0.59435,-0.17285 1.15036,-0.31858 1.57759,-0.29722 0.21362,0.0107 0.385,0.0751 0.52587,0.1829 0.14087,0.10785 0.24974,0.26558 0.29722,0.503 0.13836,0.69178 0.2732,1.38882 0.41155,2.0806 0.48045,0.12011 0.94887,0.36951 1.39468,0.66304 0.44581,0.29354 0.86898,0.62611 1.30323,0.93741 0.43426,0.31131 0.88028,0.60395 1.32609,0.77737 0.44581,0.17342 0.89137,0.23443 1.37182,0.11431 0.69392,-0.17347 1.20769,-0.47512 1.64618,-0.80022 0.4385,-0.32511 0.80227,-0.69079 1.16605,-1.006 0.36378,-0.31521 0.74201,-0.56497 1.21177,-0.70878 0.46977,-0.1438 1.02691,-0.16625 1.78337,0.0228 0.45442,0.11361 1.10845,0.19721 1.71477,0.27436 z"
            style="fill:#fbeebe;fill-opacity:1;fill-rule:evenodd;stroke:#d39062;stroke-width:0.365818;stroke-linecap:butt;stroke-linejoin:miter;stroke-miterlimit:4;stroke-dasharray:none;stroke-opacity:1"
            id="Ninhue"
            inkscape:connector-curvature="0" />
        <path
            d="m 92.328518,195.1824 c -0.529127,-0.0645 -1.324724,-0.11643 -2.332093,-0.2515 -0.617545,-0.0828 -1.225959,-0.19224 -1.69191,-0.34295 -0.46595,-0.15072 -0.783429,-0.34438 -0.845955,-0.59446 -0.22102,-0.88408 -0.581578,-1.66989 -1.166046,-2.30923 -0.292238,-0.31967 -0.625732,-0.58343 -1.051728,-0.82309 -0.425995,-0.23965 -0.943519,-0.44737 -1.531864,-0.59445 -0.557303,-0.13933 -1.055599,-0.31039 -1.509001,-0.52587 -0.453403,-0.21547 -0.864436,-0.47393 -1.211774,-0.77736 -0.347337,-0.30343 -0.629719,-0.64854 -0.868818,-1.05173 -0.239099,-0.40319 -0.42004,-0.85706 -0.548728,-1.37182 -0.135667,-0.54268 -0.427408,-1.00732 -0.800228,-1.41755 -0.37282,-0.41022 -0.833063,-0.78092 -1.326091,-1.12031 -0.986057,-0.67879 -2.092709,-1.26962 -2.857957,-2.03487 -0.300476,-0.30048 -0.518013,-0.61336 -0.685909,-0.96027 -0.167896,-0.34692 -0.291543,-0.73681 -0.388682,-1.14319 -0.194279,-0.81276 -0.312256,-1.752 -0.594455,-2.88082 -0.332646,-1.3306 -0.35311,-1.8769 -0.228637,-2.33209 0.124474,-0.45519 0.413214,-0.80692 0.663046,-1.80623 0.07958,-0.31834 -0.01236,-0.64209 -0.160045,-0.96027 -0.147674,-0.31818 -0.359358,-0.64628 -0.571592,-0.96027 -0.212233,-0.31399 -0.411772,-0.60879 -0.525864,-0.91455 -0.114091,-0.30576 -0.146751,-0.62105 0,-0.91454 0.531783,-1.06358 1.092122,-1.43655 1.234638,-1.8291 0.07126,-0.19627 0.02634,-0.39858 -0.160046,-0.68591 -0.186392,-0.28732 -0.523669,-0.66085 -1.074592,-1.21177 -0.490811,-0.49081 -1.228191,-0.74379 -1.94341,-1.05173 -0.357609,-0.15396 -0.719345,-0.31996 -1.028864,-0.54872 -0.309519,-0.22877 -0.562541,-0.50777 -0.754501,-0.89169 -0.204485,-0.40897 -0.591667,-0.64813 -1.051727,-0.77736 -0.460061,-0.12923 -0.994463,-0.15588 -1.509001,-0.13718 -1.029077,0.0374 -1.971557,0.25325 -2.012002,0.0914 -0.168481,-0.6739 -0.282909,-1.94288 -0.457273,-3.13232 -0.08718,-0.59472 -0.194125,-1.17115 -0.320091,-1.64618 -0.125966,-0.47503 -0.26764,-0.8621 -0.457273,-1.05173 -0.565489,-0.56549 -0.926662,-0.81498 -1.188909,-0.89168 -0.262248,-0.0767 -0.446935,0.0223 -0.617319,0.22863 -0.170384,0.20635 -0.327422,0.51659 -0.617319,0.80023 -0.289896,0.28364 -0.705305,0.55358 -1.326091,0.70878 -1.004779,0.2512 -1.764342,0.40511 -2.469274,0.32009 -0.352466,-0.0425 -0.688332,-0.13353 -1.028865,-0.32009 -0.340533,-0.18657 -0.703973,-0.47534 -1.074591,-0.84596 -0.362475,-0.36247 -0.733283,-0.61553 -1.143183,-0.80023 -0.409899,-0.1847 -0.854727,-0.30078 -1.348955,-0.36582 -0.988456,-0.13006 -2.179561,-0.0686 -3.726775,-0.0686 -1.354516,0 -2.000141,-0.16332 -2.560729,-0.45727 -0.560587,-0.29396 -1.043138,-0.72735 -2.012001,-1.21178 -0.776808,-0.3884 -1.727782,-0.64889 -2.789365,-0.89168 -1.061583,-0.24279 -2.226678,-0.45378 -3.429548,-0.7545 -0.431131,-0.10778 -0.928154,-0.0825 -1.44041,0.0228 -0.512255,0.1054 -1.045472,0.29044 -1.531864,0.48013 -0.972792,0.37941 -1.784616,0.78848 -2.012002,0.73164 -0.383458,-0.0959 -1.599014,-0.54159 -2.835092,-0.84595 -0.618036,-0.15218 -1.230342,-0.25682 -1.760501,-0.27437 -0.530159,-0.0176 -0.970187,0.0557 -1.211774,0.29723 -0.549495,0.5495 -1.147609,0.92976 -1.737637,1.32609 -0.336085,4.0722 -0.682588,8.19409 -0.983137,11.68333 0.321898,0.74552 -1.27326,2.79727 -3.109456,3.68104 -0.0387,0.0187 -0.05356,0.0495 -0.09145,0.0686 0.385148,0.13854 0.712944,0.31278 1.120319,0.41154 0.340701,0.0826 0.659541,0.17837 0.868819,0.3201 0.209277,0.14172 0.307507,0.33727 0.2515,0.61731 -0.05626,0.28118 0.04617,1.78139 0.274364,3.06373 0.114091,0.64117 0.244791,1.21483 0.434409,1.5776 0.0948,0.18138 0.205846,0.32012 0.320091,0.36581 0.114245,0.0457 0.231775,-0.003 0.365818,-0.13718 0.35063,-0.35063 0.793168,-0.85069 1.18891,-1.18891 0.197871,-0.16911 0.393101,-0.29632 0.548728,-0.34295 0.155626,-0.0466 0.288111,-0.0182 0.365818,0.13718 0.269586,0.53917 0.484688,0.90694 0.845955,1.12032 0.361268,0.21337 0.853345,0.27436 1.69191,0.27436 0.491572,0 1.081813,-0.15868 1.623319,-0.29723 0.541507,-0.13855 1.03482,-0.25001 1.394683,-0.16004 0.824357,0.20609 1.308064,0.54931 1.806229,0.84595 0.249085,0.14833 0.519652,0.29032 0.823091,0.38869 0.303439,0.0984 0.649064,0.16004 1.097455,0.16004 0.365987,0 0.655137,-0.0768 0.891682,-0.20577 0.236546,-0.12903 0.412344,-0.31854 0.594455,-0.503 0.364216,-0.36892 0.70674,-0.76543 1.303228,-0.91455 0.911254,-0.22781 1.27277,-0.71182 1.669047,-0.89168 0.198134,-0.0899 0.409512,-0.10154 0.685909,0.0228 0.276398,0.1244 0.627657,0.39518 1.120319,0.86882 l -0.457273,8.34523 2.309229,3.72677 c 0.341535,0.17077 0.271327,0.0352 0.205773,-0.0457 -0.06555,-0.0809 -0.133414,-0.11055 0.2515,0.27436 0.403798,0.4038 0.550813,0.73405 0.548727,1.02886 -0.0022,0.29482 -0.145303,0.56377 -0.320091,0.77737 -0.174788,0.21359 -0.365811,0.38857 -0.480136,0.54873 -0.114326,0.16015 -0.156454,0.29992 0.02283,0.4344 0.66276,0.49708 1.043921,0.78028 1.211773,0.96028 0.167852,0.18 0.11922,0.25922 0,0.29723 -0.11922,0.038 -0.327415,0.0432 -0.525864,0.11431 -0.198449,0.0711 -0.387438,0.20081 -0.457273,0.48014 -0.10338,0.41351 -0.223017,1.01795 -0.525864,1.41755 -0.151419,0.1998 -0.342179,0.33726 -0.594455,0.38868 -0.252275,0.0514 -0.573149,0.0107 -0.960273,-0.18291 -0.311143,-0.15557 -0.564516,-0.22303 -0.777364,-0.20577 -0.212848,0.0173 -0.386853,0.12869 -0.548728,0.27436 -0.323749,0.29134 -0.579295,0.78764 -0.983137,1.32609 -0.185521,0.24736 -0.514135,0.74323 -0.777364,1.28037 -0.263228,0.53713 -0.466564,1.11958 -0.388682,1.509 0.132551,0.66273 0.432624,1.16042 0.663046,1.62332 0.230422,0.4629 0.377283,0.89156 0.2515,1.39468 -0.08582,0.34328 -0.40589,0.88327 -0.548727,1.39468 -0.07141,0.25571 -0.09789,0.50765 -0.02283,0.70877 0.07502,0.20113 0.243005,0.35227 0.571591,0.43441 0.245457,0.0614 0.998911,0.39624 1.69191,0.80023 0.346503,0.20199 0.692875,0.41533 0.93741,0.64018 0.244535,0.22486 0.388682,0.4572 0.388682,0.66305 0,0.36324 0.08254,0.63757 0.205773,0.86882 0.123229,0.23125 0.299971,0.41583 0.503,0.57159 0.406066,0.31152 0.929932,0.52026 1.394682,0.86882 0.604435,0.45332 0.946124,0.70991 1.143183,1.006 0.197059,0.29609 0.2515,0.64267 0.2515,1.32609 0,0.66012 0.343628,1.35906 0.663046,1.89768 0.319418,0.53863 0.597257,0.92097 0.480137,0.89169 -0.309483,-0.0774 -0.605079,-0.15128 -0.914546,-0.22864 v 10.19719 c 0.2708,0.15474 0.515328,0.43146 0.777364,0.64018 0.262035,0.20872 0.540123,0.3584 0.845955,0.29723 0.46497,0.34872 1.036071,0.58602 1.669046,0.70877 0.632976,0.12275 1.317942,0.12052 2.034865,-0.0228 0.727986,-0.14559 1.090658,-0.37588 1.463274,-0.57159 0.372615,-0.19571 0.755715,-0.34296 1.554728,-0.34295 0.749298,0 1.157471,0.10805 1.257501,0.34295 0.100029,0.2349 -0.09566,0.59866 -0.548728,1.05173 -0.690051,0.69005 -0.927298,1.61321 -1.623319,2.30923 -0.665197,0.6652 -0.861627,0.85459 -0.731637,0.96027 0.12999,0.10569 0.579456,0.12968 1.18891,0.43441 0.734834,0.36742 1.218775,0.68067 1.714774,0.80023 0.495998,0.11956 0.997652,0.0385 1.760501,-0.34296 0.486319,-0.24316 0.889604,-0.57735 1.348955,-0.77736 0.229675,-0.10001 0.482566,-0.16528 0.7545,-0.16005 0.271935,0.005 0.567685,0.0781 0.914547,0.2515 0.420976,0.21049 0.994345,0.61358 1.554728,0.84596 0.280195,0.11619 0.572703,0.19211 0.823091,0.18291 0.250388,-0.009 0.462709,-0.12111 0.640182,-0.34296 0.328776,-0.41097 0.794807,-1.03382 1.234637,-1.28036 0.04887,-0.0274 0.08947,0.0171 0.137182,0 0.143789,-0.17744 0.255802,-0.38429 0.411546,-0.54873 0.507741,-0.53606 1.087307,-1.00092 1.783365,-1.34895 0.912102,-0.45605 1.146621,-0.76898 1.463273,-0.89169 0.316653,-0.12271 0.713675,-0.0674 1.989138,0.2515 0.900557,0.22514 1.633116,0.37389 2.286365,0.38869 0.653249,0.0148 1.237571,-0.10436 1.806228,-0.38869 0.929472,-0.46473 1.473034,-0.84397 2.149183,-1.12031 0.67615,-0.27634 1.467759,-0.43441 2.857957,-0.43441 1.006168,0 1.551589,-0.16071 1.966273,-0.43441 0.414685,-0.27371 0.713632,-0.66791 1.18891,-1.14319 0.580305,-0.58031 1.220736,-0.99602 1.87482,-1.37181 0.654083,-0.37579 1.303264,-0.71453 1.874819,-1.14319 0.182587,-0.13694 0.318635,-0.42169 0.411546,-0.80022 0.09291,-0.37854 0.157382,-0.83537 0.205772,-1.30323 0.09679,-0.93572 0.15322,-1.9069 0.342955,-2.28637 0.590094,-1.1802 0.724862,-2.70723 1.257501,-3.7725 0.345157,-0.69031 0.625798,-1.2088 0.960273,-1.64618 0.334475,-0.43739 0.719565,-0.77974 1.234637,-1.16605 0.745319,-0.55898 1.260903,-0.63978 1.646183,-0.84595 0.19264,-0.10309 0.339919,-0.22617 0.480137,-0.48014 0.140218,-0.25397 0.275834,-0.62468 0.388682,-1.18891 0.06438,-0.32204 0.229902,-0.59972 0.457273,-0.84596 0.227371,-0.24623 0.502788,-0.46927 0.800228,-0.66304 0.594879,-0.38755 1.236897,-0.68816 1.554728,-1.006 0.348559,-0.34855 0.670428,-0.97935 0.937409,-1.60046 0.266982,-0.62111 0.486583,-1.24753 0.640183,-1.55473 0.02144,-0.0429 -2.753896,-2.11372 -2.835093,-2.19491 -0.709688,-0.70968 -1.52307,-1.00206 -2.103456,-1.32609 -0.290196,-0.16201 -0.505349,-0.31775 -0.640182,-0.54873 -0.08226,-0.1409 -0.04595,-0.37104 -0.04573,-0.57159 z"
            style="fill:#fbeebe;fill-opacity:1;fill-rule:evenodd;stroke:#d39062;stroke-width:0.365818;stroke-linecap:butt;stroke-linejoin:miter;stroke-miterlimit:4;stroke-dasharray:none;stroke-opacity:1"
            id="Coelemu"
            inkscape:connector-curvature="0" />
        <path
            d="m 112.72289,157.8232 -0.36581,0.0685 c 0.21022,0.0525 0.3217,0.11719 0.34295,0.18291 0.0212,0.0657 -0.0562,0.12706 -0.18291,0.20577 -0.25343,0.15742 -0.74974,0.34032 -1.34895,0.54873 -0.59922,0.20841 -1.30366,0.45069 -1.92055,0.70877 -0.6169,0.25809 -1.15681,0.5395 -1.46327,0.84596 -0.572,0.572 -1.03447,0.89611 -1.44041,1.05173 -0.40595,0.15561 -0.75246,0.14581 -1.09746,0 -0.69001,-0.29164 -1.36962,-1.06724 -2.44641,-1.87482 -0.19581,-0.14686 -0.10961,-0.45342 0.11432,-0.82309 0.22392,-0.36968 0.60326,-0.81298 1.006,-1.25751 0.80547,-0.88905 1.73105,-1.77987 1.80623,-2.08059 0.10743,-0.42972 0.0104,-0.81709 -0.18291,-1.18891 -0.19328,-0.37182 -0.48233,-0.71863 -0.84596,-1.05173 -0.72724,-0.66619 -1.68279,-1.27124 -2.30923,-1.89768 -0.56788,-0.56788 -1.05719,-0.86868 -1.48613,-0.96027 -0.42895,-0.0916 -0.7989,0.0146 -1.143186,0.2515 -0.688573,0.47378 -1.24488,1.45407 -1.920547,2.35495 -0.39073,0.52097 -4.194173,2.72265 -4.984275,3.31523 -0.478505,0.35888 -0.950316,0.61825 -1.394683,0.7545 -0.444367,0.13626 -0.865124,0.16751 -1.257501,0.0915 -0.392377,-0.076 -0.752049,-0.27068 -1.074591,-0.54873 -0.322542,-0.27804 -0.6111,-0.6506 -0.845955,-1.12032 -0.578996,-1.15799 -0.622674,-1.80354 -0.914546,-2.35495 -0.145933,-0.27571 -0.363236,-0.51826 -0.731637,-0.80023 -0.368401,-0.28197 -0.882018,-0.58963 -1.669047,-0.98314 -0.161494,-0.0807 -0.259358,-0.19524 -0.297227,-0.32009 -0.0379,-0.12485 -0.03044,-0.27518 0.02283,-0.43441 0.106643,-0.31847 0.363411,-0.69974 0.640182,-1.09745 0.276771,-0.39771 0.58997,-0.81256 0.777364,-1.21178 0.187394,-0.39921 0.252956,-0.77446 0.09146,-1.09745 -0.615292,-1.23059 -0.953711,-2.14207 -1.234637,-3.17805 -0.280927,-1.03598 -0.486773,-2.20521 -0.823092,-3.88682 -0.07591,-0.3796 -3.102835,-2.66841 -3.749638,-3.31523 -0.164728,-0.16473 -0.239458,-0.52666 -0.2515,-0.98314 -0.01207,-0.45647 0.03731,-1.00851 0.114318,-1.57759 0.154024,-1.13816 0.420289,-2.32132 0.548728,-2.83509 0.08637,-0.34549 0.09179,-0.61546 0.02283,-0.82309 -0.06892,-0.20763 -0.202218,-0.35975 -0.388682,-0.45728 -0.372923,-0.19505 -0.938251,-0.19315 -1.554729,-0.11431 -1.232954,0.15768 -2.669259,0.65048 -3.063729,0.57159 -1.423231,-0.28465 -2.200544,-0.32284 -2.812229,-0.11432 -0.611685,0.20852 -1.041865,0.65318 -1.737637,1.34895 -0.267838,0.26784 -0.263558,0.59194 -0.160046,0.91455 0.103512,0.32261 0.302503,0.64119 0.388682,0.93741 0.08618,0.29623 0.06834,0.56581 -0.2515,0.7545 -0.319842,0.18869 -0.943189,0.29723 -2.057728,0.29723 -0.285917,0 -0.504281,0.19001 -0.708773,0.43441 -0.204493,0.24439 -0.404171,0.54667 -0.640183,0.84595 -0.236011,0.29929 -0.511224,0.58984 -0.891682,0.7545 -0.380458,0.16467 -0.848289,0.20519 -1.486137,0.0457 -1.211049,-0.30277 -1.736284,-0.74019 -2.103456,-0.77736 -0.183582,-0.0186 -0.320852,0.0748 -0.503,0.32009 -0.182149,0.24528 -0.411239,0.63957 -0.731637,1.28036 -0.302934,0.60586 -0.490599,1.04079 -0.663046,1.34896 -0.172447,0.30816 -0.324408,0.50936 -0.548728,0.61732 -0.448632,0.2159 -1.176281,0.11431 -2.926547,0.11431 -0.298559,0 -0.653644,-0.17317 -1.028864,-0.45727 -0.37522,-0.2841 -0.779874,-0.68128 -1.18891,-1.07459 -0.409036,-0.39331 -0.811758,-0.7927 -1.211773,-1.12032 -0.400015,-0.32762 -0.795033,-0.57601 -1.143183,-0.66305 -0.09726,-0.0243 -3.212076,-4.05803 -3.315229,-4.16118 -0.327612,-0.32761 -0.807149,-0.40838 -1.348955,-0.36582 -0.541807,0.0426 -1.142583,0.22991 -1.714774,0.45728 -1.14439,0.45471 -2.169003,1.08449 -2.332092,1.16604 -1.040937,0.52047 -1.87651,0.81398 -2.446411,1.30323 -0.284951,0.24463 -0.491528,0.55057 -0.640182,0.93741 -0.148654,0.38684 -0.228637,0.85707 -0.228637,1.48614 0,1.37792 0.178944,2.00934 0.06855,2.44641 -0.05517,0.21853 -0.187358,0.4024 -0.457273,0.59445 -0.269916,0.19205 -0.670941,0.40406 -1.280365,0.70877 -0.420793,0.2104 -0.8611,0.2406 -1.303228,0.16005 -0.442128,-0.0805 -0.893775,-0.27139 -1.348955,-0.503 -0.910361,-0.46321 -1.830811,-1.09788 -2.743638,-1.32609 -0.307785,-0.077 -0.711378,0.011 -1.166046,0.16004 -0.454669,0.14899 -0.957076,0.35936 -1.509001,0.5716 -0.551925,0.21223 -1.138098,0.41308 -1.737638,0.52586 -0.538828,0.10135 -1.084088,0.10374 -1.623319,0 -0.829215,1.37034 -1.735962,2.73958 -2.835092,4.13832 -0.26407,2.68639 -0.501252,5.73401 -0.754501,8.80251 0.590029,-0.39633 1.188142,-0.7766 1.737638,-1.3261 0.241586,-0.24158 0.681614,-0.31478 1.211773,-0.29722 0.530159,0.0176 1.142466,0.12218 1.760501,0.27436 1.236079,0.30436 2.451635,0.75009 2.835093,0.84595 0.227385,0.0568 1.039209,-0.35223 2.012001,-0.73163 0.486392,-0.1897 1.019609,-0.37473 1.531865,-0.48014 0.512255,-0.10541 1.009278,-0.13065 1.440409,-0.0228 1.20287,0.30072 2.367965,0.51172 3.429548,0.7545 1.061583,0.24279 2.012557,0.50328 2.789365,0.89169 0.968863,0.48443 1.451414,0.91781 2.012001,1.21177 0.560588,0.29396 1.206213,0.45727 2.560729,0.45727 1.547215,0 2.738319,-0.0615 3.726775,0.0686 0.494228,0.065 0.939056,0.18111 1.348956,0.36582 0.409899,0.1847 0.780707,0.43775 1.143182,0.80022 0.370618,0.37062 0.734059,0.65939 1.074592,0.84596 0.340533,0.18657 0.676398,0.27758 1.028864,0.32009 0.704932,0.085 1.464495,-0.0689 2.469274,-0.32009 0.620787,-0.1552 1.036195,-0.42513 1.326092,-0.70877 0.289896,-0.28365 0.446935,-0.59389 0.617318,-0.80023 0.170384,-0.20635 0.355071,-0.30534 0.617319,-0.22864 0.262248,0.0767 0.62342,0.32619 1.18891,0.89168 0.189633,0.18964 0.331307,0.5767 0.457273,1.05173 0.125966,0.47503 0.232909,1.05147 0.320091,1.64618 0.174363,1.18944 0.288791,2.45842 0.457273,3.13232 0.04046,0.1618 0.982925,-0.0541 2.012001,-0.0915 0.514538,-0.0187 1.04894,0.008 1.509001,0.13718 0.46006,0.12923 0.847243,0.36839 1.051728,0.77737 0.191959,0.38392 0.444981,0.66291 0.7545,0.89168 0.309519,0.22877 0.671255,0.39476 1.028864,0.54873 0.715219,0.30793 1.452599,0.56091 1.943411,1.05172 0.550922,0.55093 0.888199,0.92445 1.074591,1.21178 0.186392,0.28733 0.2313,0.48963 0.160046,0.68591 -0.142516,0.39254 -0.702854,0.76552 -1.234637,1.82909 -0.146752,0.2935 -0.114092,0.60879 0,0.91454 0.114091,0.30576 0.31363,0.60056 0.525864,0.91455 0.212233,0.31399 0.423917,0.64209 0.571591,0.96027 0.147673,0.31819 0.239626,0.64194 0.160045,0.96028 -0.249832,0.9993 -0.538572,1.35104 -0.663045,1.80623 -0.124474,0.45518 -0.10401,1.00148 0.228636,2.33209 0.2822,1.12881 0.400176,2.06806 0.594455,2.88082 0.09714,0.40638 0.220786,0.79627 0.388682,1.14318 0.167896,0.34691 0.385434,0.6598 0.68591,0.96027 0.765248,0.76525 1.8719,1.35609 2.857956,2.03487 0.493028,0.33939 0.953271,0.7101 1.326092,1.12032 0.37282,0.41022 0.66456,0.87487 0.800227,1.41754 0.128688,0.51476 0.309629,0.96863 0.548728,1.37182 0.239099,0.40319 0.521481,0.7483 0.868819,1.05173 0.347337,0.30343 0.75837,0.56189 1.211773,0.77736 0.453403,0.21548 0.951699,0.38654 1.509001,0.52587 0.588346,0.14709 1.105869,0.3548 1.531864,0.59445 0.425996,0.23966 0.759491,0.50343 1.051728,0.8231 0.584468,0.63933 0.945026,1.42514 1.166047,2.30922 0.06255,0.25008 0.380004,0.44374 0.845955,0.59446 0.46595,0.15072 1.074364,0.26015 1.69191,0.34295 1.007368,0.13508 1.802965,0.18707 2.332092,0.2515 1.54e-4,-0.12818 -0.06285,-0.20587 -0.02283,-0.36581 0.09898,-0.39592 0.331658,-0.60726 0.640182,-0.68591 0.308524,-0.0787 0.694653,-0.0426 1.074592,0.0685 0.75987,0.22227 1.520897,0.69781 1.737637,0.91455 0.39801,0.39801 0.816858,0.67643 1.257501,0.86881 0.440643,0.19239 0.895896,0.30832 1.371819,0.36582 0.951845,0.11502 1.969105,0.0228 3.017995,0.0228 1.62573,0 3.00236,0.32009 4.70992,0.32009 1.10556,0 1.61224,-0.0118 2.05772,-0.13718 0.44549,-0.12543 0.83409,-0.35989 1.71478,-0.80023 0.80723,-0.40362 1.15077,-0.33747 1.44041,-0.43441 0.28963,-0.0969 0.52822,-0.37054 1.07459,-1.46327 0.31994,-0.6399 0.46158,-1.20624 0.57159,-1.80623 0.11001,-0.59999 0.18374,-1.21508 0.36582,-1.94341 0.0552,-0.22066 0.18647,-0.37439 0.36582,-0.503 0.17934,-0.12861 0.40886,-0.24845 0.64018,-0.38868 0.23132,-0.14024 0.47483,-0.29321 0.68591,-0.54873 0.21108,-0.25552 0.38438,-0.60012 0.503,-1.07459 0.10129,-0.40513 0.0822,-0.68778 0,-0.91455 -0.0822,-0.22676 -0.22095,-0.39522 -0.34296,-0.57159 -0.122,-0.17637 -0.23348,-0.36337 -0.2515,-0.61732 -0.018,-0.25394 0.0446,-0.59224 0.27437,-1.05173 0.23346,-0.4669 0.51938,-0.78473 0.82309,-1.02886 0.30371,-0.24412 0.63082,-0.40604 0.93741,-0.57159 0.30659,-0.16555 0.60385,-0.31756 0.84595,-0.54873 0.24211,-0.23117 0.43848,-0.54214 0.54873,-0.98314 0.33795,-1.35177 0.22385,-2.49584 0.61732,-4.06972 0.157,-0.62799 0.58475,-1.29008 1.02886,-1.85196 0.44412,-0.56188 0.9014,-1.03857 1.16605,-1.30323 0.94019,-0.94018 1.14611,-0.85915 1.32609,-0.98314 0.17999,-0.12399 0.33691,-0.44516 1.18891,-2.14918 0.17153,-0.34307 0.27554,-0.7112 0.32009,-1.07459 0.0446,-0.36339 0.0258,-0.717 -0.0228,-1.07459 -0.0974,-0.71518 -0.34966,-1.40808 -0.61732,-1.94341 -0.29642,-0.59283 -0.38784,-1.05433 -0.43441,-1.44041 -0.0466,-0.38608 -0.0471,-0.69296 -0.0915,-0.93741 -0.0443,-0.24445 -0.14481,-0.42654 -0.43441,-0.59446 -0.28959,-0.16791 -0.77226,-0.32364 -1.55472,-0.48013 -1.10164,-0.22033 -1.8041,-0.0371 -2.51501,0.0228 -0.35545,0.03 -0.72026,0.0165 -1.12031,-0.0686 -0.40006,-0.0851 -0.83231,-0.24789 -1.37182,-0.57159 -0.37748,-0.22649 -0.67088,-0.51409 -0.91455,-0.84596 -0.24366,-0.33186 -0.45493,-0.70274 -0.64018,-1.09745 -0.3705,-0.78942 -0.69118,-1.68369 -1.28037,-2.46928 -0.19407,-0.25876 -0.21278,-0.3803 -0.29722,-0.54872 z"
            style="fill:#fbeebe;fill-opacity:1;fill-rule:evenodd;stroke:#d39062;stroke-width:0.365818;stroke-linecap:butt;stroke-linejoin:miter;stroke-miterlimit:4;stroke-dasharray:none;stroke-opacity:1"
            id="Treguaco"
            inkscape:connector-curvature="0" />
        <path
            d="m 96.741202,43.825037 c -0.04112,0.111267 -0.133333,0.236094 -0.160045,0.342955 -0.169813,0.679248 -0.860164,1.755333 -1.166047,2.743638 -0.152941,0.494153 -0.202882,0.955482 -0.04573,1.348955 0.07858,0.196737 0.212431,0.37654 0.411546,0.525864 0.199115,0.149324 0.451895,0.278736 0.800228,0.365819 0.354902,0.08872 1.250733,-0.06451 2.126319,-0.160046 0.43779,-0.04777 0.873457,-0.08224 1.234637,-0.06859 0.36118,0.01364 0.65352,0.08193 0.80023,0.228637 0.39771,0.397704 0.74874,1.235732 1.18891,2.080592 0.22009,0.42243 0.45135,0.849772 0.73164,1.211773 0.28028,0.362002 0.60961,0.659194 0.98313,0.845955 0.38662,0.193307 1.84951,1.126428 2.74364,2.012001 0.44707,0.442787 0.75161,0.868902 0.70878,1.18891 -0.0214,0.160004 -0.14484,0.296353 -0.36582,0.388682 -0.22099,0.09233 -0.53405,0.160046 -1.006,0.160046 -2.07534,0 -4.16643,10e-7 -6.241783,0 -0.493116,0 -1.890952,-0.173967 -3.246638,-0.2515 -0.677847,-0.03877 -1.339108,-0.05194 -1.874819,-0.02286 -0.535712,0.02907 -0.942385,0.119296 -1.097456,0.274364 -0.402254,0.402256 -0.954522,1.135186 -1.600455,1.874819 -0.645933,0.739633 -1.376699,1.477143 -2.12632,1.851956 -0.700878,0.35044 -1.278469,0.894251 -1.851955,1.44041 -0.573486,0.546159 -1.156901,1.092881 -1.897683,1.463273 -0.688353,0.34418 -1.675207,1.041501 -2.675047,1.714774 -0.99984,0.673273 -2.012623,1.317193 -2.720775,1.600456 -0.750286,0.300114 -1.918805,0.662724 -3.200911,0.868818 -0.641052,0.103047 -1.311612,0.179573 -1.966274,0.182909 -0.654661,0.0034 -1.286107,-0.0586 -1.874819,-0.205772 -0.303263,-0.07581 -1.519529,-0.872733 -2.720774,-1.348956 -0.600623,-0.238111 -1.206469,-0.384841 -1.69191,-0.342954 -0.242721,0.02095 -0.445852,0.09018 -0.617319,0.228636 -0.171466,0.138456 -0.293906,0.329676 -0.365818,0.617319 -0.164092,0.656377 -0.207105,1.275266 -0.160046,1.851955 0.04704,0.57669 0.1753,1.117439 0.320091,1.669047 0.144791,0.551607 0.305305,1.110779 0.43441,1.69191 0.129104,0.581131 0.228636,1.186694 0.228636,1.851955 0,0.744905 0.09955,1.218618 0.274364,1.509001 0.174817,0.290383 0.427869,0.396299 0.7545,0.43441 0.653264,0.07622 1.575375,-0.143454 2.697911,0.137182 0.79139,0.197846 1.88485,0.472058 2.903684,0.868818 0.509416,0.198381 1.008598,0.417207 1.44041,0.68591 0.431812,0.268703 0.78716,0.584653 1.051728,0.937409 0.388674,0.518231 0.796372,1.430249 1.211773,2.332093 0.415401,0.901844 0.840234,1.777646 1.280364,2.217774 0.262914,0.262915 0.658495,0.453436 1.097456,0.617318 0.43896,0.163883 0.916177,0.308924 1.348955,0.480137 0.432778,0.17121 0.83021,0.378139 1.074591,0.663046 0.244382,0.284907 0.354881,0.638214 0.228637,1.143182 -0.127605,0.510427 -0.634644,1.398414 -1.006001,2.332093 -0.185682,0.466835 -0.349232,0.938514 -0.411545,1.394682 -0.06234,0.456169 -0.02385,0.889671 0.160045,1.257501 0.221767,0.443526 1.054399,1.867576 1.829092,3.246638 0.774694,1.379063 1.486137,2.728911 1.486137,2.995138 0,0.472667 -0.120273,0.976867 -0.297227,1.486138 -0.176954,0.50927 -0.392743,1.02086 -0.617319,1.508993 -0.224575,0.48815 -0.451588,0.93968 -0.594454,1.34897 -0.142867,0.40927 -0.205356,0.77902 -0.137182,1.05173 0.212818,0.85126 0.448274,1.33698 0.731636,1.62332 0.283363,0.28633 0.611181,0.35485 0.960274,0.38868 0.349093,0.0338 0.733158,0.0206 1.143182,0.11432 0.410024,0.0938 0.837088,0.31123 1.303228,0.77736 0.71936,0.71936 1.258211,1.56816 1.554729,2.49214 0.148258,0.46198 0.231233,0.93215 0.2515,1.41754 0.02027,0.4854 -0.01463,0.99584 -0.137182,1.48614 -0.105502,0.42202 -0.452298,1.51302 -0.754501,2.58359 -0.302202,1.07058 -0.572118,2.10133 -0.503,2.37782 0.262563,1.05024 0.544455,1.44443 0.663046,1.89769 0.118591,0.45325 0.09322,0.97609 -0.228637,2.2635 -0.08639,0.34557 -0.284343,0.64409 -0.525864,0.89168 -0.24152,0.24759 -0.542025,0.45371 -0.845955,0.61732 -0.607858,0.32722 -1.253491,0.49627 -1.554728,0.57159 -1.357684,0.33942 -1.712301,0.32664 -1.966274,0.54873 -0.253973,0.22209 -0.40199,0.68078 -1.348955,1.94341 -0.967056,1.2894 -1.32149,1.75694 -1.463274,2.03486 -0.141784,0.27792 -0.05685,0.36444 -0.182909,0.86882 -0.125834,0.50334 -0.566353,1.03272 -1.097455,1.55473 -0.296013,0.29094 -0.629083,0.54458 -0.960273,0.82309 0.294286,0.009 0.642925,-0.0376 0.845955,0.0686 0.186465,0.0975 0.319754,0.24965 0.388682,0.45728 0.06892,0.20763 0.06351,0.4776 -0.02283,0.82309 -0.128439,0.51377 -0.394704,1.69693 -0.548728,2.83509 -0.07701,0.56908 -0.126361,1.12112 -0.114318,1.57759 0.01207,0.45648 0.08677,0.81841 0.2515,0.98314 0.646803,0.64682 3.673724,2.93563 3.749639,3.31523 0.336318,1.68161 0.542164,2.85084 0.823091,3.88682 0.280927,1.03598 0.619345,1.94746 1.234637,3.17805 0.161502,0.32299 0.09594,0.69824 -0.09146,1.09745 -0.187394,0.39922 -0.500593,0.81407 -0.777364,1.21178 -0.276771,0.39771 -0.533538,0.77898 -0.640182,1.09745 -0.05334,0.15923 -0.06073,0.30956 -0.02283,0.43441 0.0379,0.12485 0.135733,0.23934 0.297228,0.32009 0.787029,0.39351 1.300645,0.70117 1.669046,0.98314 0.368401,0.28197 0.585705,0.52452 0.731637,0.80023 0.291872,0.55141 0.33555,1.19696 0.914546,2.35495 0.234855,0.46972 0.523413,0.84228 0.845955,1.12032 0.322542,0.27805 0.682215,0.47268 1.074591,0.54873 0.392377,0.0761 0.813134,0.0448 1.257501,-0.0915 0.444367,-0.13625 0.916178,-0.39562 1.394683,-0.7545 0.790102,-0.59258 4.593545,-2.79426 4.984276,-3.31523 0.675666,-0.90088 1.231973,-1.88117 1.920546,-2.35495 0.344287,-0.23689 0.714247,-0.34309 1.143187,-0.2515 0.42894,0.0916 0.91826,0.39239 1.48614,0.96027 0.62643,0.62644 1.58199,1.23149 2.30923,1.89768 0.36362,0.3331 0.65267,0.67991 0.84595,1.05173 0.19328,0.37182 0.29034,0.75919 0.18291,1.18891 -0.0752,0.30072 -1.00076,1.19154 -1.80623,2.08059 -0.40274,0.44453 -0.78207,0.88783 -1.006,1.25751 -0.22392,0.36967 -0.31013,0.67623 -0.11432,0.82309 1.07679,0.80758 1.75641,1.58318 2.44641,1.87482 0.34501,0.14581 0.69151,0.15561 1.09746,0 0.40595,-0.15562 0.86841,-0.47973 1.44041,-1.05173 0.30646,-0.30646 0.84638,-0.58787 1.46327,-0.84596 0.6169,-0.25808 1.32133,-0.50036 1.92055,-0.70877 0.59922,-0.20841 1.09552,-0.39131 1.34895,-0.54873 0.12672,-0.0787 0.20416,-0.14005 0.18291,-0.20577 -0.0212,-0.0657 -0.13272,-0.13036 -0.34295,-0.18291 l 0.36582,-0.0685 c -0.0637,-0.12706 -0.21385,-0.31622 -0.22864,-0.41155 -0.0344,-0.22169 0.0585,-0.38025 0.18291,-0.54873 0.12438,-0.16847 0.2757,-0.34586 0.41155,-0.64018 0.13584,-0.29431 0.2515,-0.704 0.2515,-1.30323 -1e-5,-0.40829 0.0908,-0.70431 0.20577,-0.96027 0.11499,-0.25596 0.25096,-0.46459 0.34295,-0.66305 0.092,-0.19845 0.13759,-0.38152 0.0686,-0.61732 -0.069,-0.23579 -0.24936,-0.52372 -0.61732,-0.89168 -0.32065,-0.32064 -0.52208,-0.6153 -0.64018,-0.91454 -0.1181,-0.29924 -0.15526,-0.59214 -0.13719,-0.89169 0.0361,-0.59908 0.27463,-1.2357 0.45728,-1.96627 0.23166,-0.92668 0.61198,-1.75979 0.98313,-2.53786 0.37116,-0.77808 0.74673,-1.50076 0.91455,-2.17205 0.0804,-0.32148 0.26828,-0.6509 0.52586,-0.98314 0.25759,-0.33223 0.58362,-0.67323 0.91455,-0.98314 0.66187,-0.61981 1.35994,-1.15416 1.69191,-1.48613 0.49312,-0.49313 0.99475,-0.7924 1.55473,-0.98314 0.55998,-0.19074 1.17655,-0.27436 1.89768,-0.27436 1.1574,0 1.57017,0.2762 1.80623,0.13718 0.23606,-0.13902 0.29826,-0.69004 0.70877,-2.33209 0.0906,-0.36243 0.30141,-0.62488 0.57159,-0.84596 0.27019,-0.22108 0.6005,-0.39122 0.93741,-0.54873 0.33692,-0.1575 0.66948,-0.30845 0.96028,-0.48013 0.29079,-0.17169 0.53123,-0.37655 0.66304,-0.64019 0.14621,-0.29242 0.36688,-0.46445 0.61732,-0.54872 0.25045,-0.0843 0.53137,-0.0796 0.84596,-0.0457 0.62917,0.0677 1.34403,0.27436 1.98913,0.27436 0.39031,0 1.32764,0.36124 2.24064,0.73164 0.913,0.3704 1.81812,0.75747 2.17205,0.84596 l 0.29723,-6.28751 h -1.55473 l -1.89768,-2.19491 v -5.64732 l -3.45242,-3.7725 1.5776,-3.45241 c 0.4187,-0.31402 0.83881,-0.6234 1.2575,-0.93741 0.53891,-0.40419 0.92968,-0.87001 1.34895,-1.28037 0.41927,-0.41035 0.85313,-0.762 1.46328,-0.91454 0.22988,-0.0575 0.32965,-0.22598 0.34295,-0.45728 0.0133,-0.2313 -0.0487,-0.51973 -0.11432,-0.82309 -0.0656,-0.30336 -0.13032,-0.61803 -0.13718,-0.89168 -0.007,-0.27365 0.0391,-0.52087 0.22864,-0.66305 0.41369,-0.31027 0.71264,-0.59952 0.93741,-0.91454 0.22476,-0.31502 0.3873,-0.65829 0.48013,-1.006 0.18568,-0.69544 0.16005,-1.47533 0.16005,-2.46928 0,-2.03092 -0.0455,-1.76126 0.29723,-3.13232 0.0593,-0.23733 -0.0135,-0.486863 -0.16005,-0.754503 -0.14652,-0.26764 -0.36784,-0.568394 -0.57159,-0.891682 -0.20375,-0.323289 -0.39064,-0.670311 -0.503,-1.074592 -0.11237,-0.40428 -0.12766,-0.861202 0,-1.371819 0.0361,-0.144535 3.11112,2.493799 3.13232,2.515002 0.76157,0.761568 1.38333,1.195889 1.73764,1.143182 0.17715,-0.02634 0.29008,-0.168891 0.32009,-0.457273 0.03,-0.288382 -0.0356,-0.736699 -0.18291,-1.326091 -0.12605,-0.504157 -0.38013,-0.870751 -0.66305,-1.18891 -0.28291,-0.31816 -0.59291,-0.574657 -0.80023,-0.800228 -0.20731,-0.225571 -0.30652,-0.436641 -0.20577,-0.663046 0.10076,-0.226405 0.41044,-0.47958 1.05173,-0.800228 0.69974,-0.349876 1.62018,-0.361611 2.49214,-0.365818 0.87195,-0.0044 1.6951,0.0098 2.21777,-0.2515 0.58754,-0.293774 1.40581,-0.304354 2.21778,-0.274364 0.76071,0.0281 1.48142,0.0619 2.03486,-0.04573 -0.68855,-0.05268 -1.36804,-0.042 -1.55473,-0.663046 -0.49952,-1.661781 -2.21502,0.217618 -1.69191,-1.874819 0.96208,-1.62629 -0.96931,-1.912638 -0.36582,-3.726775 0.18211,-0.728396 2.44619,-0.388682 3.17805,-0.388682 1.44728,0 2.34051,0.676581 3.65819,1.006 1.12601,0.281505 3.77662,0.103907 3.81822,0.114318 0.90731,0.226815 1.42705,1.273678 2.26351,1.691911 0.76706,-0.894412 1.21577,-1.796183 2.78936,-2.423547 0.87624,-0.876238 1.63992,-0.386539 1.87482,-1.326092 0.27547,-1.101867 1.94341,0.2066 1.94341,-1.051728 0,-1.303015 -0.28452,-1.575082 0.0915,-2.515001 -0.26318,-4.188922 1.05585,-4.468366 0.38868,-5.784504 -0.83572,-0.835719 -0.87913,-1.084898 -1.85196,-2.057728 -3.41027,-1.23493 -3.42867,-3.939276 -5.44155,-4.115457 -1.36627,1.193989 -2.35077,3.566286 -4.11545,3.178047 -1.32261,0.600985 -2.52659,0.975575 -3.72678,1.874819 -2.177,0.319633 -4.34689,-0.07806 -6.35609,-0.937409 -1.53569,-1.255022 -1.90301,-3.185107 -3.29237,-4.732776 -1.48427,-0.484401 -3.37631,-0.0706 -4.93855,-0.503 -0.5262,-0.203189 -0.20998,-1.812657 -3.17804,-1.120319 -1.92017,-0.611927 -3.15449,-0.631508 -4.86996,0.388682 -0.64269,0.642665 -2.75168,-0.823401 -3.17805,-1.143183 -1.20907,-0.906813 -1.57049,-0.267267 -2.65218,-1.348955 -0.66231,-0.662241 -1.28315,-2.375077 -0.70881,-2.949411 1.90195,-0.754955 1.99981,-2.099862 2.42354,-3.909684 0.66715,-1.774771 -1.3764,-2.128268 -0.36581,-4.687048 -0.21554,-1.377544 -1.09982,-2.828275 -2.26351,-3.932548 -0.85367,-1.174162 0.86443,-0.141112 0.5716,-4.298366 0.1055,-0.210959 1.78892,-1.217333 2.05772,-1.486137 0.57057,-0.570556 -0.13796,-2.561508 -0.57159,-2.995139 -1.7324,-0.521935 -3.84463,0.422175 -5.41868,1.303229 -0.85978,1.303934 -3.07906,-1.122178 -4.66419,-1.691911 -1.0542,-1.054189 -1.27165,-0.110781 -2.08059,0.09146 -1.04088,0.260218 -1.41493,1.234637 -2.97227,1.234637 -2.11503,-0.01447 -3.88952,0.07916 -7.1106,-0.205773 -0.576569,-0.115314 -2.432058,1.040963 -2.812232,1.326092 -0.09797,0.07348 -0.335484,-0.147434 -0.503,-0.205773 z"
            style="fill:#fbeebe;fill-opacity:1;fill-rule:evenodd;stroke:#d39062;stroke-width:0.365818;stroke-linecap:butt;stroke-linejoin:miter;stroke-miterlimit:4;stroke-dasharray:none;stroke-opacity:1"
            id="Quirihue"
            inkscape:connector-curvature="0" />
        <path
            d="m 49.642083,23.293479 c -0.59894,-0.05797 -1.128213,-0.05295 -1.509001,0.06859 -0.507719,0.162053 -0.766558,0.524159 -0.640182,1.211774 -1.765191,3.130928 -3.143331,1.599247 -4.298366,2.812229 -0.520684,0.69426 -1.73005,1.402321 -2.62932,1.851955 -0.885873,0.442949 -2.217459,0.480137 -3.223775,0.480137 l -0.09145,-0.2515 c -0.792048,3.351687 5.935528,6.705773 1.257501,8.45955 3.075303,2.169444 3.881384,9.709039 0.342954,9.465552 -1.216777,2.054039 -3.4393,4.007585 -3.452411,5.967412 -0.02524,3.774199 3.310284,7.545711 4.001139,11.889098 1.286927,3.938043 -1.14131,7.331182 -0.868819,11.843371 -8.341823,14.407714 6.776771,25.160143 0.114318,41.131703 -4.6218,7.25117 -5.699326,14.54881 -10.357233,22.24634 0.539231,0.10373 1.084491,0.10135 1.623319,0 0.59954,-0.11278 1.185713,-0.31364 1.737638,-0.52587 0.551924,-0.21223 1.054332,-0.4226 1.509,-0.57159 0.454669,-0.14899 0.858262,-0.23699 1.166047,-0.16005 0.912826,0.22822 1.833277,0.86288 2.743638,1.3261 0.45518,0.2316 0.906827,0.42245 1.348955,0.503 0.442128,0.0805 0.882434,0.0503 1.303228,-0.16005 0.609424,-0.30471 1.010449,-0.51672 1.280364,-0.70877 0.269916,-0.19205 0.402093,-0.37592 0.457273,-0.59446 0.110353,-0.43706 -0.06855,-1.06849 -0.06855,-2.44641 0,-0.62906 0.07998,-1.0993 0.228637,-1.48613 0.148654,-0.38684 0.355231,-0.69278 0.640182,-0.93741 0.569901,-0.48926 1.405474,-0.78277 2.44641,-1.30323 0.163089,-0.0815 1.187703,-0.71133 2.332093,-1.16605 0.572191,-0.22736 1.172967,-0.4147 1.714773,-0.45727 0.541807,-0.0426 1.021343,0.0382 1.348956,0.36582 0.103153,0.10315 3.217965,4.13686 3.315229,4.16118 0.348149,0.087 0.743167,0.33543 1.143182,0.66305 0.400016,0.32762 0.802738,0.72701 1.211774,1.12032 0.409036,0.3933 0.81369,0.79049 1.18891,1.07459 0.37522,0.2841 0.730305,0.45727 1.028864,0.45727 1.750265,0 2.477915,0.10159 2.926547,-0.11432 0.22432,-0.10795 0.376281,-0.30915 0.548728,-0.61732 0.172447,-0.30816 0.360111,-0.74309 0.663046,-1.34895 0.320398,-0.6408 0.549488,-1.03508 0.731636,-1.28037 0.182149,-0.24528 0.319418,-0.33868 0.503001,-0.32009 0.367172,0.0372 0.892406,0.4746 2.103456,0.77737 0.637848,0.15946 1.105678,0.11893 1.486137,-0.0457 0.380458,-0.16466 0.655671,-0.45522 0.891682,-0.7545 0.236012,-0.29928 0.43569,-0.60156 0.640182,-0.84596 0.204493,-0.24439 0.422857,-0.43441 0.708773,-0.43441 1.114539,0 1.737887,-0.10853 2.057729,-0.29722 0.319842,-0.18869 0.33768,-0.45828 0.2515,-0.7545 -0.08618,-0.29623 -0.28517,-0.6148 -0.388682,-0.93741 -0.103512,-0.32261 -0.107792,-0.64671 0.160046,-0.91455 0.695772,-0.69577 1.125952,-1.14044 1.737637,-1.34895 0.611685,-0.20852 1.388998,-0.17033 2.812229,0.11431 0.394469,0.0789 1.830775,-0.4139 3.063729,-0.57159 0.280854,-0.0359 0.462504,0.0383 0.708773,0.0457 0.33119,-0.27851 0.664261,-0.53215 0.960274,-0.82309 0.531102,-0.522 0.971621,-1.05139 1.097455,-1.55473 0.12609,-0.50438 0.04112,-0.5909 0.182909,-0.86882 0.141784,-0.27792 0.496218,-0.74546 1.463274,-2.03486 0.946964,-1.26263 1.094982,-1.72132 1.348955,-1.94341 0.253973,-0.22209 0.60859,-0.20931 1.966274,-0.54873 0.301237,-0.0753 0.946869,-0.24437 1.554728,-0.57159 0.303929,-0.16361 0.604434,-0.36973 0.845955,-0.61732 0.241521,-0.24759 0.439472,-0.54611 0.525864,-0.89168 0.321854,-1.28741 0.347227,-1.81025 0.228636,-2.2635 -0.118591,-0.45326 -0.400483,-0.84745 -0.663045,-1.89769 -0.06914,-0.27649 0.200797,-1.30724 0.503,-2.37782 0.302203,-1.07057 0.648998,-2.16157 0.7545,-2.58359 0.122579,-0.4903 0.157449,-1.00074 0.137182,-1.48614 -0.02027,-0.48539 -0.103241,-0.95556 -0.2515,-1.41754 -0.296518,-0.92398 -0.835368,-1.77278 -1.554728,-2.49214 -0.466141,-0.46613 -0.893204,-0.6836 -1.303228,-0.77736 -0.410024,-0.0938 -0.794089,-0.0805 -1.143183,-0.11432 -0.349093,-0.0338 -0.67691,-0.10235 -0.960273,-0.38868 -0.283363,-0.28634 -0.518818,-0.77206 -0.731637,-1.62332 -0.06819,-0.27271 -0.0059,-0.64245 0.137182,-1.05173 0.142867,-0.40929 0.369879,-0.86082 0.594455,-1.34896 0.224576,-0.488139 0.440365,-0.999729 0.617319,-1.508999 0.176953,-0.509271 0.297227,-1.013471 0.297227,-1.486138 0,-0.266227 -0.711444,-1.616075 -1.486137,-2.995138 -0.774694,-1.379062 -1.607326,-2.803112 -1.829092,-3.246638 -0.183919,-0.36783 -0.222359,-0.801332 -0.160046,-1.257501 0.06234,-0.456168 0.225864,-0.927847 0.411546,-1.394682 0.371357,-0.933679 0.878396,-1.821666 1.006001,-2.332093 0.126244,-0.504968 0.01573,-0.858275 -0.228637,-1.143182 -0.244381,-0.284907 -0.641814,-0.491836 -1.074591,-0.663046 -0.432778,-0.171213 -0.909996,-0.316254 -1.348956,-0.480137 -0.43896,-0.163882 -0.834541,-0.354403 -1.097455,-0.617318 -0.440131,-0.440128 -0.864963,-1.31593 -1.280364,-2.217774 -0.415402,-0.901844 -0.823099,-1.813862 -1.211774,-2.332093 -0.264567,-0.352756 -0.619916,-0.668706 -1.051728,-0.937409 -0.431812,-0.268703 -0.930993,-0.487529 -1.44041,-0.68591 -1.018833,-0.39676 -2.112294,-0.670972 -2.903683,-0.868818 -1.122536,-0.280636 -2.044647,-0.06096 -2.697911,-0.137182 -0.326632,-0.03811 -0.579683,-0.144027 -0.7545,-0.43441 -0.174818,-0.290383 -0.274364,-0.764096 -0.274364,-1.509001 0,-0.665261 -0.09953,-1.270824 -0.228637,-1.851955 -0.129104,-0.581131 -0.289618,-1.140303 -0.434409,-1.69191 -0.144791,-0.551608 -0.273032,-1.092357 -0.320091,-1.669047 -0.04704,-0.576689 -0.0044,-1.195578 0.160045,-1.851955 0.07192,-0.287643 0.194352,-0.478863 0.365819,-0.617319 0.171466,-0.138456 0.374598,-0.207693 0.617318,-0.228636 0.485441,-0.04189 1.091288,0.104843 1.69191,0.342954 1.201246,0.476223 2.417511,1.273141 2.720775,1.348956 0.588711,0.147178 1.220158,0.209109 1.874819,0.205772 0.654661,-0.0034 1.325221,-0.07986 1.966274,-0.182909 1.282106,-0.206094 2.450625,-0.568704 3.200911,-0.868818 0.708151,-0.283263 1.720934,-0.927183 2.720774,-1.600456 0.999841,-0.673273 1.986694,-1.370594 2.675047,-1.714774 0.740783,-0.370392 1.324197,-0.917114 1.897683,-1.463273 0.573487,-0.546159 1.151077,-1.08997 1.851956,-1.44041 0.74962,-0.374813 1.480387,-1.112323 2.126319,-1.851956 0.645933,-0.739633 1.198202,-1.472563 1.600456,-1.874819 0.15507,-0.155068 0.561743,-0.245289 1.097455,-0.274364 0.535712,-0.02908 1.196973,-0.01591 1.874819,0.02286 1.355687,0.07753 2.753523,0.2515 3.246639,0.2515 2.075355,10e-7 4.166445,0 6.241775,0 0.47195,0 0.78502,-0.06771 1.006,-0.160046 0.22099,-0.09233 0.34441,-0.228678 0.36582,-0.388682 0.0428,-0.320008 -0.2617,-0.746123 -0.70877,-1.18891 -0.89413,-0.885573 -2.35703,-1.818694 -2.74364,-2.012001 -0.37352,-0.186761 -0.70285,-0.483953 -0.98314,-0.845955 -0.28028,-0.362001 -0.51154,-0.789343 -0.73163,-1.211773 -0.44018,-0.84486 -0.7912,-1.682888 -1.18891,-2.080592 -0.14672,-0.14671 -0.43905,-0.214992 -0.800232,-0.228637 -0.36118,-0.01364 -0.796848,0.02082 -1.234637,0.06859 -0.875587,0.09554 -1.771417,0.24877 -2.12632,0.160046 -0.348332,-0.08708 -0.601113,-0.216495 -0.800228,-0.365819 -0.199115,-0.149324 -0.332967,-0.329127 -0.411545,-0.525864 -0.157156,-0.393473 -0.107214,-0.854802 0.04573,-1.348955 0.305883,-0.988305 0.996233,-2.06439 1.166046,-2.743638 0.02671,-0.106861 0.118942,-0.231688 0.160046,-0.342955 -0.617948,-0.215201 -1.492093,-0.936511 -1.920547,-1.303228 -0.608122,-0.520483 1.951824,-0.147463 1.714774,-2.583592 -0.120479,-1.237696 -1.997076,-0.663046 -2.629356,-0.663046 -0.56748,0 -1.234703,-1.011772 -1.531865,-1.234637 -0.40131,-1.224749 -0.425542,-1.131177 -5.235776,-1.486138 -1.09346,-1.703461 -0.932091,-2.75739 -0.182909,-4.687048 0.271796,-2.501347 -2.574718,-1.446667 -2.995138,-3.932548 -8e-6,-0.781927 -1.938318,-1.459093 -2.423547,-1.874819 -1.899139,-1.627173 -1.689181,-1.259345 -1.646183,0.845955 -0.479595,1.666691 0.270662,3.144545 -0.983137,4.389821 -0.859263,0.859256 -1.560318,1.349137 -0.617318,2.606456 0.252802,0.337091 -0.638397,2.084152 -1.486138,0.388682 -0.567852,-1.135733 -0.82263,-1.805765 -1.623319,-2.606456 -0.291894,-0.291894 0.861225,-1.803156 -0.7545,-1.874819 -1.987133,-0.08814 -2.858864,-0.201952 -2.995138,-0.754501 0.117457,-1.949633 -1.674688,-2.855052 -3.360957,-2.789365 -0.819536,2.373212 -2.234916,0.163209 -4.115457,-0.754501 -0.849006,1.780905 -0.805313,3.330588 -3.360956,2.423547 -0.145069,1e-6 -0.80832,-2.293697 -1.531865,-2.126319 -1.847244,0.427334 -3.818851,0.109817 -3.521002,-1.600456 -1.602629,0.014 -4.101995,-0.740612 -5.898822,-0.914546 z"
            style="fill:#fbeebe;fill-opacity:1;fill-rule:evenodd;stroke:#d39062;stroke-width:0.365818;stroke-linecap:butt;stroke-linejoin:miter;stroke-miterlimit:4;stroke-dasharray:none;stroke-opacity:1"
            id="Cobquecura"
            inkscape:connector-curvature="0" />
    </g>
</svg>
