<?xml version="1.0" encoding="UTF-8" standalone="no"?>
<svg
    xmlns:dc="http://purl.org/dc/elements/1.1/"
    xmlns:cc="http://creativecommons.org/ns#"
    xmlns:rdf="http://www.w3.org/1999/02/22-rdf-syntax-ns#"
    xmlns:svg="http://www.w3.org/2000/svg"
    xmlns="http://www.w3.org/2000/svg"
    xmlns:sodipodi="http://sodipodi.sourceforge.net/DTD/sodipodi-0.dtd"
    xmlns:inkscape="http://www.inkscape.org/namespaces/inkscape"
    sodipodi:docname="Provincias de Ñuble.svg"
    inkscape:version="1.0 (4035a4fb49, 2020-05-01)"
    id="svg2"
    height="430"
    width="550"
    version="1.0">
    <metadata
        id="metadata68">
        <rdf:RDF>
            <cc:Work
                rdf:about="">
                <dc:format>image/svg+xml</dc:format>
                <dc:type
                    rdf:resource="http://purl.org/dc/dcmitype/StillImage" />
                <dc:title />
            </cc:Work>
        </rdf:RDF>
    </metadata>
    <sodipodi:namedview
        inkscape:document-rotation="0"
        inkscape:current-layer="svg2"
        inkscape:window-maximized="1"
        inkscape:window-y="-8"
        inkscape:window-x="-8"
        inkscape:cy="232.25949"
        inkscape:cx="71.605117"
        inkscape:zoom="0.35181766"
        showgrid="false"
        id="namedview66"
        inkscape:window-height="715"
        inkscape:window-width="1366"
        inkscape:pageshadow="2"
        inkscape:pageopacity="0"
        guidetolerance="10"
        gridtolerance="10"
        objecttolerance="10"
        borderopacity="1"
        bordercolor="#666666"
        pagecolor="#ffffff" />
    <defs
        id="defs5" />
    <g
        transform="matrix(0.7316368,0,0,0.7316368,-275.73052,11.107154)"
        id="Provincia_Arauco" />
    <g
        transform="matrix(0.7316368,0,0,0.7316368,-275.73052,11.107154)"
        id="Provincia_Concepcion" />
    <g
        transform="matrix(0.7316368,0,0,0.7316368,-275.73052,11.107154)"
        id="Provincia_Biobio" />
    <g
        id="punilla">
        <title
            id="punilla">Provincia de Punilla</title>
        <path
            d="m 325.08047,171.44993 c -0.5837,0.0331 -1.09978,0.18524 -1.46327,0.54873 -0.37551,0.37552 -0.77804,1.10515 -1.30323,1.73764 -0.26259,0.31624 -0.5599,0.60938 -0.89168,0.82309 -0.33177,0.21371 -0.69819,0.34295 -1.12032,0.34295 -0.32631,0 -0.62117,0.14839 -0.89168,0.34296 -0.27051,0.19456 -0.50259,0.44935 -0.7545,0.70877 -0.25191,0.25942 -0.50685,0.51421 -0.77737,0.70877 -0.27051,0.19457 -0.56537,0.32009 -0.89168,0.32009 -1.49276,0 -5.09975,0.97114 -5.39582,0.8231 -0.14148,-0.0708 -1.61103,-0.53187 -3.08659,-0.80023 -0.73778,-0.13418 -1.47906,-0.22341 -2.05773,-0.18291 -0.28933,0.0203 -0.54366,0.0681 -0.73164,0.16004 -0.18798,0.0919 -0.29738,0.22928 -0.34295,0.41155 -0.23007,0.92029 -0.62632,1.50588 -1.12032,2.03487 -0.494,0.52898 -1.08397,1.01539 -1.78337,1.71477 -0.4415,0.4415 -0.92147,0.77308 -1.37181,1.02886 -0.45035,0.25578 -0.89128,0.41905 -1.30323,0.57159 -0.0201,0.007 -0.0258,0.0156 -0.0457,0.0228 0.10135,0.30504 0.34429,0.68257 0.38868,0.96027 0.12829,0.80246 0.0336,1.50869 -0.16004,2.14919 -0.38733,1.28099 -1.18015,2.31989 -1.48614,3.54386 -0.33832,1.35322 -0.686,2.20178 -1.14318,2.90369 -0.45719,0.70191 -1.0283,1.25693 -1.85196,2.08059 -0.36184,0.36185 -0.61606,0.83146 -0.77736,1.34895 -0.16131,0.5175 -0.24021,1.10072 -0.27437,1.66905 -0.0683,1.13666 0.0457,2.26118 0.0457,2.97228 0,0.25008 -0.0458,0.43612 -0.16004,0.57159 -0.11428,0.13546 -0.29845,0.20902 -0.503,0.2515 -0.40912,0.085 -0.97409,0.0198 -1.60046,-0.13718 -1.25273,-0.31405 -2.73342,-0.94629 -3.70391,-1.18891 -1.03808,-0.25952 -1.74542,-0.26418 -2.2635,-0.16005 -0.51809,0.10413 -0.84488,0.31177 -1.14319,0.54873 -0.29831,0.23695 -0.55866,0.50122 -0.93741,0.64018 -0.37874,0.13896 -0.8868,0.16698 -1.64618,-0.0228 -0.81331,-0.20333 -1.50701,-0.3216 -2.14918,-0.36582 -0.64217,-0.0442 -1.22112,-0.0252 -1.78337,0.0457 -1.12449,0.14177 -2.19171,0.48505 -3.54386,0.82309 -0.59503,0.14876 -1.07461,0.17415 -1.48614,0.13718 -0.41152,-0.0369 -0.75604,-0.13589 -1.02886,-0.29722 -0.54564,-0.32266 -0.86077,-0.85133 -1.12032,-1.30323 -0.25956,-0.4519 -0.46841,-0.8472 -0.80023,-0.93741 -0.16591,-0.0451 -0.34329,-1.9e-4 -0.59445,0.13718 -0.25117,0.13737 -0.5562,0.37329 -0.93741,0.7545 -0.39504,0.39505 -0.86519,0.65856 -1.37182,0.82309 -0.50664,0.16453 -1.05203,0.23011 -1.62332,0.22864 -1.14258,-0.003 -2.37866,-0.26885 -3.49814,-0.54873 -0.9061,-0.22651 -1.99891,-0.85438 -2.88082,-1.41754 -0.88192,-0.56317 -1.54814,-1.06151 -1.60046,-1.0746 -0.27031,-0.0676 -0.44232,0.0735 -0.54872,0.3201 -0.10641,0.24659 -0.15402,0.6093 -0.20578,0.98313 -0.0517,0.37384 -0.0994,0.76042 -0.20577,1.07459 -0.1064,0.31418 -0.25554,0.54974 -0.52586,0.61732 -0.52416,0.13104 -1.01353,0.2855 -1.44041,0.503 -0.42689,0.2175 -0.81195,0.50213 -1.14319,0.82309 -0.33123,0.32097 -0.60878,0.67889 -0.84595,1.12032 -0.23718,0.44144 -0.42687,0.95296 -0.57159,1.53187 -0.0787,0.31473 0.0538,0.58205 0.29723,0.82309 0.24348,0.24104 0.6094,0.46944 0.96027,0.68591 0.35087,0.21647 0.69392,0.42201 0.93741,0.66304 0.24349,0.24104 0.37591,0.50836 0.29723,0.8231 -0.34985,1.39943 -0.29401,2.22197 -0.36582,2.90368 -0.0359,0.34085 -0.10838,0.63118 -0.27437,0.96027 -0.16598,0.3291 -0.41684,0.69121 -0.84595,1.12032 -0.25167,0.25167 -0.41455,0.49312 -0.503,0.73164 -0.0884,0.23852 -0.0982,0.4848 -0.0457,0.70877 0.10489,0.44794 0.44866,0.85332 0.98314,1.23464 0.53447,0.38131 1.24945,0.72538 2.03486,1.02886 0.78541,0.30349 1.6573,0.56295 2.515,0.77737 1.61841,0.40459 2.70079,0.58273 3.52101,0.93741 0.4101,0.17733 0.73585,0.38217 1.05172,0.70877 0.31588,0.3266 0.62269,0.76525 0.91455,1.34896 0.1815,0.36297 1.60423,1.0125 3.08659,1.62331 1.48236,0.61082 3.0149,1.18736 3.38382,1.37182 1.10322,0.55161 1.79477,0.99155 2.42355,1.509 0.62878,0.51746 1.19,1.09855 2.05773,1.96628 0.33395,0.33395 0.5385,0.64867 0.64018,0.96027 0.10168,0.3116 0.10002,0.62028 0.0228,0.96027 -0.15432,0.68001 -0.61697,1.48545 -1.16605,2.5836 -0.11895,0.23789 -0.14235,0.45633 -0.11432,0.66304 0.028,0.20672 0.10665,0.38994 0.2515,0.57159 0.28971,0.36331 0.79567,0.68343 1.37182,0.98314 1.1523,0.59943 2.62417,1.12217 3.47528,1.7605 1.06383,0.79787 1.70766,1.37239 2.44641,1.82909 0.73875,0.45671 1.5767,0.80001 3.04086,1.16605 0.28781,0.0719 0.64307,0.42971 1.02887,0.93741 0.3858,0.5077 0.81681,1.15264 1.23463,1.82909 0.83565,1.35291 1.6499,2.77501 2.21778,3.20091 0.45599,0.342 1.08096,0.65829 1.78336,0.93741 0.7024,0.27912 1.48522,0.54133 2.2635,0.77737 1.55658,0.47206 3.09561,0.86189 3.93255,1.28036 1.5273,0.76364 2.40937,1.54315 3.3381,2.24064 0.46436,0.34874 0.93066,0.68793 1.509,0.98314 0.57833,0.2952 1.25825,0.56034 2.12632,0.77736 0.4602,0.11505 0.86049,0.34514 1.21177,0.66305 0.35128,0.3179 0.66601,0.71057 0.93741,1.14318 0.5428,0.86521 0.9514,1.87994 1.34895,2.67505 0.32533,0.65063 0.65952,1.1789 1.02887,1.62331 0.36934,0.44442 0.77227,0.8028 1.21177,1.09746 0.879,0.58932 1.9303,0.92842 3.24664,1.2575 0.44498,0.11125 0.82667,0.47641 1.16605,0.96027 0.33937,0.48387 0.62577,1.09597 0.86882,1.73764 0.48608,1.28334 0.80387,2.66677 0.96027,3.29237 0.10903,0.43615 0.44799,0.8706 0.91454,1.28036 0.46655,0.40976 1.06322,0.79046 1.69191,1.14318 1.2574,0.70546 2.62719,1.26122 3.36096,1.55473 0.76174,0.3047 1.40464,0.71221 1.96627,1.14318 0.56164,0.43098 1.03834,0.90382 1.53187,1.3261 0.49353,0.42227 0.9973,0.79597 1.55473,1.07459 0.55742,0.27862 1.16722,0.45727 1.92054,0.45727 1.05877,0 1.94965,0.15503 2.74364,0.38868 0.794,0.23365 1.50764,0.53443 2.21778,0.84596 0.71014,0.31153 1.41056,0.63517 2.21777,0.86882 0.80721,0.23364 1.72705,0.38868 2.81223,0.38868 2.44673,1e-5 5.81579,0.503 8.96255,0.503 0.89677,0 1.72753,0.0884 2.515,0.22864 0.78747,0.14018 1.5187,0.31608 2.2635,0.503 0.7448,0.18691 1.49475,0.38567 2.2635,0.52586 0.76876,0.14019 1.56421,0.22864 2.42355,0.22864 1.0219,0 1.85109,0.0704 2.53787,0.22863 0.68677,0.1582 1.22931,0.40365 1.66904,0.7545 0.43973,0.35086 0.79382,0.81669 1.07459,1.39469 0.28078,0.57799 0.49888,1.26386 0.70878,2.10345 0.11764,0.47058 0.57778,0.98655 1.23463,1.509 0.65686,0.52246 1.50269,1.0529 2.35496,1.53187 1.70454,0.95792 3.46348,1.73174 3.88682,1.94341 1.24872,0.62436 2.7304,1.13428 4.16119,1.60045 1.43078,0.46617 2.81489,0.89302 3.81822,1.39469 0.44886,0.22442 1.0273,0.36845 1.69192,0.45727 0.66461,0.0888 1.39826,0.13098 2.14918,0.13718 1.50184,0.0124 3.04528,-0.0914 4.11546,-0.0914 0.37698,-10e-6 2.00656,-0.61127 3.58959,-1.34896 0.79151,-0.36884 1.57436,-0.7656 2.19491,-1.14318 0.62055,-0.37759 1.07717,-0.73679 1.21177,-1.006 0.16049,-0.32098 0.9794,-1.02982 1.85196,-1.73764 0.87256,-0.70782 1.78941,-1.40074 2.12632,-1.73764 0.20081,-0.20081 0.46955,-0.34122 0.80022,-0.41154 0.33068,-0.0703 0.71782,-0.0713 1.14319,-0.0457 0.85072,0.051 1.86243,0.25375 2.88082,0.48014 1.01838,0.22638 2.04481,0.46997 2.94941,0.59445 0.90459,0.12448 1.68555,0.11749 2.19491,-0.13718 0.29719,-0.14861 0.6737,0 1.006,0 0.31121,0 0.56997,-0.19876 0.84595,-0.52587 0.27599,-0.3271 0.56696,-0.77563 0.93741,-1.21177 0.37046,-0.43614 0.82293,-0.8618 1.41755,-1.18891 0.59462,-0.32711 1.31504,-0.54873 2.2635,-0.54873 0.39018,0 0.66829,-0.22083 0.86882,-0.48013 0.20053,-0.2593 0.32626,-0.57198 0.48014,-0.7545 0.15387,-0.18252 0.32133,-0.23035 0.57159,0 0.25025,0.23035 0.58494,0.75834 1.07459,1.73763 0.14862,0.29723 0,0.65085 0,0.98314 0,0.20589 0.40951,0.58713 1.02886,1.02887 0.61936,0.44174 1.46484,0.94507 2.30923,1.44041 1.6888,0.99068 3.41217,1.90042 3.63532,2.012 0.42361,0.2118 0.66941,0.57066 0.80023,1.006 0.13082,0.43534 0.15007,0.94843 0.16005,1.48613 0.01,0.53771 0.008,1.10445 0.0686,1.62332 0.0611,0.51888 0.19598,0.99294 0.48014,1.37182 0.80955,1.07941 1.69836,2.09849 2.62932,3.0866 0.93095,0.9881 1.90834,1.95407 2.85795,2.90368 0.94599,0.94598 1.81347,1.68015 2.69791,2.37782 0.88444,0.69767 1.79016,1.35405 2.78937,2.10345 0.65601,0.49202 1.37169,1.34326 1.94341,2.0806 0.57172,0.73733 0.98105,1.36973 1.02886,1.41754 0.22285,0.22284 0.35597,0.42359 0.41155,0.61732 0.0556,0.19373 0.0421,0.37003 -0.0228,0.54873 -0.12999,0.35741 -0.44525,0.69279 -0.77736,1.07459 -0.33211,0.3818 -0.68527,0.80723 -0.84596,1.32609 -0.0803,0.25943 -0.12401,0.554 -0.0915,0.86882 0.0326,0.31482 0.1508,0.64457 0.34295,1.02887 0.18908,0.37815 0.41709,0.70818 0.70878,0.98313 0.29168,0.27495 0.63296,0.49818 1.006,0.68591 0.74608,0.37546 1.63954,0.60918 2.58359,0.73164 1.88811,0.24491 4.00987,0.0914 5.67018,0.0914 0.77631,0 1.4149,-0.10268 1.96628,-0.27436 0.55138,-0.17168 1.01075,-0.40109 1.44041,-0.66305 0.85931,-0.52391 1.56915,-1.1581 2.56073,-1.55472 0.78119,-0.31248 1.43975,-0.53907 2.01204,-0.68591 0.57221,-0.14684 1.06255,-0.19455 1.53182,-0.13719 0.46928,0.0574 0.92223,0.22574 1.39472,0.52587 0.47242,0.30013 0.97323,0.72175 1.55473,1.30323 0.40657,0.40657 0.72,0.87072 0.9831,1.39468 0.2631,0.52395 0.46978,1.10933 0.61736,1.71477 0.29514,1.2109 0.38864,2.54237 0.38864,3.86396 0,0.4975 -0.31972,0.9926 -0.4801,1.66905 -0.0803,0.33822 -0.12869,0.72581 -0.0688,1.18891 0.06,0.46309 0.22798,0.98193 0.54873,1.62331 0.52787,1.05584 1.4918,2.39438 2.65218,3.54387 0.58011,0.57474 1.20405,1.10536 1.85192,1.53186 0.64786,0.42651 1.31109,0.75074 1.96627,0.91455 0.42406,0.10602 0.73157,0.25376 0.93745,0.43441 0.20588,0.18065 0.3228,0.38715 0.38864,0.61732 0.1317,0.46032 0.0512,1.00125 0.0915,1.509 0.0205,0.25388 0.0688,0.50357 0.18291,0.73164 0.11443,0.22806 0.30758,0.44016 0.59445,0.61731 0.28688,0.17716 0.67428,0.31042 1.21181,0.41155 0.53746,0.10113 1.21445,0.16005 2.08063,0.16005 0.49715,0 0.9283,0 1.46327,0 -0.12964,-0.0821 -0.79967,-0.35211 -0.80019,-0.38869 -0.0132,-0.76699 2.05495,-1.77737 4.91565,-2.515 2.25037,-0.58024 5.31929,-1.09469 6.01318,-0.45727 2.47278,2.27154 6.25564,4.43923 10.0371,2.7665 1.75088,-0.77449 2.96664,-2.50523 4.48128,-2.78936 2.94923,-0.5533 3.92911,1.75688 7.545,-5.55587 1.13741,-2.30022 1.39348,-3.98782 1.21181,-5.46441 -0.17596,0 -0.35001,0 -0.5259,0 -1.03482,0 -1.90203,0.18616 -2.62928,0.48013 -0.72769,0.29398 -1.32134,0.70549 -1.82909,1.09746 -0.5079,0.39197 -0.92772,0.78062 -1.30327,1.07459 -0.37555,0.29397 -0.69812,0.48014 -1.02882,0.48014 -1.04573,0 -1.91719,0.12739 -2.65219,0.27436 -0.73507,0.14697 -1.35557,0.32337 -1.94344,0.38868 -0.58787,0.0653 -1.13353,0.0163 -1.73764,-0.22863 -0.60419,-0.24497 -1.25132,-0.70226 -2.03483,-1.48614 -1.10777,-1.10775 -2.14809,-1.88347 -3.17808,-2.65218 -1.03,-0.76872 -2.04332,-1.51714 -3.08656,-2.56073 -1.11458,-1.11456 -2.14743,-2.0704 -3.22381,-2.92655 -1.07639,-0.85615 -2.21562,-1.62218 -3.58956,-2.30923 -0.82989,-0.41492 -1.30999,-0.8537 -1.60045,-1.34895 -0.2909,-0.49526 -0.38031,-1.03052 -0.41155,-1.60046 -0.0315,-0.56994 -0.0168,-1.19012 -0.0688,-1.82909 -0.0512,-0.63898 -0.17501,-1.30964 -0.52583,-2.012 -0.5319,-1.06363 -1.13653,-2.48077 -1.89772,-3.77251 -0.3806,-0.64586 -0.79412,-1.25978 -1.25746,-1.78336 -0.46357,-0.52358 -0.9913,-0.95289 -1.55473,-1.23464 -0.51486,-0.34321 -3.38777,-3.26003 -4.18409,-3.65818 -0.55546,-0.27773 -0.80648,-0.63938 -0.93737,-1.02887 -0.13133,-0.38948 -0.12401,-0.80222 -0.13718,-1.21177 -0.0139,-0.40955 -0.049,-0.80527 -0.25154,-1.14318 -0.2023,-0.33791 -0.58209,-0.62567 -1.28036,-0.80023 -0.55217,-0.13803 -1.01822,-0.42397 -1.41755,-0.80023 -0.39933,-0.37626 -0.72447,-0.83858 -1.006,-1.37182 -0.56307,-1.06646 -0.93291,-2.35984 -1.23464,-3.56673 -0.25951,-1.03803 -0.55289,-2.31909 -0.57155,-3.54386 -0.01,-0.61239 0.0585,-1.20542 0.22863,-1.7605 0.16945,-0.55509 0.4403,-1.05768 0.86882,-1.48614 0.40423,-0.40465 0.75761,-0.85724 1.02883,-1.32609 0.27122,-0.46885 0.46744,-0.95607 0.54873,-1.509 0.0813,-0.55293 0.0512,-1.17223 -0.11428,-1.82909 -0.16572,-0.65687 -0.46906,-1.36851 -0.93745,-2.14919 -0.5619,-0.93646 -1.20757,-1.95501 -1.78336,-3.018 -0.5758,-1.06299 -1.07822,-2.16361 -1.34892,-3.24664 -0.33904,-1.35462 -0.60075,-2.47316 -0.77737,-3.61245 -0.17705,-1.13929 -0.27436,-2.29904 -0.27436,-3.70392 -4.4e-4,-1.56862 0.0839,-3.07562 0,-4.54986 -0.0424,-0.73712 -0.10989,-1.47406 -0.27436,-2.19491 -0.16492,-0.72085 -0.42267,-1.43972 -0.77737,-2.14919 -0.4231,-0.84539 -1.58268,-1.90711 -2.58363,-3.018 -0.50051,-0.55544 -0.95464,-1.12108 -1.25753,-1.66904 -0.3029,-0.54796 -0.46577,-1.08634 -0.34296,-1.5776 0.27548,-1.10189 0.31759,-1.80182 0.20577,-2.28636 -0.11181,-0.48454 -0.37847,-0.75536 -0.70877,-0.93741 -0.3303,-0.18205 -0.71749,-0.2857 -1.09746,-0.48014 -0.37996,-0.19443 -0.74516,-0.48433 -1.006,-1.006 -0.33237,-0.66474 -1.27656,-1.66149 -2.19491,-2.58359 -0.91834,-0.9221 -1.81392,-1.75304 -1.98913,-2.10346 -0.45873,-0.91748 -0.95961,-2.16833 -1.69191,-3.018 -0.36615,-0.42483 -0.78774,-0.75374 -1.28037,-0.89168 -0.49262,-0.13794 -1.05695,-0.0774 -1.71477,0.2515 -0.25231,0.12616 -0.71977,0.26891 -1.2575,0.38868 -0.53773,0.11977 -1.16666,0.21268 -1.78337,0.20578 -0.6167,-0.007 -1.20269,-0.11194 -1.69191,-0.36582 -0.24461,-0.12694 -0.46615,-0.29176 -0.64018,-0.503 -0.17403,-0.21124 -0.31104,-0.46679 -0.38868,-0.77737 -0.17067,-0.68266 -0.40892,-1.1837 -0.70877,-1.55473 -0.29986,-0.37102 -0.65176,-0.61999 -1.05173,-0.7545 -0.39997,-0.1345 -0.85507,-0.16408 -1.32609,-0.13718 -0.47103,0.0269 -0.97312,0.11544 -1.48614,0.22864 -1.02604,0.2264 -2.08983,0.54214 -3.10946,0.66304 -0.50981,0.0604 -1.02153,0.0786 -1.48614,0 -0.4646,-0.0786 -0.89002,-0.2331 -1.28036,-0.52586 -0.21613,0.054 -0.3288,0.19137 -0.41155,0.36582 -0.0827,0.17444 -0.14436,0.38179 -0.22863,0.52586 -0.0843,0.14408 -0.19085,0.21999 -0.41155,0.18291 -0.2207,-0.0371 -0.53684,-0.20257 -1.02886,-0.57159 -1.73367,-1.30025 -3.05376,-2.26886 -4.38982,-3.15518 -1.33607,-0.88632 -2.69755,-1.6803 -4.50414,-2.5836 -1.25485,-0.62742 -1.97416,-0.9991 -2.37782,-1.2575 -0.40366,-0.2584 -0.50237,-0.40679 -0.48014,-0.57159 0.0222,-0.1648 0.16011,-0.33929 0.18291,-0.68591 0.0228,-0.34662 -0.0553,-0.86519 -0.45727,-1.66904 -0.5078,-1.0156 -0.82065,-1.40483 -1.05173,-1.48614 -0.23108,-0.0813 -0.3808,0.14875 -0.57159,0.41155 -0.19079,0.26279 -0.4133,0.55486 -0.80023,0.57159 -0.19347,0.008 -0.4448,-0.0648 -0.73164,-0.22864 -0.28683,-0.16381 -0.6191,-0.41333 -1.02886,-0.82309 -1.0693,-1.06931 -1.61114,-1.53986 -2.2635,-1.82909 -0.65236,-0.28923 -1.42482,-0.41336 -2.97228,-0.80023 -2.26385,-0.56596 -1.77795,-0.46327 -1.16604,-0.34296 0.30595,0.0601 0.64339,0.11594 0.68591,0.11432 0.0425,-0.001 -0.19876,-0.0783 -1.07459,-0.29723 -1.23359,-0.30839 -2.35326,-0.57116 -4.18405,-1.02886 -1.2871,-0.32178 -2.96287,-0.46424 -4.38982,-0.84595 -0.71348,-0.19086 -1.35983,-0.43587 -1.87482,-0.80023 -0.51499,-0.36436 -0.89084,-0.84259 -1.05173,-1.48614 -0.23448,-0.93791 -0.49905,-1.55607 -0.80023,-1.98914 -0.30118,-0.43307 -0.64653,-0.6852 -1.02886,-0.89168 -0.38233,-0.20647 -0.80243,-0.38207 -1.28037,-0.64018 -0.47793,-0.25811 -1.01247,-0.60093 -1.60045,-1.18891 -0.39269,-0.39269 -0.86518,-0.67901 -1.37182,-0.89168 -0.50664,-0.21268 -1.04192,-0.35929 -1.57759,-0.503 -0.53568,-0.14372 -1.07493,-0.27146 -1.55473,-0.45728 -0.4798,-0.18582 -0.89563,-0.41549 -1.23464,-0.7545 -0.71083,-0.71082 -1.14914,-1.5574 -1.64618,-2.44641 -0.49705,-0.88901 -1.05269,-1.83006 -2.012,-2.78936 -0.40163,-0.40164 -0.88845,-0.72864 -1.39468,-1.02887 -0.50624,-0.30022 -1.04908,-0.58351 -1.55473,-0.84595 -0.50565,-0.26245 -0.97196,-0.51194 -1.37182,-0.80023 -0.39986,-0.28829 -0.72567,-0.60538 -0.91455,-0.98314 -0.87527,-1.75055 -1.04254,-2.47048 -1.16604,-3.10945 -0.12351,-0.63898 -0.19338,-1.20983 -0.91455,-2.65219 -0.37319,-0.74638 -0.73358,-1.22045 -1.09745,-1.53186 -0.36388,-0.31142 -0.73352,-0.44463 -1.18891,-0.52587 -0.9108,-0.16246 -2.11926,-0.0782 -4.00114,-0.54872 -0.82313,-0.20578 -1.5477,-0.19986 -2.21778,-0.0915 -0.67007,0.1084 -1.28585,0.32417 -1.80623,0.57159 -1.04075,0.49486 -1.77849,1.09746 -2.24063,1.09746 -1.2957,0 -3.60061,-0.0528 -5.64733,-0.0457 -2.04671,0.007 -3.82927,0.0796 -4.04686,0.29723 -0.11388,-0.35654 -0.16832,-0.62949 -0.22864,-0.91455 -0.15747,0.0309 -0.30393,0.0323 -0.36582,-0.0915 -0.27976,-0.55952 -0.39684,-1.00826 -0.43441,-1.39468 -0.0375,-0.38643 0.005,-0.71736 0.0457,-1.05173 0.0404,-0.33437 0.0689,-0.67124 0.0228,-1.07459 -0.046,-0.40336 -0.16058,-0.86988 -0.45727,-1.46328 -0.42242,-0.84484 -0.7307,-2.16315 -1.18891,-3.33809 -0.22911,-0.58748 -0.50079,-1.13985 -0.84596,-1.57759 -0.34516,-0.43774 -0.77059,-0.75852 -1.30323,-0.89168 -1.7414,-0.43535 -4.387,-1.10819 -6.63046,-1.66905 -0.71918,-0.17979 -2.14649,0.0396 -3.40668,0.29723 -1.26019,0.25758 -2.34968,0.56912 -2.40068,0.54872 -0.68517,-0.27407 -1.98514,-0.84528 -3.29237,-1.16604 -0.65361,-0.16038 -1.31398,-0.26179 -1.89768,-0.22864 z"
            style="fill:#fdf9d2;fill-opacity:1;fill-rule:evenodd;stroke:#d39062;stroke-width:0.365818;stroke-linecap:butt;stroke-linejoin:miter;stroke-miterlimit:4;stroke-dasharray:none;stroke-opacity:1"
            id="Coihueco"
            inkscape:connector-curvature="0" />
        <path
            d="m 495.27749,128.94641 c -0.44616,-0.3346 -0.2135,1.35089 -0.75447,1.48613 -1.3146,0.32868 -2.69813,-0.48964 -2.69791,1.05173 -0.8885,1.14386 -2.07587,2.19882 -3.17808,3.17805 -3.66316,1.06418 0.86947,2.64871 -2.40065,6.05887 -0.62804,0.83732 -1.25754,1.60718 -1.25754,2.81222 0,0.81525 -2.6742,-0.31951 -2.81219,-0.38868 -0.80012,-0.39998 -1.94681,0.57159 -2.81227,0.57159 -1.96942,0.0333 -3.16696,1.62984 -4.11545,3.17805 -1.1617,1.6678 -1.012,2.42475 -1.55473,4.34409 0,0.60112 -0.2031,3.23601 -0.32009,3.70392 -0.77393,1.8223 -2.44842,3.40768 -4.29837,4.11545 -2.19147,0.14681 -2.40013,2.41302 -3.54383,3.93255 -2.08853,1.28778 -3.74444,0.27435 -5.41872,-1.12032 -0.91637,-0.68732 -2.25161,-0.93545 -2.515,-1.98914 -0.22483,-0.89949 -2.27806,-2.66673 -2.94941,-3.33809 -1.5804,-0.68414 -1.50597,1.507 -3.33809,2.12632 -0.43902,2.16471 -0.89272,3.16841 -2.60646,4.68705 -1.49007,1.33128 -1.12032,3.23765 -1.12032,5.05287 -0.35887,1.40071 -2.17156,1.67787 -3.42955,2.37782 -1.32253,1.57509 -0.19839,3.9516 -1.07459,5.67018 -1.91729,3.05391 -0.62302,5.10902 -2.42354,7.84223 -0.51636,1.03274 -1.39272,1.61543 -1.69191,2.81223 -0.35267,1.41065 0.25442,2.19198 -0.54873,2.99514 -1.33267,1.31987 -2.99551,0.60092 -4.50414,0 -0.15975,-0.0799 1.16605,-1.86338 0,-2.44641 -0.63582,-0.31791 0.02,-1.63122 -0.54873,-2.05773 -1.21949,-1.48854 -0.58443,-3.82456 -2.21777,-4.7785 -1.842,-0.0173 -4.67086,-0.16472 -5.07573,-0.82309 -2.1249,-0.0761 -4.23682,0.0807 -6.3561,0.18291 -1.55456,-0.9656 -2.41266,-2.62811 -3.40668,-4.0926 -0.95256,-0.95257 -1.11878,-1.23387 -2.03487,-1.69191 -0.24812,-0.12406 0.18882,-3.40589 0.13719,-3.61245 -1.4994,-3.27044 -4.45818,-4.19135 -4.25264,-8.00228 0.42449,-1.69801 -1.68566,-1.25966 -1.30323,-2.78937 -1.26127,-3.72984 0.62163,-3.23123 -0.54873,-4.50414 -1.10735,-0.83051 -1.77134,-1.19573 -2.2635,-1.85195 -1.17088,-1.99202 -2.91952,-3.27497 -4.64132,-4.70991 -0.49261,-0.65681 -1.08173,-1.46328 -2.08059,-1.46328 -2.21348,-0.42841 -3.03904,0.44287 -3.17805,1.30323 -0.12773,0.98162 -1.46338,1.47677 -5.05287,1.30323 -1.12591,-0.88663 -1.59572,-2.05341 -2.99514,-2.81223 -0.72536,-0.96717 -3.0276,-0.54873 -4.11545,-0.54873 -1.46204,0 -2.80904,-1.36531 -4.11546,-1.69191 -1.96852,-0.079 -4.04422,-0.1761 -5.99028,0.18291 -2.35252,0.88149 -2.55129,-0.46371 -2.60645,-1.66905 -1.66426,-1.30664 -3.55946,-2.02646 -5.23578,-3.36095 -0.81102,-0.60826 -1.34745,-0.31093 -2.62932,-0.57159 -1.12179,-0.22812 -1.48406,-1.76252 -2.99514,-1.48614 -1.27536,0.23327 -1.89964,-1.94733 -2.24063,-2.62932 -0.14471,-0.13281 -0.32657,-0.1463 -0.48014,-0.2515 -0.0289,0.21337 0.0271,0.4634 -0.0228,0.66305 -0.1945,0.778 -0.25865,1.86148 -0.0915,2.83509 0.0836,0.4868 0.215,0.95179 0.43441,1.32609 0.2194,0.3743 0.50622,0.66891 0.89168,0.82309 0.69178,0.27671 1.38881,0.54638 2.08059,0.82309 l -12.43782,9.96855 -1.2575,2.49214 0.41154,5.39582 c 0.081,0 0.79719,0.006 1.44041,0.0686 0.64323,0.0629 1.2152,0.17949 1.05173,0.34295 -0.63653,0.63653 -1.46796,0.92484 -2.24064,1.28037 -0.38634,0.17776 -0.74523,0.38786 -1.07459,0.64018 -0.32936,0.25232 -0.61139,0.55972 -0.82309,0.98314 -0.20925,0.41849 -0.33083,0.75848 -0.36582,1.02886 -0.035,0.27038 0.0173,0.47389 0.11432,0.64018 0.19392,0.33259 0.60678,0.5056 1.07459,0.68591 0.46781,0.18031 0.99151,0.35147 1.39468,0.73164 0.20159,0.19009 0.35819,0.44843 0.48014,0.7545 0.12195,0.30607 0.20577,0.6771 0.20577,1.14318 0,0.29506 -0.30519,1.38433 -0.45727,2.53787 -0.0761,0.57676 -0.12562,1.18652 -0.0686,1.69191 0.057,0.50538 0.22169,0.92271 0.52587,1.16604 0.69178,0.55343 1.3888,1.09277 2.08059,1.64619 l -3.33809,9.557 c -0.13835,0 -0.29981,0.0605 -0.45728,0.0915 0.0603,0.28506 0.11476,0.558 0.22864,0.91454 0.2176,-0.21759 2.00015,-0.29012 4.04687,-0.29723 2.04671,-0.007 4.35163,0.0457 5.64732,0.0457 0.46214,0 1.19988,-0.6026 2.24064,-1.09745 0.52037,-0.24743 1.13615,-0.46319 1.80622,-0.57159 0.67008,-0.1084 1.39465,-0.11433 2.21778,0.0915 1.88188,0.47047 3.09034,0.38626 4.00114,0.54873 0.45539,0.0812 0.82503,0.21445 1.18891,0.52586 0.36388,0.31142 0.72426,0.78548 1.09745,1.53187 0.72118,1.44235 0.79104,2.0132 0.91455,2.65218 0.12351,0.63897 0.29077,1.35891 1.16604,3.10946 0.18888,0.37775 0.51469,0.69485 0.91455,0.98313 0.39986,0.28829 0.86617,0.53779 1.37182,0.80023 0.50565,0.26245 1.04849,0.54573 1.55473,0.84596 0.50623,0.30022 0.99305,0.62722 1.39468,1.02886 0.95932,0.95931 1.51496,1.90035 2.012,2.78937 0.49705,0.88901 0.93536,1.73558 1.64618,2.44641 0.33901,0.339 0.75484,0.56868 1.23464,0.7545 0.4798,0.18582 1.01905,0.31355 1.55473,0.45727 0.53568,0.14371 1.07095,0.29033 1.57759,0.503 0.50665,0.21267 0.97913,0.49899 1.37182,0.89168 0.58798,0.58798 1.12252,0.93081 1.60046,1.18891 0.47793,0.25811 0.89803,0.43371 1.28036,0.64018 0.38233,0.20648 0.72769,0.45862 1.02886,0.89169 0.30118,0.43307 0.56575,1.05123 0.80023,1.98913 0.16089,0.64355 0.53674,1.12178 1.05173,1.48614 0.51499,0.36436 1.16134,0.60937 1.87482,0.80023 1.42695,0.38171 3.10272,0.52417 4.38982,0.84595 1.83079,0.4577 2.95046,0.72047 4.18405,1.02887 0.87583,0.21896 1.11711,0.29561 1.07459,0.29723 -0.0425,0.001 -0.37995,-0.0541 -0.68591,-0.11432 -0.61191,-0.12032 -1.09781,-0.22301 1.16605,0.34295 1.54745,0.38687 2.31991,0.511 2.97227,0.80023 0.65236,0.28923 1.1942,0.75978 2.2635,1.82909 0.40976,0.40976 0.74203,0.65928 1.02887,0.82309 0.28684,0.16382 0.53817,0.237 0.73163,0.22864 0.38694,-0.0168 0.60944,-0.30879 0.80023,-0.57159 0.19079,-0.2628 0.34051,-0.49286 0.57159,-0.41155 0.23108,0.0813 0.54393,0.47054 1.05173,1.48614 0.40193,0.80386 0.48008,1.32243 0.45727,1.66905 -0.0228,0.34662 -0.16067,0.52111 -0.18291,0.68591 -0.0222,0.1648 0.0765,0.31319 0.48014,0.57159 0.40366,0.2584 1.12297,0.63008 2.37782,1.2575 1.80659,0.90329 3.16808,1.69727 4.50414,2.58359 1.33606,0.88632 2.65616,1.85493 4.38982,3.15518 0.49202,0.36902 0.80817,0.53452 1.02886,0.5716 0.2207,0.0371 0.32728,-0.0388 0.41155,-0.18291 0.0843,-0.14408 0.14589,-0.35142 0.22864,-0.52587 0.0828,-0.17444 0.19541,-0.31178 0.41154,-0.36582 0.39035,0.29276 0.81576,0.44728 1.28037,0.52587 0.4646,0.0786 0.97632,0.0604 1.48613,0 1.01963,-0.1209 2.08342,-0.43665 3.10946,-0.66305 0.51302,-0.1132 1.01511,-0.20173 1.48614,-0.22863 0.47103,-0.0269 0.92612,0.003 1.32609,0.13718 0.39997,0.1345 0.75187,0.38347 1.05173,0.7545 0.29985,0.37103 0.5381,0.87207 0.70877,1.55473 0.0776,0.31057 0.21466,0.56612 0.38868,0.77736 0.17403,0.21124 0.39558,0.37606 0.64019,0.503 0.48921,0.25388 1.0752,0.35891 1.69191,0.36582 0.6167,0.007 1.24563,-0.086 1.78336,-0.20577 0.53773,-0.11977 1.00519,-0.26253 1.2575,-0.38869 0.65782,-0.3289 1.22215,-0.38944 1.71477,-0.2515 0.49263,0.13795 0.91422,0.46685 1.28037,0.89169 0.7323,0.84967 1.23318,2.10052 1.69191,3.018 0.17521,0.35042 1.07079,1.18135 1.98914,2.10345 0.91834,0.92211 1.86253,1.91885 2.19491,2.5836 0.26083,0.52167 0.62603,0.81156 1.006,1.006 0.37997,0.19443 0.76716,0.29808 1.09745,0.48013 0.3303,0.18206 0.59696,0.45287 0.70878,0.93741 0.11181,0.48454 0.0697,1.18447 -0.20578,2.28637 -0.12281,0.49125 0.0401,1.02963 0.34296,1.57759 0.30286,0.54796 0.75699,1.1136 1.2575,1.66905 1.00095,1.11088 2.16089,2.17261 2.58363,3.018 0.35469,0.70947 0.61282,1.42833 0.77736,2.14918 0.16447,0.72085 0.23237,1.4578 0.27437,2.19491 0.0839,1.47424 -8e-5,2.98124 0,4.54987 0,1.40487 0.0977,2.56462 0.27436,3.70391 0.17662,1.13929 0.43869,2.25783 0.77736,3.61246 0.27071,1.08302 0.77312,2.18365 1.34892,3.24663 0.5758,1.06299 1.22147,2.08155 1.78337,3.01801 0.46839,0.78067 0.77209,1.49232 0.93744,2.14918 0.16528,0.65686 0.19557,1.27616 0.11428,1.82909 -0.0813,0.55293 -0.27751,1.04015 -0.54872,1.509 -0.27122,0.46885 -0.62424,0.92145 -1.02883,1.32609 -0.42852,0.42847 -0.69901,0.93106 -0.86882,1.48614 -0.16989,0.55509 -0.238,1.14812 -0.22864,1.7605 0.0183,1.22478 0.31205,2.50584 0.57156,3.54387 0.30173,1.20688 0.67157,2.50026 1.23464,3.56673 0.28153,0.53323 0.60667,0.99556 1.006,1.37182 0.39932,0.37626 0.86538,0.66219 1.41754,0.80022 0.69828,0.17457 1.07807,0.46233 1.28037,0.80023 0.20229,0.33791 0.23829,0.73364 0.25153,1.14318 0.0132,0.40955 0.007,0.82229 0.13719,1.21178 0.13089,0.38948 0.38191,0.75113 0.93737,1.02886 0.79631,0.39815 3.66923,3.31498 4.18408,3.65819 0.56344,0.28174 1.09117,0.71105 1.55473,1.23463 0.46349,0.52358 0.87687,1.1375 1.25747,1.78337 0.76119,1.29173 1.36582,2.70888 1.89772,3.7725 0.35118,0.70236 0.47432,1.37303 0.52582,2.012 0.0512,0.63898 0.0373,1.25916 0.0688,1.82909 0.0315,0.56994 0.12064,1.10521 0.41154,1.60046 0.29083,0.49525 0.77056,0.93404 1.60046,1.34895 1.37401,0.68706 2.51317,1.45309 3.58955,2.30923 1.07639,0.85615 2.10924,1.812 3.22382,2.92655 1.04353,1.04359 2.05655,1.79201 3.08655,2.56073 1.03,0.76872 2.07031,1.54443 3.17809,2.65218 0.78387,0.78389 1.43071,1.24117 2.03482,1.48614 0.60412,0.24497 1.14977,0.29395 1.73764,0.22864 0.58787,-0.0653 1.20837,-0.24171 1.94345,-0.38869 0.735,-0.14697 1.60645,-0.27436 2.65218,-0.27436 0.3307,0 0.65328,-0.18616 1.02883,-0.48014 0.37555,-0.29397 0.79536,-0.68262 1.30326,-1.07459 0.50783,-0.39197 1.10141,-0.80348 1.8291,-1.09745 0.72761,-0.29397 1.59445,-0.48014 2.62928,-0.48014 0.17588,0 0.34994,0 0.5259,0 -0.0887,-0.72008 -0.25761,-1.41005 -0.5259,-2.05773 -1.24993,-3.01775 1.06395,-0.13718 -4.84709,-0.13718 -4.5311,-10e-6 -8.30825,-1.6203 -8.96256,-3.08659 -0.57543,-1.28954 -0.58348,-3.4268 1.02891,-6.83623 1.12562,-2.38009 2.3904,-6.71167 2.81219,-7.13346 1.09497,-1.09495 2.38623,-1.39151 1.14318,-3.79537 -1.30414,-2.52192 -3.32924,-3.49618 -7.20201,-3.24664 -2.70318,0.17418 -4.70187,-0.83979 -4.91572,-2.69791 -0.11392,-0.9907 -0.17648,-5.80805 1.0289,-7.45355 5.04858,0.51848 2.38052,1.39838 6.92765,-2.97227 4.5736,-4.62488 -0.50103,-12.37229 4.66418,-20.39438 1.44871,-3.17129 0.75095,-2.07949 0.68591,-11.02028 l -0.66301,-11.79764 c 4.05729,1.08962 7.03462,-3.14107 8.3452,1.02886 1.90093,6.53889 1.73829,10.91657 7.63646,7.8651 1.53621,-0.79479 3.16271,-2.14645 5.03,-2.99514 1.86728,-0.84869 5.16455,-2.24683 5.5559,-2.74364 2.85712,-3.62983 1.5371,-6.22566 -3.521,-10.65446 -2.87797,-2.51984 -4.27188,-8.3839 -4.66418,-10.83737 -0.26895,-1.6822 -3.01428,-2.74545 -3.61246,-3.40668 -0.8667,-0.9576 1.66279,-1.73684 2.17201,-4.98428 0.40211,-2.56406 -0.80144,-5.73275 -1.28037,-8.07087 -0.55787,-2.72323 -0.53241,-4.60127 0.11436,-7.01914 0.51317,-1.91885 1.27129,-3.77745 1.006,-6.036 -0.28014,-2.38345 -1.88192,-4.78598 -1.37182,-5.73878 0.37994,-1.76631 1.82265,-2.45247 3.17801,-3.49813 -1.3029,-3.353 -1.19966,-9.43614 1.44045,-9.57987 l 0.96027,-1.09746 c -1.15884,-1.54017 -3.28007,-2.92391 -4.93855,-3.81823 -1.48866,-1.58379 -3.27349,-2.15573 -5.41872,-2.42355 -1.46759,0 -1.6734,-2.02947 -2.012,-3.38382 -0.26675,-1.06664 -0.36238,-2.17897 0.13718,-3.17804 0.74313,-1.48618 0.73332,-1.40529 -0.57155,-2.05773 -0.76069,-0.38033 -0.6407,-2.1488 -0.36582,-2.42355 -0.2721,-1.89879 0.11479,-1.41623 0.16001,-3.38382 0.21034,-0.84129 0.0117,-3.61383 0.22863,-4.48127 -0.30787,-1.82295 -1.09189,-1.81479 -0.503,-3.79537 0.0911,-0.81319 -0.0307,-2.90035 0.11436,-3.68105 0.62562,-1.25125 -1.36853,-2.221 -1.87482,-2.42354 -1.97886,-0.79273 -2.96832,-2.65561 -4.84709,-3.56673 -0.81563,-0.20391 -1.96657,0 -2.81227,0 -2.04141,0.20918 -3.05627,-1.43147 -4.48128,-2.60646 z"
            style="fill:#fdf9d2;fill-opacity:1;fill-rule:evenodd;stroke:#d39062;stroke-width:0.365818;stroke-linecap:butt;stroke-linejoin:miter;stroke-miterlimit:4;stroke-dasharray:none;stroke-opacity:1"
            id="San_Fabian"
            inkscape:connector-curvature="0" />
        <path
            d="m 243.91452,193.1704 c -0.23708,-0.23239 -0.44254,-0.44254 -0.68591,-0.68591 -0.67276,-0.67276 -1.14738,-1.21001 -1.46328,-1.69191 -0.31589,-0.4819 -0.46391,-0.9087 -0.54872,-1.34896 -0.16963,-0.88051 -0.0228,-1.82029 -0.0228,-3.42954 0,-0.29019 0.15407,-0.54528 0.36582,-0.77737 0.21174,-0.23209 0.4839,-0.45177 0.7545,-0.66304 0.27059,-0.21128 0.53221,-0.41243 0.70877,-0.64019 0.17656,-0.22775 0.27616,-0.47298 0.20577,-0.7545 -0.18348,-0.73392 -0.43091,-1.83853 -0.41154,-2.81223 0.01,-0.48685 0.0839,-0.94103 0.27436,-1.30322 0.19041,-0.36219 0.4796,-0.64005 0.93741,-0.7545 0.89081,-0.22271 1.35127,-0.33612 1.509,-0.43441 0.15774,-0.0983 0.0191,-0.18361 -0.2515,-0.27437 -0.27062,-0.0907 -0.68035,-0.18859 -1.07459,-0.38868 -0.39424,-0.20009 -0.76999,-0.48825 -0.98314,-0.91454 -0.024,-0.048 -1.18607,-0.99799 -2.21777,-1.96628 -0.51585,-0.48414 -1.01301,-0.96505 -1.30323,-1.34895 -0.14511,-0.19196 -0.22249,-0.3774 -0.2515,-0.503 -0.029,-0.1256 0.0103,-0.19692 0.13718,-0.22864 1.05982,-0.26496 1.36233,-0.50315 1.7605,-0.7545 0.39818,-0.25135 0.89085,-0.51995 2.28637,-0.86882 0.90983,-0.22746 2.00732,-0.15479 2.78937,-0.41155 0.39102,-0.12838 0.70643,-0.33062 0.86881,-0.70877 0.16238,-0.37815 0.17454,-0.9252 -0.0228,-1.71477 -0.0842,-0.3369 -0.80254,-1.45941 -1.69191,-2.28637 -0.44469,-0.41347 -0.91435,-0.75471 -1.39469,-0.89168 -0.24016,-0.0685 -0.4804,-0.0734 -0.70877,-0.0228 -0.22837,0.0506 -0.46027,0.16305 -0.66304,0.36582 -0.66817,0.66817 -1.19118,1.11862 -1.69191,1.32609 -0.50074,0.20747 -0.96459,0.16933 -1.53187,-0.11432 -0.29666,-0.14833 -0.66684,-0.36739 -1.006,-0.66304 -0.33916,-0.29566 -0.66068,-0.65452 -0.91455,-1.07459 -0.25386,-0.42007 -0.43936,-0.89596 -0.48013,-1.41755 -0.0408,-0.52159 0.0657,-1.0917 0.36582,-1.69191 0.49324,-0.98649 0.85691,-1.54078 1.41754,-1.92055 0.56063,-0.37976 1.31707,-0.58648 2.62932,-0.91454 0.95653,-0.23913 1.45552,-0.47796 1.69191,-0.73164 0.23639,-0.25368 0.20662,-0.53364 0.11432,-0.82309 -0.0923,-0.28945 -0.24483,-0.59096 -0.27436,-0.93741 -0.0296,-0.34645 0.0783,-0.74137 0.503,-1.16605 0.32105,-0.32105 0.58236,-0.6033 0.7545,-0.89168 0.17214,-0.28837 0.25195,-0.58175 0.16004,-0.84595 -0.0919,-0.2642 -0.352,-0.50597 -0.82309,-0.7545 -0.47109,-0.24853 -1.16091,-0.49029 -2.12632,-0.73164 -1.10102,-0.27526 -2.04108,-0.77742 -2.94941,-1.2575 -0.90833,-0.48009 -1.78786,-0.93282 -2.72077,-1.16605 -1.45101,-0.36275 -2.8619,-0.78334 -4.32123,-1.09745 -1.45933,-0.31412 -2.95539,-0.52587 -4.57273,-0.52587 -1.25374,0 -2.46847,0.0961 -3.56673,0 -0.54913,-0.0481 -1.06561,-0.12842 -1.55473,-0.32009 -0.48912,-0.19166 -0.9568,-0.47666 -1.37182,-0.89168 -1.08069,-1.08069 -1.556,-1.86054 -1.98914,-2.62932 -0.43313,-0.76877 -0.81617,-1.52265 -1.64618,-2.62932 -0.3144,-0.4192 -0.72959,-0.86021 -1.23464,-1.28036 -0.50505,-0.42015 -1.09241,-0.83831 -1.71477,-1.18891 -0.62236,-0.35061 -1.29994,-0.63541 -1.96628,-0.84596 -0.66633,-0.21055 -1.32928,-0.34295 -1.96627,-0.34295 -0.60657,0 -1.01707,0.16374 -1.32609,0.38868 -0.30902,0.22493 -0.50441,0.51383 -0.73164,0.7545 -0.22723,0.24066 -0.48475,0.43294 -0.84595,0.48014 -0.3612,0.0472 -0.8438,-0.0561 -1.55473,-0.41155 -1.31258,-0.65629 -2.2163,-1.0625 -3.20091,-1.30323 -0.98462,-0.24073 -2.05045,-0.32009 -3.68105,-0.32009 -0.47578,0 -0.98734,-0.0847 -1.509,-0.2515 -0.52166,-0.16679 -1.04435,-0.41079 -1.55473,-0.68591 -1.02074,-0.55023 -1.95089,-1.24211 -2.58359,-1.87482 -0.35525,-0.35525 -0.69727,-0.61977 -1.05173,-0.80023 -0.35446,-0.18045 -0.73859,-0.27996 -1.14318,-0.34295 -0.80918,-0.12598 -1.77138,-0.0915 -3.08659,-0.0915 -0.77978,0 -1.26059,0.0997 -1.60046,0.2515 -0.33987,0.1518 -0.52614,0.36919 -0.70877,0.57159 -0.18263,0.2024 -0.355,0.39692 -0.66305,0.54872 -0.30805,0.1518 -0.74715,0.2515 -1.46327,0.2515 -0.73647,0 -1.99741,-0.15371 -3.20091,-0.1829 -0.60175,-0.0146 -1.18883,0.004 -1.69191,0.0914 -0.50308,0.0868 -0.92811,0.24221 -1.18891,0.503 -0.31808,0.31807 -0.6936,0.57603 -1.09746,0.77736 -0.40385,0.20134 -0.84425,0.33986 -1.30323,0.43441 -0.44796,0.0923 -0.92307,5e-5 -1.39468,0 0.60497,0.4806 1.19072,0.93354 2.012,1.60046 0.59771,0.48537 1.17312,0.98377 1.62332,1.44041 0.45021,0.45664 0.76534,0.88933 0.84596,1.21177 0.35299,1.41198 0.77039,2.14212 0.93741,2.83509 0.0835,0.34649 0.0959,0.67573 0.0228,1.0746 -0.073,0.39886 -0.24573,0.88014 -0.54872,1.48613 -0.18842,0.37683 -0.49211,0.7107 -0.89169,1.02887 -0.39957,0.31816 -0.87848,0.6011 -1.37182,0.89168 -0.98667,0.58117 -2.04062,1.14895 -2.69791,1.80623 -0.37937,0.37937 -4.98426,2.68113 -4.98427,2.90368 0,1.31231 -0.0861,2.44864 -0.22864,3.521 -0.14257,1.07237 -0.35748,2.09303 -0.61732,3.13232 -0.24428,0.97717 -0.16466,2.30505 -0.27436,3.45242 -0.0549,0.57368 -0.15673,1.094 -0.36582,1.509 -0.20909,0.41499 -0.51741,0.7238 -1.006,0.84595 -1.00974,0.25244 -1.88072,0.20437 -2.58359,0.43441 -0.35144,0.11502 -0.67517,0.29975 -0.93741,0.61732 -0.26224,0.31757 -0.47546,0.78151 -0.64018,1.44041 -0.1236,0.49438 -0.66167,1.49436 -1.16605,2.44641 -0.50438,0.95205 -0.95746,1.84031 -0.89168,2.10346 0.36463,1.45854 0.65824,3.22926 0.86882,4.43554 0.55777,0.071 1.06434,0.13467 1.57759,0.2515 0.53559,0.12192 0.98913,0.30558 1.30323,0.54873 0.31409,0.24315 0.47686,0.56508 0.38868,1.006 -0.10546,0.52729 -0.10378,0.96668 -0.0457,1.37182 0.058,0.40514 0.1671,0.76019 0.29723,1.14318 0.13013,0.383 0.2779,0.79667 0.38868,1.2575 0.11078,0.46084 0.18291,0.98466 0.18291,1.62332 -1e-5,1.07878 -0.31241,2.11018 -0.57159,3.0866 -0.1296,0.48821 -0.23878,0.96385 -0.29723,1.41754 -0.0585,0.4537 -0.0576,0.88999 0.0457,1.30323 0.16065,0.64263 0.35393,1.6214 0.45727,2.67505 0.10334,1.05365 0.11322,2.17863 -0.0457,3.13232 -0.18385,0 -0.31999,0.0913 -0.43441,0.2515 -0.11441,0.16016 -0.19369,0.38671 -0.2515,0.66304 -0.11561,0.55267 -0.14815,1.3043 -0.11431,2.05773 0.0677,1.50687 0.33904,3.0481 0.38868,3.24664 0.15134,0.60538 0.35224,0.98743 0.52586,1.2575 0.17362,0.27007 0.3332,0.43377 0.41155,0.59446 0.0784,0.16068 0.0658,0.31723 -0.0686,0.59445 -0.13444,0.27722 -0.40406,0.68355 -0.86882,1.30323 l -5.39582,5.80737 -1.66904,-0.41155 v 7.88796 c 0.13833,0.55342 0.29605,1.09276 0.43441,1.64618 0.14479,0.57919 0.0653,0.99391 -0.11432,1.32609 -0.17961,0.33219 -0.46988,0.5836 -0.7545,0.84596 -0.28462,0.26236 -0.56141,0.54483 -0.73164,0.91455 -0.0707,0.1535 0.001,0.42369 -0.0228,0.61731 0.14205,-0.0184 0.2634,-0.0538 0.41155,-0.0686 0.45388,-0.0454 0.92382,-0.0867 1.34895,-0.18291 0.42514,-0.0962 0.81118,-0.26245 1.09746,-0.54873 0.63932,-0.63932 1.21263,-1.06787 1.80623,-1.44041 0.5936,-0.37253 1.19867,-0.69078 1.92054,-1.05173 0.76012,-0.38005 1.31794,-0.75885 1.76051,-1.12031 0.44256,-0.36147 0.78187,-0.69861 1.14318,-0.96028 0.36131,-0.26167 0.74116,-0.44519 1.2575,-0.52586 0.51634,-0.0807 1.17294,-0.0672 2.08059,0.11432 0.68118,0.13624 1.18948,0.18427 1.60046,0.16004 0.41097,-0.0242 0.71929,-0.11746 0.98313,-0.27436 0.52768,-0.31379 0.87716,-0.8543 1.55473,-1.53187 0.54871,-0.54872 1.22886,-0.87736 1.94341,-1.16604 0.71455,-0.28868 1.47402,-0.54266 2.21778,-0.91455 1.13188,-0.56594 1.57501,-0.84118 2.08059,-0.89168 0.50557,-0.0505 1.08058,0.12725 2.49214,0.48014 1.10555,0.27639 2.24253,0.38306 3.31523,0.36581 1.07269,-0.0173 2.07403,-0.1584 2.90368,-0.36581 0.19419,-0.0485 0.81129,-0.85795 1.44041,-1.71478 0.62912,-0.85682 1.26847,-1.77512 1.46327,-2.03486 0.47042,-0.62721 1.12487,-1.02211 1.80623,-1.28037 0.68136,-0.25826 1.3808,-0.36582 1.92055,-0.36582 1.73178,1e-5 3.97862,0.41155 6.24177,0.41155 0.65486,0 1.16372,-0.0703 1.5776,-0.20577 0.41387,-0.13544 0.72931,-0.33872 1.006,-0.57159 0.55338,-0.46575 0.9273,-1.08736 1.55472,-1.71478 0.60879,-0.60878 0.9954,-1.32805 1.34896,-2.05773 0.35356,-0.72967 0.67579,-1.4574 1.14318,-2.08059 0.54719,-0.72959 1.02952,-1.26402 1.64618,-1.60045 0.61667,-0.33644 1.37817,-0.48014 2.51501,-0.48014 1.01007,1e-5 2.33133,0.0299 3.47527,-0.16005 0.57197,-0.095 1.10095,-0.24007 1.509,-0.48013 0.40806,-0.24007 0.71055,-0.57867 0.82309,-1.02887 0.11775,-0.47098 0.31895,-0.70194 0.59446,-0.80022 0.2755,-0.0983 0.62516,-0.0683 1.006,0 0.38084,0.0683 0.80089,0.17712 1.23464,0.20577 0.43375,0.0287 0.869,-0.0115 1.30322,-0.22864 0.69928,-0.34963 1.66608,-0.46378 2.69791,-0.48013 1.03184,-0.0164 2.12515,0.0685 3.10946,0.0685 1.33332,0 2.60188,-0.0562 3.72678,-0.18291 1.12489,-0.12671 2.11836,-0.33977 2.92654,-0.66305 1.40565,-0.56226 3.5717,-1.19015 5.39582,-1.64618 0.72829,-0.18207 1.22691,-0.61359 1.92055,-0.98313 0.34683,-0.18478 0.74293,-0.35294 1.23464,-0.48014 0.48564,-0.12563 1.0798,-0.20386 1.80623,-0.20577 z"
            style="fill:#fdf9d2;fill-opacity:1;fill-rule:evenodd;stroke:#d39062;stroke-width:0.365818;stroke-linecap:butt;stroke-linejoin:miter;stroke-miterlimit:4;stroke-dasharray:none;stroke-opacity:1"
            id="San_Nicolas"
            inkscape:connector-curvature="0" />
        <path
            d="m 347.62403,158.53197 c -0.1336,-0.022 -0.22472,-0.0175 -0.36581,-0.0457 -0.83211,-0.16642 -1.56156,-0.49252 -2.24064,-0.89168 -0.67909,-0.39916 -1.3027,-0.87355 -1.89769,-1.34896 -0.59498,-0.4754 -1.15781,-0.9538 -1.73763,-1.34895 -0.57983,-0.39515 -1.17265,-0.71042 -1.80623,-0.86882 -0.43907,-0.10977 -0.86914,-0.37438 -1.28037,-0.68591 -0.41122,-0.31153 -0.81554,-0.67924 -1.21177,-1.006 -0.39623,-0.32676 -0.77195,-0.59905 -1.16605,-0.7545 -0.39409,-0.15545 -0.80696,-0.17954 -1.21177,0.0228 -0.91972,0.45986 -1.89808,0.66706 -2.97227,0.7545 -1.07419,0.0874 -2.23776,0.0457 -3.49814,0.0457 -1.35492,0 -2.42522,-0.0576 -3.38382,-0.34295 -0.4793,-0.14266 -0.93152,-0.34481 -1.37182,-0.61732 -0.4403,-0.2725 -0.88474,-0.61037 -1.32609,-1.05173 -1.32841,-1.3284 -2.39988,-2.39988 -4.04687,-4.04686 -0.73077,-0.73078 -1.11878,-1.30535 -1.34895,-1.69191 -0.23018,-0.38657 -0.28659,-0.59775 -0.3201,-0.59446 -0.0335,0.004 -0.0421,0.22423 -0.1829,0.66305 -0.14079,0.43881 -0.43115,1.09201 -0.98314,2.012 -0.99373,1.65622 -1.60848,2.46875 -1.98914,2.74364 -0.19033,0.13744 -0.32177,0.12915 -0.41154,0.0457 -0.0898,-0.0834 -0.13569,-0.23598 -0.16005,-0.45727 -0.0487,-0.44259 -0.002,-1.08142 0,-1.57759 7.3e-4,-0.24808 -0.007,-0.45745 -0.0457,-0.59446 -0.039,-0.137 -0.0917,-0.2171 -0.20577,-0.16004 -0.81825,0.40912 -1.39274,0.8658 -1.92055,1.39468 -0.52781,0.52889 -1.02388,1.13819 -1.73763,1.85196 -0.58591,0.5859 -1.0267,0.8655 -1.39469,0.93741 -0.36798,0.0719 -0.65737,-0.0544 -0.96027,-0.2515 -0.30291,-0.19708 -0.61533,-0.46487 -1.006,-0.68591 -0.39067,-0.22104 -0.85485,-0.41155 -1.48614,-0.41155 -0.58863,0 -1.08609,-0.12141 -1.509,-0.32009 -0.42291,-0.19868 -0.77194,-0.45649 -1.09745,-0.77736 -0.65103,-0.64174 -1.18049,-1.45486 -1.85196,-2.12632 -1.04011,-1.04012 -1.83107,-2.24265 -3.24664,-3.65819 -0.42145,-0.42145 -1.53002,-1.04123 -2.53786,-1.7605 -0.50393,-0.35963 -0.97449,-0.75926 -1.32609,-1.14318 -0.35161,-0.38392 -0.5716,-0.76844 -0.5716,-1.14318 0,-0.27913 -0.16098,-0.53101 -0.38868,-0.77737 -0.2277,-0.24635 -0.54235,-0.48427 -0.84595,-0.73163 -0.3036,-0.24736 -0.59539,-0.49524 -0.82309,-0.77737 -0.2277,-0.28212 -0.38869,-0.58675 -0.38869,-0.93741 0,-0.67679 -0.0483,-1.22765 -0.16004,-1.69191 -0.11175,-0.46425 -0.28954,-0.84796 -0.48014,-1.21177 -0.3812,-0.72761 -0.87261,-1.37941 -1.37182,-2.37782 -0.56612,-1.13225 -0.99305,-1.94155 -1.46327,-2.67505 -0.47022,-0.7335 -0.99198,-1.38065 -1.78337,-2.17204 -0.47281,-0.47282 -0.96939,-1.26391 -1.55472,-2.10346 -0.58534,-0.83955 -1.25151,-1.73313 -2.0806,-2.35496 -1.03829,-0.77871 -2.32225,-1.39782 -3.40668,-2.12632 -0.54222,-0.36425 -1.02118,-0.76883 -1.41755,-1.21177 -0.39637,-0.44294 -0.70034,-0.92654 -0.84595,-1.509 -0.12206,-0.48821 -0.26636,-1.03099 -0.45727,-1.53186 -0.19092,-0.50088 -0.42533,-0.95876 -0.73164,-1.3261 -0.30632,-0.36734 -0.6978,-0.64404 -1.16605,-0.73163 -0.46825,-0.0876 -1.01519,0.004 -1.69191,0.34295 -0.46521,0.23261 -1.13605,0.74485 -1.96627,1.09746 -0.41511,0.1763 -0.88865,0.32849 -1.37182,0.36582 -0.48317,0.0373 -0.99609,-0.0372 -1.53187,-0.2515 -0.48286,-0.19315 -1.61034,-0.41386 -2.72077,-0.68591 -1.11043,-0.27206 -2.20001,-0.59957 -2.53786,-0.93741 -0.54,-0.54 -0.91686,-0.85172 -1.23464,-1.02887 -0.31778,-0.17715 -0.5596,-0.21671 -0.80023,-0.18291 -0.48126,0.0676 -0.96899,0.41155 -2.012,0.41155 -0.65713,0 -1.16494,-0.0691 -1.60046,-0.18291 -0.43551,-0.11385 -0.79712,-0.28261 -1.16604,-0.43441 -0.36892,-0.1518 -0.73157,-0.2977 -1.18891,-0.41155 -0.45735,-0.11385 -1.01398,-0.18291 -1.71478,-0.18291 -1.20317,0 -2.17089,-0.0445 -3.018,0.0915 -0.42356,0.068 -0.82066,0.18908 -1.18891,0.36582 -0.36824,0.17674 -0.71631,0.41909 -1.05173,0.7545 -0.36129,0.3613 -0.7087,0.62826 -1.05172,0.80023 -0.34302,0.17196 -0.67633,0.25582 -1.02887,0.22863 -0.35254,-0.0272 -0.7076,-0.15252 -1.09745,-0.38868 -0.38986,-0.23616 -0.82541,-0.59677 -1.28037,-1.05173 -0.3709,-0.3709 -0.86081,-0.67811 -1.41754,-0.93741 -0.55674,-0.2593 -1.16513,-0.45704 -1.80623,-0.61732 -1.28221,-0.32055 -2.64718,-0.45727 -3.65819,-0.45727 -1.1169,0 -2.1592,0.0705 -3.10945,-0.0457 -0.47513,-0.0582 -0.92192,-0.15885 -1.34896,-0.34295 -0.42703,-0.1841 -0.81424,-0.44842 -1.18891,-0.82309 -0.38237,-0.38236 -1.64711,-1.06483 -2.83509,-1.71478 -1.18798,-0.64994 -2.31826,-1.27557 -2.44641,-1.53186 -0.3112,-0.62241 -0.57684,-2.17839 -0.89168,-3.65818 -0.15742,-0.7399 -0.31937,-1.455084 -0.503,-2.034869 -0.18364,-0.579786 -0.39059,-1.01887 -0.61732,-1.18891 -1.28648,-0.964853 -2.13065,-1.863589 -2.83509,-2.492138 0.008,0.412087 0.0395,0.854025 -0.0686,1.394683 -0.11851,0.592582 -2.01435,0.521906 -2.44641,0.845955 -0.99947,0.749576 -1.69191,-0.634366 -1.69191,-1.669047 2e-5,-1.078623 -0.92328,-1.968139 -1.66905,-2.057728 -1.3064,-0.156944 -2.94345,-1.029318 -2.81222,-1.303228 0.43573,-0.909615 -2.04174,-1.13801 -3.45242,-1.143183 -1.40393,-0.0051 0.24203,-2.260567 -2.62932,-1.94341 -1.07439,0.118679 -0.5576,-2.021732 -3.63532,-1.806228 -0.96616,0.06768 -1.75786,-2.273518 -2.2635,-1.280365 -0.33925,0.666375 0.17162,2.653332 -1.78336,1.737638 -0.77988,-0.365285 -0.3115,-1.937704 -0.0686,-2.423547 0.32277,-0.645501 -3.85413,-0.571591 -4.16118,-0.571591 -1.04331,0 -0.21954,2.575405 -0.86882,1.966273 -0.075,-0.07031 -1.378,-0.188718 -0.96027,1.897683 0.13569,0.677767 -1.01459,1.183218 -1.28037,1.714774 -0.34537,0.690753 -0.6868,2.355402 -1.32609,2.675047 -0.5246,0.262292 -0.65826,2.926738 -1.32609,3.269502 -1.91314,0.981915 -1.0576,2.218418 -1.46327,2.88082 -0.76703,1.252449 -0.81084,1.382429 -1.8291,2.400679 -0.52953,0.52955 -0.23527,1.67936 -0.38868,2.44641 -0.0735,0.36728 -0.50556,0.36969 -1.006,0.2515 l -0.13718,3.95542 -2.92655,2.90368 -0.41154,2.08059 -5.39582,-3.33809 0.41154,7.47641 -3.31523,10.79165 c -0.13835,0.34588 -0.46997,0.73094 -0.70877,1.09745 -0.1194,0.18325 -0.21999,0.36065 -0.2515,0.52586 -0.0315,0.16522 0.005,0.32557 0.13718,0.45728 0.55342,0.55342 1.11564,1.09276 1.66905,1.64618 0.48487,0.48487 0.72083,1.04972 0.98313,1.62332 0.2623,0.5736 0.53334,1.17353 1.0746,1.71477 0.14176,0.14177 0.63895,0.51271 0.91454,0.73164 0.47161,4e-5 0.94672,0.0923 1.39468,0 0.45898,-0.0946 0.89938,-0.23308 1.30323,-0.43441 0.40386,-0.20133 0.77938,-0.45929 1.09746,-0.77736 0.2608,-0.2608 0.68583,-0.41616 1.18891,-0.503 0.50308,-0.0868 1.09016,-0.10605 1.69191,-0.0915 1.2035,0.0292 2.46444,0.18291 3.20091,0.18291 0.71612,0 1.15522,-0.0997 1.46327,-0.2515 0.30805,-0.1518 0.48042,-0.34633 0.66305,-0.54873 0.18263,-0.2024 0.3689,-0.41979 0.70877,-0.57159 0.33987,-0.1518 0.82068,-0.2515 1.60046,-0.2515 1.31521,0 2.27741,-0.0345 3.08659,0.0915 0.40459,0.063 0.78872,0.16249 1.14318,0.34295 0.35446,0.18046 0.69648,0.44498 1.05173,0.80023 0.6327,0.6327 1.56285,1.32459 2.58359,1.87482 0.51038,0.27512 1.03307,0.51912 1.55473,0.68591 0.52166,0.16679 1.03322,0.2515 1.509,0.2515 1.6306,0 2.69643,0.0794 3.68105,0.32009 0.98461,0.24073 1.88833,0.64693 3.20091,1.30323 0.71093,0.35546 1.19353,0.45874 1.55473,0.41154 0.3612,-0.0472 0.61872,-0.23947 0.84595,-0.48013 0.22723,-0.24067 0.42262,-0.52957 0.73164,-0.7545 0.30902,-0.22494 0.71952,-0.38869 1.32609,-0.38869 0.63699,0 1.29994,0.13241 1.96627,0.34296 0.66634,0.21055 1.34392,0.49535 1.96628,0.84595 0.62236,0.35061 1.20972,0.76876 1.71477,1.18891 0.50505,0.42015 0.92024,0.86117 1.23464,1.28037 0.83001,1.10666 1.21305,1.86054 1.64618,2.62932 0.43314,0.76877 0.90845,1.54862 1.98914,2.62932 0.41502,0.41502 0.8827,0.70001 1.37182,0.89168 0.48912,0.19167 1.0056,0.27204 1.55473,0.32009 1.09826,0.0961 2.31299,0 3.56673,0 1.61734,0 3.1134,0.21175 4.57273,0.52586 1.45933,0.31412 2.87022,0.73471 4.32123,1.09746 0.93291,0.23323 1.81244,0.68596 2.72077,1.16605 0.90833,0.48008 1.84839,0.98224 2.94941,1.2575 0.96541,0.24135 1.65523,0.4831 2.12632,0.73163 0.47109,0.24853 0.73118,0.4903 0.82309,0.7545 0.0919,0.26421 0.0121,0.55758 -0.16004,0.84596 -0.17214,0.28837 -0.43345,0.57063 -0.7545,0.89168 -0.42468,0.42468 -0.53254,0.8196 -0.503,1.16605 0.0296,0.34645 0.18206,0.64796 0.27436,0.93741 0.0923,0.28945 0.12207,0.56941 -0.11432,0.82309 -0.23639,0.25368 -0.73538,0.49251 -1.69191,0.73164 -1.31225,0.32806 -2.06869,0.53478 -2.62932,0.91454 -0.56063,0.37976 -0.9243,0.93405 -1.41754,1.92055 -0.30011,0.6002 -0.4066,1.17032 -0.36582,1.69191 0.0408,0.52159 0.22627,0.99748 0.48013,1.41754 0.25387,0.42007 0.57539,0.77894 0.91455,1.0746 0.33916,0.29565 0.70934,0.51471 1.006,0.66304 0.56728,0.28365 1.03113,0.32179 1.53187,0.11432 0.50073,-0.20747 1.02374,-0.65792 1.69191,-1.32609 0.20277,-0.20277 0.43467,-0.3153 0.66304,-0.36582 0.22837,-0.0506 0.46861,-0.0456 0.70877,0.0228 0.48034,0.13697 0.95,0.4782 1.39469,0.89168 0.88937,0.82695 1.60768,1.94947 1.69191,2.28636 0.19739,0.78957 0.18524,1.33662 0.0228,1.71478 -0.16238,0.37815 -0.47779,0.58039 -0.86881,0.70877 -0.78205,0.25675 -1.87954,0.18409 -2.78937,0.41155 -1.39552,0.34887 -1.88819,0.61747 -2.28637,0.86882 -0.39817,0.25134 -0.70068,0.48954 -1.7605,0.7545 -0.12689,0.0317 -0.16619,0.10303 -0.13718,0.22863 0.029,0.1256 0.10639,0.31105 0.2515,0.503 0.29022,0.38391 0.78738,0.86481 1.30323,1.34896 1.0317,0.96829 2.19378,1.91829 2.21777,1.96627 0.21315,0.4263 0.5889,0.71446 0.98314,0.91455 0.39424,0.20009 0.80397,0.29793 1.07459,0.38868 0.27062,0.0908 0.40924,0.17608 0.2515,0.27436 -0.15773,0.0983 -0.61819,0.21171 -1.509,0.43441 -0.45781,0.11446 -0.747,0.39231 -0.93741,0.7545 -0.19041,0.36219 -0.26468,0.81638 -0.27436,1.30323 -0.0194,0.9737 0.22806,2.0783 0.41154,2.81223 0.0704,0.28152 -0.0292,0.52675 -0.20577,0.7545 -0.17656,0.22775 -0.43818,0.42891 -0.70877,0.64018 -0.2706,0.21128 -0.54276,0.43096 -0.7545,0.66305 -0.21175,0.23209 -0.36582,0.48717 -0.36582,0.77736 0,1.60926 -0.14676,2.54903 0.0228,3.42955 0.0848,0.44026 0.23283,0.86706 0.54872,1.34896 0.3159,0.4819 0.79052,1.01914 1.46328,1.69191 0.24337,0.24337 0.44883,0.45352 0.68591,0.68591 0.009,-3e-5 0.0137,0 0.0228,0 0.59419,0 1.06763,-0.18405 1.46328,-0.48014 0.39565,-0.29609 0.71751,-0.70089 0.98313,-1.16605 0.53125,-0.93032 0.85814,-2.08209 1.28037,-2.92654 0.13949,-0.27899 0.35646,-0.46432 0.64018,-0.59446 0.28372,-0.13014 0.63151,-0.19461 1.05173,-0.22864 0.84044,-0.068 1.95232,0 3.29236,0 1.44194,0 2.24455,-0.0726 2.85796,-0.32009 0.61341,-0.24753 1.04464,-0.65595 1.71477,-1.32609 1.34587,-1.34587 1.76401,-2.60996 2.90369,-3.74964 0.34685,-0.34686 0.84464,-0.49275 1.41754,-0.52586 0.57291,-0.0331 1.22319,0.052 1.87482,0.20577 1.30327,0.30754 2.60381,0.84947 3.3381,1.14318 1.7213,0.68852 2.67849,1.43491 3.70391,1.98914 0.51271,0.27712 1.02809,0.49824 1.69191,0.66305 0.66382,0.16481 1.46048,0.27436 2.49214,0.27436 1.46244,0 2.52894,0.11867 3.47527,0.13718 0.47317,0.009 0.92493,-0.007 1.37182,-0.0915 0.44689,-0.0848 0.90557,-0.23558 1.39468,-0.48014 0.2658,-0.13289 1.45134,-0.0227 2.7665,0.11432 1.31517,0.13699 2.75287,0.32009 3.45242,0.32009 1.88607,0 3.52435,0.41155 5.80736,0.41155 0.82234,0 1.40355,-0.0672 1.82909,-0.18291 0.42555,-0.11572 0.69551,-0.28591 0.91455,-0.503 0.43808,-0.43418 0.66387,-1.05256 1.41755,-1.80623 0.68831,-0.6883 0.5745,-0.64765 0.45727,-0.503 -0.0586,0.0723 -0.11899,0.16577 -0.0915,0.20577 0.0275,0.04 0.15191,0.0383 0.45727,-0.11432 0.38705,-0.38704 1.07376,-0.58659 1.89768,-0.89168 0.41196,-0.15254 0.85288,-0.31581 1.30323,-0.57159 0.45034,-0.25578 0.93031,-0.58737 1.37182,-1.02886 0.69939,-0.69938 1.28936,-1.1858 1.78336,-1.71478 0.494,-0.52898 0.89025,-1.11457 1.12032,-2.03486 0.0456,-0.18228 0.15498,-0.31963 0.34296,-0.41155 0.18798,-0.0919 0.4423,-0.1398 0.73163,-0.16004 0.57867,-0.0405 1.31995,0.0487 2.05773,0.18291 1.47556,0.26835 2.94511,0.72948 3.08659,0.80022 0.29607,0.14804 3.90307,-0.82309 5.39583,-0.82309 0.32631,0 0.62116,-0.12553 0.89168,-0.32009 0.27051,-0.19456 0.52545,-0.44936 0.77736,-0.70877 0.25191,-0.25942 0.48399,-0.51421 0.7545,-0.70878 0.27051,-0.19456 0.56538,-0.34295 0.89169,-0.34295 0.42213,0 0.78854,-0.12924 1.12031,-0.34296 0.33178,-0.21371 0.62909,-0.50684 0.89169,-0.82309 0.52519,-0.63248 0.92771,-1.36211 1.30322,-1.73763 0.36349,-0.3635 0.87958,-0.51558 1.46328,-0.54873 0.5837,-0.0331 1.24407,0.0683 1.89768,0.22863 1.30723,0.32077 2.6072,0.89198 3.29237,1.16605 0.051,0.0204 1.14049,-0.29115 2.40068,-0.54873 1.26019,-0.25758 2.6875,-0.47702 3.40668,-0.29722 2.24346,0.56085 4.88906,1.2337 6.63046,1.66904 0.53264,0.13317 0.95807,0.45395 1.30323,0.89168 0.34516,0.43774 0.61685,0.99012 0.84596,1.5776 0.4582,1.17494 0.76649,2.49325 1.18891,3.33809 0.29669,0.59339 0.41124,1.05991 0.45727,1.46327 0.046,0.40336 0.0175,0.74022 -0.0228,1.07459 -0.0404,0.33438 -0.0833,0.66531 -0.0457,1.05173 0.0375,0.38642 0.15465,0.83517 0.43441,1.39469 0.0619,0.12374 0.20835,0.12238 0.36582,0.0914 0.15747,-0.0309 0.31892,-0.0914 0.45727,-0.0914 l 3.3381,-9.55701 c -0.69179,-0.55342 -1.38882,-1.09276 -2.08059,-1.64618 -0.30418,-0.24334 -0.46884,-0.66066 -0.52587,-1.16605 -0.057,-0.50538 -0.007,-1.11515 0.0686,-1.69191 0.15208,-1.15353 0.45727,-2.2428 0.45727,-2.53786 0,-0.46609 -0.0838,-0.83711 -0.20577,-1.14319 -0.12195,-0.30607 -0.27855,-0.56441 -0.48014,-0.7545 -0.40317,-0.38016 -0.92687,-0.55132 -1.39468,-0.73163 -0.46781,-0.18032 -0.88067,-0.35333 -1.07459,-0.68591 -0.097,-0.1663 -0.14931,-0.3698 -0.11432,-0.64019 0.035,-0.27038 0.15657,-0.61036 0.36582,-1.02886 0.21169,-0.42341 0.49373,-0.73082 0.82309,-0.98314 0.32936,-0.25232 0.68825,-0.46241 1.07459,-0.64018 0.77268,-0.35553 1.6041,-0.64384 2.24064,-1.28036 0.16347,-0.16347 -0.40851,-0.28006 -1.05173,-0.34296 -0.64323,-0.0629 -1.35946,-0.0685 -1.44041,-0.0685 z"
            style="fill:#fdf9d2;fill-opacity:1;fill-rule:evenodd;stroke:#d39062;stroke-width:0.365818;stroke-linecap:butt;stroke-linejoin:miter;stroke-miterlimit:4;stroke-dasharray:none;stroke-opacity:1"
            id="San_Carlos"
            inkscape:connector-curvature="0" />
        <path
            d="m 232.09401,57.108818 c -1.01133,-0.505659 -1.22973,1.563703 -1.85196,1.874819 -1.02001,0.509996 -0.81785,1.811464 -2.05772,0.571591 -0.94136,-0.941381 -0.0686,-1.063397 -0.0686,-2.149183 -0.24939,-0.06236 -1.73975,-0.02911 -1.98914,-0.09145 -1.13666,-0.284159 -1.23318,1.400478 -1.12031,1.851955 0.26739,1.069563 1.77975,1.596852 2.33209,2.149183 0.63418,0.63417 0.84637,1.44207 1.02886,2.172047 0.90502,2.218657 0.42246,3.679939 -0.80023,5.601594 -0.59449,1.188998 0.2216,3.295538 -1.23463,2.88082 -1.1274,-0.321061 -1.36819,1.258984 -0.96028,2.583593 0.14709,0.477609 -1.58023,0.533562 -2.05772,0.891682 -0.64461,0.483439 -0.19459,1.898182 -0.59446,2.697911 -0.46062,0.92121 -1.94496,0.0395 -1.64618,1.234637 0.1843,0.737223 -0.21854,2.441165 0,3.315229 0.0742,1.880373 -1.28823,1.708021 -0.7545,3.795366 0.45754,0.91508 1.12032,1.441149 1.12032,2.423547 -1e-5,0.798742 -1.46127,0.788302 -2.05773,0.93741 -0.87533,0.218839 -0.49108,1.737593 0,2.057728 1.51816,0.989678 1.07257,0.923596 -0.34296,1.966274 -0.48218,0.355173 -0.51402,0.834278 -0.503,1.394683 0.70444,0.628549 1.54862,1.527284 2.83509,2.492137 0.22673,0.17004 0.43369,0.609125 0.61732,1.18891 0.18364,0.579786 0.34558,1.294969 0.503,2.034859 0.31484,1.4798 0.58048,3.03578 0.89169,3.65819 0.12815,0.25629 1.25843,0.88192 2.44641,1.53186 1.18798,0.64994 2.45272,1.33241 2.83509,1.71477 0.37466,0.37468 0.76187,0.63899 1.18891,0.8231 0.42703,0.1841 0.87383,0.28481 1.34895,0.34295 0.95026,0.11627 1.99256,0.0457 3.10946,0.0457 1.01101,0 2.37598,0.13672 3.65818,0.45727 0.64111,0.16027 1.2495,0.35802 1.80623,0.61732 0.55673,0.2593 1.04665,0.56651 1.41755,0.93741 0.45495,0.45495 0.89051,0.81557 1.28036,1.05173 0.38986,0.23615 0.74492,0.36149 1.09746,0.38868 0.35254,0.0272 0.68584,-0.0567 1.02886,-0.22864 0.34302,-0.17196 0.69043,-0.43893 1.05173,-0.80023 0.33541,-0.3354 0.68348,-0.57775 1.05173,-0.7545 0.36825,-0.17674 0.76535,-0.29787 1.18891,-0.36581 0.84711,-0.13591 1.81482,-0.0915 3.018,-0.0915 0.7008,0 1.25743,0.0691 1.71477,0.18291 0.45735,0.11385 0.81999,0.25975 1.18891,0.41155 0.36892,0.1518 0.73054,0.32056 1.16605,0.43441 0.43551,0.11385 0.94332,0.1829 1.60046,0.1829 1.043,0 1.53074,-0.34394 2.012,-0.41154 0.24063,-0.0338 0.48245,0.006 0.80022,0.18291 0.31778,0.17715 0.69465,0.48886 1.23464,1.02886 0.33786,0.33785 1.42743,0.66535 2.53787,0.93741 1.11043,0.27206 2.23791,0.49277 2.72077,0.68591 0.53578,0.21431 1.04869,0.28882 1.53187,0.2515 0.48317,-0.0373 0.95671,-0.18951 1.37181,-0.36582 0.83022,-0.3526 1.50107,-0.86484 1.96628,-1.09745 0.67672,-0.33836 1.22366,-0.43055 1.69191,-0.34296 0.46825,0.0876 0.85973,0.3643 1.16605,0.73164 0.30631,0.36734 0.54072,0.82521 0.73163,1.32609 0.19092,0.50088 0.33522,1.04365 0.45727,1.53187 0.14562,0.58245 0.44959,1.06606 0.84596,1.509 0.39637,0.44294 0.87533,0.84752 1.41755,1.21177 1.08443,0.7285 2.36839,1.3476 3.40668,2.12632 0.82909,0.62183 1.49526,1.5154 2.08059,2.35496 0.58533,0.83955 1.08192,1.63064 1.55473,2.10345 0.79139,0.79139 1.31314,1.43855 1.78337,2.17205 0.47022,0.7335 0.89714,1.54279 1.46327,2.67505 0.49921,0.99841 0.99061,1.6502 1.37182,2.37782 0.1906,0.3638 0.36838,0.74752 0.48013,1.21177 0.11175,0.46425 0.16005,1.01512 0.16005,1.69191 0,0.35066 0.16098,0.65528 0.38868,0.93741 0.2277,0.28213 0.51949,0.53 0.82309,0.77736 0.3036,0.24736 0.61826,0.48528 0.84596,0.73164 0.2277,0.24636 0.38868,0.49824 0.38868,0.77736 0,0.37475 0.21999,0.75927 0.57159,1.14319 0.3516,0.38392 0.82217,0.78354 1.32609,1.14318 1.00785,0.71927 2.11642,1.33905 2.53787,1.7605 1.41556,1.41554 2.20653,2.61807 3.24664,3.65818 0.67146,0.67146 1.20093,1.48458 1.85195,2.12632 0.32552,0.32088 0.67455,0.57868 1.09746,0.77737 0.42291,0.19868 0.92037,0.32009 1.509,0.32009 0.63128,0 1.09546,0.1905 1.48614,0.41154 0.39067,0.22105 0.70309,0.48884 1.006,0.68591 0.3029,0.19708 0.59229,0.32341 0.96027,0.2515 0.36798,-0.0719 0.80878,-0.3515 1.39468,-0.93741 0.71376,-0.71376 1.20983,-1.32307 1.73764,-1.85195 0.52781,-0.52889 1.1023,-0.98556 1.92055,-1.39468 0.11411,-0.0571 0.16681,0.023 0.20577,0.16004 0.039,0.13701 0.0468,0.34637 0.0457,0.59446 -0.002,0.49617 -0.0487,1.135 0,1.57759 0.0244,0.22129 0.0702,0.37385 0.16004,0.45727 0.0898,0.0834 0.22122,0.0917 0.41155,-0.0457 0.38065,-0.27488 0.9954,-1.08741 1.98914,-2.74363 0.55199,-0.91999 0.84235,-1.57319 0.98313,-2.01201 0.14078,-0.43881 0.1494,-0.65975 0.18291,-0.66304 0.0335,-0.004 0.0899,0.20789 0.32009,0.59445 0.23018,0.38657 0.61818,0.96114 1.34896,1.69191 1.64699,1.64698 2.71846,2.71847 4.04686,4.04687 0.44136,0.44135 0.8858,0.77922 1.3261,1.05173 0.44029,0.2725 0.89251,0.47465 1.37181,0.61732 0.95861,0.28533 2.02891,0.34295 3.38382,0.34295 1.26039,0 2.42395,0.0417 3.49814,-0.0457 1.07419,-0.0874 2.05256,-0.29463 2.97228,-0.7545 0.40481,-0.2024 0.81768,-0.17831 1.21177,-0.0228 0.3941,0.15545 0.76981,0.42773 1.16605,0.7545 0.39623,0.32676 0.80055,0.69447 1.21177,1.006 0.41122,0.31153 0.8413,0.57614 1.28037,0.68591 0.63358,0.1584 1.2264,0.47367 1.80622,0.86882 0.57983,0.39515 1.14265,0.87355 1.73764,1.34895 0.59499,0.4754 1.2186,0.9498 1.89768,1.34896 0.67909,0.39916 1.40854,0.72526 2.24064,0.89168 0.1411,0.0282 0.23222,0.0238 0.36582,0.0457 l -0.34295,-4.36696 1.2575,-2.49214 12.43782,-9.96855 c -0.69178,-0.27671 -1.38881,-0.54638 -2.08059,-0.82309 -0.38546,-0.15419 -0.67228,-0.4488 -0.89168,-0.82309 -0.21941,-0.3743 -0.35082,-0.83929 -0.43441,-1.3261 -0.1672,-0.9736 -0.10305,-2.05708 0.0915,-2.83509 0.0499,-0.19965 -0.006,-0.44968 0.0228,-0.66304 -2.1877,-1.49866 -5.19598,-0.44843 -7.75078,-0.86882 -2.23591,-1.09635 -3.20498,-0.44179 -4.06973,-0.96028 -2.66447,-1.36048 -4.79825,-3.03211 -7.33923,-4.59559 -2.54991,-3.02992 -7.28666,-2.96909 -8.39096,-7.17919 -0.45112,-0.45112 -2.67767,-0.84595 -3.42955,-0.84595 -1.30928,0 -1.36576,-0.45727 -2.67504,-0.45727 -1.34668,0 -2.18595,-0.77276 -2.67505,-1.69191 -0.36628,-0.68833 -0.087,-2.48669 -1.66905,-3.04087 -0.77102,-1.42748 -2.93901,-1.61835 -1.73763,-3.47527 -0.6334,-0.31671 -1.7455,-0.32795 -2.30923,-0.89169 -1.00115,-1.00115 -2.71176,-1.29003 -3.04087,-2.60645 -0.27793,-1.11166 0.49272,-3.13763 -0.13718,-3.24664 -0.85172,-0.1474 -3.21734,-0.83926 -3.10946,-2.24064 0.0449,-0.58364 -0.78082,-1.95032 -1.05172,-2.49214 -0.99728,-1.274167 -2.7188,-2.06601 -4.36696,-2.194902 -0.99921,0 -1.43083,-0.898311 -2.24064,-1.303228 -1.6931,-1.158503 -3.08596,0.340803 -4.68705,0.7545 -0.9714,-1.00404 -0.19215,-1.931192 -1.44041,-2.332092 -1.12572,0 -3.09889,-0.174123 -4.16118,0.09145 -1.1976,0.299408 0.30267,0.872909 1.12032,1.486138 0.51558,1.247748 -1.76372,1.442773 -2.99514,2.057728 -2.46557,-0.823201 -4.01582,1.321596 -6.17319,1.691906 -2.27119,2.23856 -2.45605,3.03409 -4.68704,0 -1.59895,-1.204314 -3.5798,-0.66599 -5.23578,-1.508997 -3.69094,-3.448862 -1.53314,4.778587 -4.29837,-1.669046 -0.24933,-0.997389 -0.42068,-0.754501 -2.24063,-0.754501 -3.1721,1.102518 0.92293,6.640144 -4.54987,2.012002 -0.74977,-1.499556 -2.16887,-0.917722 -0.503,-2.583593 0.65787,-0.657858 0.7545,-2.276063 0.7545,-2.423547 1e-5,-1.067209 -2.65957,1.006001 -3.72678,1.006001 -1.18973,-0.984805 -1.22621,-3.616708 -1.69191,-5.121458 10e-6,-1.319573 -0.69793,-1.57877 -1.12031,-2.423547 -0.47112,-0.942216 1.24446,-0.604281 1.98913,-1.348955 0.99295,-1.727812 -0.51951,-3.583191 -2.19491,-4.092593 -1.38458,-2e-6 -1.58785,1.444156 -2.99514,0.388682 -0.59189,-0.443907 -0.36581,-1.984361 -0.36581,-2.812229 -1e-5,-0.997834 -0.97111,-1.514409 -1.69191,-1.87482 -1.03665,-0.518299 -2.58514,-1.224144 -2.05773,-2.240637 0.99666,-1.920922 0.19455,-2.861626 -2.8351,-2.172047 -0.90167,0.205233 0.41603,-1.8932 -0.36581,-2.675047 -0.7362,-0.736193 -2.4618,0.233282 -2.85796,-0.525864 -0.67552,-1.294432 -0.56434,-1.188518 -1.60046,-2.857956 -0.68844,-1.109266 -0.56479,-1.139968 -2.03486,-0.845955 -0.80199,0.160393 -2.22069,0.005 -2.24064,0 -1.69607,-0.424015 -0.3735,-1.360345 0.16005,-1.760501 -0.61243,-1.394049 -1.92076,-2.347265 -2.60646,-3.749639 0.13295,-2.112778 2.72396,-2.248552 0.18291,-3.749639 -0.16741,-0.06697 -1.34307,0.551668 -2.44641,0 z"
            style="fill:#fdf9d2;fill-opacity:1;fill-rule:evenodd;stroke:#d39062;stroke-width:0.365818;stroke-linecap:butt;stroke-linejoin:miter;stroke-miterlimit:4;stroke-dasharray:none;stroke-opacity:1"
            id="San_Gregorio"
            inkscape:connector-curvature="0" />
    </g>
</svg>
